<?xml version="1.0" standalone="no"?>
<!DOCTYPE svg PUBLIC "-//W3C//DTD SVG 20010904//EN"
 "http://www.w3.org/TR/2001/REC-SVG-20010904/DTD/svg10.dtd">
<svg version="1.0" xmlns="http://www.w3.org/2000/svg"
 width="1080.000000pt" height="1097.000000pt" viewBox="0 0 1080.000000 1097.000000"
 preserveAspectRatio="xMidYMid meet">

<g transform="translate(0.000000,1097.000000) scale(0.100000,-0.100000)"
fill="#000000" stroke="none">
<path d="M0 5485 l0 -5485 4105 0 4105 0 -1 38 c0 20 -3 31 -6 25 -8 -20 -23
-15 -23 7 0 16 7 20 30 20 17 0 30 -5 30 -12 0 -12 67 -35 186 -67 29 -8 398
-11 1208 -11 l1166 0 0 345 0 345 -44 0 c-49 0 -89 -26 -65 -41 10 -6 8 -13
-10 -28 -37 -32 -104 -37 -257 -17 -17 2 -45 11 -62 20 -17 9 -50 16 -74 16
-24 0 -59 8 -78 19 -19 10 -66 23 -105 30 -106 18 -107 18 -152 35 -23 9 -66
16 -95 17 -98 3 -134 43 -88 97 37 45 171 67 228 38 15 -7 62 -18 105 -24 45
-6 86 -17 96 -26 12 -11 37 -16 77 -16 43 0 72 -7 108 -25 45 -23 60 -25 153
-23 57 1 103 6 103 10 0 4 18 8 40 8 29 0 40 4 40 15 0 19 -76 21 -83 3 -4
-10 -7 -10 -18 0 -11 10 -10 12 4 12 26 0 22 43 -5 55 -13 6 -22 17 -20 27 4
27 -37 45 -118 52 -41 4 -76 11 -78 16 -2 6 -10 10 -18 10 -9 0 -39 11 -67 24
-83 40 -183 61 -342 75 -57 5 -126 18 -160 30 -33 12 -85 25 -115 28 -30 2
-70 11 -87 19 -29 13 -62 20 -207 41 -40 5 -66 22 -66 42 0 6 -6 11 -14 11
-21 0 -24 18 -17 95 6 65 25 115 44 115 4 0 17 16 28 35 12 19 27 35 35 35 8
0 11 6 8 15 -7 17 31 22 41 5 3 -5 19 -8 35 -6 16 2 27 0 25 -4 -3 -4 39 -10
93 -12 104 -6 255 -32 312 -54 45 -18 271 -52 390 -59 74 -4 80 -5 80 -20 0
-9 9 -15 23 -15 13 0 28 -5 34 -11 6 -6 75 -14 154 -19 79 -5 154 -12 167 -16
l22 -6 0 190 0 190 -32 10 c-43 13 -259 27 -373 23 -49 -1 -141 3 -202 10
-108 12 -113 13 -113 36 0 21 -4 23 -45 23 -25 0 -64 9 -87 20 -40 19 -40 19
-79 0 -46 -24 -107 -26 -115 -5 -7 17 -34 21 -34 5 0 -5 -9 -10 -20 -10 -13 0
-20 7 -20 20 0 16 -7 20 -36 20 -31 0 -45 9 -95 59 -48 47 -63 57 -84 53 -14
-2 -25 -8 -25 -13 0 -5 -10 -9 -22 -9 l-22 0 21 21 c22 23 60 28 105 15 24 -7
28 -5 28 13 0 15 6 21 22 21 12 0 18 3 15 6 -8 8 43 55 98 92 22 15 66 46 97
70 31 23 61 42 67 42 5 0 33 19 63 43 64 52 102 76 188 120 119 60 176 112
251 227 16 25 62 90 103 145 l73 100 59 5 c59 5 59 5 86 55 29 53 82 104 111
105 16 0 17 63 17 1173 l0 1173 -30 17 c-16 10 -30 22 -30 28 0 5 -7 9 -16 9
-17 0 -71 27 -92 48 -7 6 -21 12 -30 12 -9 0 -43 28 -75 63 -31 34 -68 74 -82
88 -14 15 -25 35 -25 45 0 31 -23 84 -37 84 -7 0 -22 9 -33 20 -14 14 -34 20
-62 20 -24 1 -69 3 -100 7 -40 4 -58 2 -58 -6 0 -7 -10 -5 -27 6 -14 10 -42
19 -60 20 -46 3 -194 42 -210 55 -20 16 -16 48 6 48 33 0 111 38 111 55 0 19
31 55 47 55 7 0 13 5 13 10 0 6 6 10 14 10 16 0 66 45 66 59 0 11 -55 -2 -75
-19 -9 -8 -16 -4 -28 13 -14 22 -14 25 4 40 11 10 25 17 32 17 8 0 19 11 26
23 7 13 30 31 51 41 30 13 38 23 43 51 6 38 -10 95 -32 109 -7 4 -20 17 -29
27 -9 10 -31 22 -48 25 -38 7 -43 17 -37 62 3 20 11 32 20 32 9 0 13 -6 9 -15
-3 -8 -1 -15 4 -15 6 0 10 6 10 14 0 10 14 14 50 14 38 1 50 -3 50 -14 0 -11
4 -12 18 -5 14 8 18 20 17 58 -3 63 -3 65 -15 58 -5 -3 -7 -12 -3 -20 3 -8 0
-15 -6 -15 -6 0 -11 8 -12 18 0 15 -1 14 -8 -3 -8 -19 -8 -19 -20 0 -10 16
-11 16 -7 3 6 -19 -4 -24 -20 -9 -5 6 -31 6 -63 0 -31 -5 -59 -5 -65 0 -6 5
-72 10 -146 12 -158 3 -173 8 -157 44 7 14 15 25 20 25 4 0 7 7 7 15 0 12 15
15 68 16 37 1 71 0 77 -1 5 -1 63 4 127 10 116 12 234 3 279 -21 9 -4 41 -13
70 -18 59 -10 74 -14 229 -60 166 -49 193 -58 233 -75 l37 -16 0 2215 0 2215
-4295 0 c-2457 0 -4295 -4 -4295 -9 0 -5 6 -14 14 -20 9 -8 15 -51 19 -148 3
-84 10 -139 16 -141 18 -6 14 -82 -4 -82 -11 0 -15 -11 -15 -40 l0 -40 80 0
80 0 0 -80 c0 -50 -4 -80 -11 -80 -6 0 -24 -13 -40 -29 -33 -33 -40 -90 -14
-111 22 -18 22 -180 0 -180 -10 0 -15 -10 -15 -30 0 -28 2 -30 41 -30 33 0 40
-3 37 -17 -2 -13 -14 -19 -41 -21 l-37 -3 2 -112 c2 -102 2 -104 5 -29 3 64 7
82 18 82 20 0 22 -146 2 -153 -6 -3 3 -6 21 -6 31 -1 32 -3 32 -41 0 -33 -3
-40 -20 -40 -17 0 -20 -7 -20 -40 l0 -40 60 0 60 0 0 -40 c0 -33 -3 -40 -20
-40 -17 0 -20 -7 -20 -40 0 -33 3 -40 20 -40 19 0 20 -7 20 -120 l0 -120 40 0
40 0 0 -40 c0 -33 -3 -40 -20 -40 -18 0 -20 -7 -20 -80 0 -73 2 -80 20 -80 17
0 20 7 20 40 0 22 5 40 10 40 6 0 10 -47 10 -120 l0 -120 -50 0 -50 0 0 120
c0 113 -1 120 -20 120 -17 0 -20 -7 -20 -40 0 -30 4 -40 16 -40 14 0 15 -13
12 -88 l-3 -89 48 5 c39 4 47 2 47 -12 0 -12 10 -16 40 -16 33 0 40 -3 40 -20
0 -13 -7 -20 -20 -20 -17 0 -20 -7 -20 -40 0 -33 3 -40 20 -40 13 0 20 -7 20
-20 0 -17 7 -20 40 -20 l40 0 1 -77 c1 -43 3 -71 6 -62 3 13 12 8 42 -22 21
-22 43 -39 49 -39 7 0 12 -16 12 -40 0 -29 -4 -40 -15 -40 -11 0 -15 -11 -15
-40 0 -29 4 -40 15 -40 11 0 15 -11 15 -40 0 -36 3 -40 25 -40 l25 0 2 -122
c2 -68 1 -158 0 -200 l-3 -78 40 0 41 0 0 -80 0 -80 95 0 95 0 0 -40 0 -40
-55 0 -55 0 0 -40 0 -40 40 0 40 0 0 -80 0 -80 40 0 40 0 0 -44 0 -44 160 5
160 6 0 -42 0 -41 40 0 40 0 0 -80 0 -80 40 0 40 0 0 -40 0 -40 40 0 40 0 0
-40 0 -40 40 0 40 0 0 -40 0 -40 40 0 40 0 0 -40 c0 -29 4 -40 15 -40 11 0 15
-11 15 -40 0 -36 3 -40 25 -40 23 0 25 -4 25 -40 l0 -40 80 0 c76 0 80 1 80
23 l1 22 18 -23 c15 -17 34 -24 80 -28 34 -4 61 -11 61 -15 0 -5 18 -9 40 -9
22 0 40 -4 40 -10 0 -5 18 -10 40 -10 29 0 40 -4 40 -15 0 -11 11 -15 40 -15
l40 0 0 -40 0 -40 40 0 40 0 0 -85 0 -85 40 0 c33 0 40 3 40 20 0 17 7 20 40
20 33 0 40 -3 40 -20 0 -17 7 -20 40 -20 33 0 40 -3 40 -20 0 -26 51 -28 76
-3 13 13 19 14 22 5 2 -6 17 -12 33 -12 23 0 29 4 29 21 0 15 5 20 23 17 18
-2 22 -9 22 -38 0 -19 -4 -38 -10 -42 -5 -4 -6 -11 -1 -15 12 -12 37 28 30 49
-3 10 -1 18 4 18 19 0 28 43 18 82 -7 27 -7 41 1 49 16 16 -5 59 -27 59 -10 0
-23 7 -30 15 -16 20 -44 19 -65 -1 -12 -13 -19 -14 -30 -4 -8 7 -15 9 -15 5 0
-5 -9 0 -20 10 -11 10 -20 26 -20 37 0 14 -8 18 -33 18 -25 0 -41 8 -60 30
-15 16 -27 32 -27 36 0 3 -7 12 -15 20 -21 21 -19 50 5 72 13 12 24 41 30 76
10 61 5 86 -15 86 -8 0 -31 18 -53 39 -41 41 -58 85 -47 120 4 13 -1 24 -15
34 -27 19 -90 108 -90 127 0 8 -15 47 -34 85 -19 39 -40 85 -46 102 -7 18 -41
63 -77 100 -35 37 -66 78 -70 92 -3 13 -11 35 -18 47 -8 16 -11 77 -9 190 2
144 4 169 19 180 9 7 18 18 19 26 12 64 18 76 37 71 10 -3 19 -10 19 -15 0 -5
5 -6 10 -3 6 3 10 19 10 36 0 20 12 42 39 71 44 46 51 76 50 208 -1 78 13 134
32 128 6 -2 22 -23 34 -47 44 -82 67 -93 144 -71 49 14 111 77 111 111 0 15
-4 31 -10 34 -5 3 -10 21 -10 38 0 18 -9 50 -20 72 -11 22 -20 44 -20 51 0 21
-59 93 -89 109 -36 18 -41 19 -41 3 0 -20 -69 -90 -83 -85 -6 2 -12 21 -13 43
0 38 -21 110 -36 128 -11 14 -10 74 2 81 6 4 17 21 26 38 41 88 59 110 103
127 36 13 47 24 56 51 12 33 13 34 75 36 34 2 68 7 74 12 6 5 41 16 78 25 37
9 76 20 85 25 10 6 41 17 70 26 28 9 73 32 98 52 46 35 49 36 135 34 99 -2 99
-2 100 89 0 31 13 74 41 135 22 50 49 114 60 143 10 29 31 70 47 90 16 20 33
45 38 54 5 9 34 43 65 75 31 32 86 103 124 158 77 114 113 155 133 155 10 0 8
-9 -10 -32 -14 -18 -45 -71 -70 -118 -26 -47 -62 -114 -82 -148 -20 -35 -36
-66 -36 -68 0 -2 -13 -25 -30 -51 -29 -45 -30 -50 -26 -144 5 -103 -6 -139
-42 -139 -10 0 -23 -9 -30 -20 -7 -12 -24 -25 -37 -30 -38 -15 -30 -80 10 -86
40 -6 75 -27 75 -45 0 -14 7 -19 29 -19 16 0 36 -7 45 -15 24 -24 36 -18 36
19 0 52 15 52 44 0 32 -58 35 -88 6 -79 -15 5 -22 0 -30 -20 -13 -34 -13 -95
0 -95 6 0 10 14 10 31 l0 30 33 -25 c19 -15 39 -26 46 -26 6 0 21 -21 32 -47
68 -152 74 -163 93 -163 10 0 26 11 37 23 10 13 38 32 64 41 25 10 45 21 45
26 0 11 29 40 39 40 12 0 8 -82 -4 -99 -14 -18 -98 -103 -119 -119 -23 -19
-15 -35 20 -44 16 -4 49 -13 73 -18 49 -13 47 -21 -12 -35 -39 -10 -42 -14
-45 -47 -2 -23 7 -61 22 -99 13 -33 22 -67 19 -75 -10 -28 -31 -13 -60 43 -39
77 -59 80 -67 10 -4 -29 -2 -73 3 -98 8 -35 7 -47 -4 -58 -22 -22 -60 9 -90
74 -15 30 -31 55 -35 55 -5 0 -17 -14 -25 -30 -9 -17 -20 -28 -25 -25 -18 11
-10 54 15 81 28 30 30 40 15 78 -9 25 -10 25 -40 8 -16 -9 -30 -21 -30 -26 0
-6 -12 -22 -26 -37 -27 -28 -40 -48 -71 -109 -10 -19 -30 -53 -46 -74 -15 -22
-34 -64 -43 -93 -8 -29 -19 -53 -23 -53 -10 0 -57 -104 -66 -146 -9 -45 16
-51 46 -11 13 18 40 50 60 72 54 58 91 104 122 152 15 23 38 50 53 59 23 16
28 16 60 1 37 -18 42 -35 20 -70 -9 -15 -16 -68 -19 -167 -3 -80 -10 -170 -16
-200 -53 -285 -70 -500 -59 -765 8 -194 24 -320 45 -352 8 -12 17 -50 20 -84
4 -42 14 -74 30 -97 12 -19 28 -52 35 -73 6 -21 24 -50 39 -64 16 -14 29 -23
29 -20 0 2 10 1 23 -4 14 -5 22 -17 22 -32 0 -14 5 -23 13 -21 48 9 -61 -301
-120 -342 -24 -17 -75 -21 -96 -8 -17 11 -70 153 -82 222 -5 30 -17 96 -26
145 -9 50 -23 108 -32 130 -27 69 -106 160 -187 213 -22 15 -66 47 -99 72 -84
64 -88 67 -118 74 -19 4 -28 2 -28 -6 0 -7 -11 -26 -25 -41 -20 -20 -35 -27
-64 -27 -34 0 -46 7 -91 53 -60 60 -84 116 -68 153 6 13 19 24 30 24 27 0 54
32 62 72 5 28 -1 51 -29 111 -39 83 -46 151 -19 192 20 31 13 42 -36 50 -44 7
-79 -8 -141 -61 -20 -17 -43 -35 -50 -40 -14 -9 -53 -66 -79 -117 -13 -26 -12
-32 8 -70 12 -23 22 -47 22 -54 0 -24 36 -73 55 -75 33 -3 59 -5 73 -7 6 0 12
-9 12 -19 0 -10 4 -22 9 -27 17 -17 40 -126 34 -160 -7 -41 29 -106 83 -150
20 -16 48 -50 62 -75 14 -25 29 -47 32 -50 4 -3 21 -36 39 -75 130 -275 171
-338 212 -328 13 4 26 9 29 13 10 15 70 40 93 40 30 0 37 -16 37 -79 0 -42 5
-51 40 -86 24 -23 40 -48 40 -62 0 -15 12 -31 35 -45 41 -28 57 -60 49 -96 -8
-30 -49 -84 -58 -75 -9 9 -26 -45 -26 -83 0 -20 7 -57 16 -85 9 -27 14 -58 11
-69 -10 -38 12 -162 37 -204 20 -35 24 -60 30 -174 7 -142 11 -162 31 -162 25
0 37 31 50 129 11 87 27 131 48 131 6 0 87 -109 87 -118 0 -4 9 -18 20 -32 11
-14 20 -39 20 -57 0 -29 -4 -33 -52 -51 -48 -18 -53 -23 -65 -66 -8 -28 -19
-46 -28 -46 -12 0 -15 -16 -15 -80 0 -44 4 -80 9 -80 5 0 19 -26 31 -58 13
-31 27 -61 32 -66 4 -6 8 -25 8 -43 0 -23 5 -33 15 -33 8 0 15 -9 15 -20 0
-11 -7 -20 -15 -20 -8 0 -15 -9 -15 -20 0 -11 -4 -20 -9 -20 -5 0 -11 -10 -13
-22 -3 -25 -38 -38 -38 -15 0 14 -73 57 -96 57 -5 0 -31 22 -58 48 -51 51
-117 164 -173 299 -24 56 -45 90 -64 104 -16 11 -29 29 -29 40 0 11 -7 33 -15
49 -35 67 -55 174 -58 315 -5 161 -19 218 -56 223 -13 2 -28 -1 -34 -7 -10
-10 -107 -16 -107 -7 0 2 16 47 35 100 34 94 34 98 28 206 -7 120 -14 131 -64
91 -13 -10 -34 -21 -45 -25 -24 -7 -34 -32 -34 -83 0 -23 -10 -42 -34 -66 -23
-23 -36 -48 -41 -78 -15 -85 -13 -112 14 -137 l24 -22 -31 -33 c-49 -51 -40
-126 16 -128 43 0 161 -33 162 -44 0 -6 -41 -13 -92 -16 -117 -8 -128 -12
-128 -54 0 -40 26 -65 67 -65 38 0 45 -16 25 -52 -12 -21 -14 -37 -6 -74 11
-56 10 -55 174 -79 128 -19 140 -23 140 -40 0 -15 -24 -26 -43 -21 -6 2 -46
10 -87 17 -41 7 -94 21 -118 31 -59 24 -63 23 -61 -15 3 -39 -9 -97 -23 -115
-23 -27 4 -107 77 -227 20 -32 25 -54 25 -108 0 -48 7 -85 25 -128 18 -45 22
-66 15 -79 -13 -25 -13 -76 1 -103 6 -12 33 -44 60 -72 l48 -50 5 -103 c4 -69
11 -113 23 -135 36 -68 14 -233 -36 -265 -14 -9 -35 -27 -46 -39 -14 -16 -32
-23 -56 -23 -30 0 -37 -5 -54 -37 -11 -21 -25 -43 -31 -50 -7 -7 -20 -37 -29
-68 -10 -30 -22 -55 -26 -55 -5 0 -9 -6 -9 -13 0 -8 -9 -22 -20 -32 -11 -10
-25 -36 -31 -57 -7 -26 -18 -42 -34 -48 -27 -10 -50 -46 -36 -54 18 -12 -8
-75 -48 -118 -23 -23 -44 -54 -47 -68 -9 -41 -34 -82 -77 -124 l-40 -39 22
-18 c11 -9 21 -24 21 -33 0 -21 -43 -21 -60 -1 -7 8 -21 15 -31 15 -16 0 -19
-8 -19 -43 0 -24 -6 -51 -13 -61 -12 -16 -14 -16 -25 9 -10 22 -15 25 -27 15
-11 -9 -19 -4 -40 30 -14 22 -32 43 -40 47 -11 3 -15 21 -15 59 l0 54 39 0
c22 0 41 -5 43 -12 3 -7 5 47 6 120 l2 132 -45 0 -45 0 0 -80 0 -80 -39 0 -39
0 -7 80 c-6 65 -10 80 -24 80 -9 0 -25 14 -36 30 -12 18 -29 30 -42 30 -12 0
-24 4 -28 10 -8 14 -130 7 -149 -9 -11 -10 -16 -10 -16 -2 0 7 -4 9 -10 6 -6
-3 -10 -1 -10 4 0 6 8 11 18 11 15 1 15 2 -2 15 -27 20 -36 19 -36 -5 0 -16
-7 -20 -30 -20 -23 0 -30 4 -30 20 0 17 -7 20 -40 20 -22 0 -40 5 -40 10 0 6
-18 10 -40 10 -22 0 -40 -4 -40 -10 0 -5 -18 -10 -40 -10 -22 0 -40 5 -40 10
0 6 -18 10 -40 10 -26 0 -40 5 -40 13 0 21 -81 67 -120 67 -39 0 -74 18 -53
27 7 2 13 11 13 19 0 10 -12 14 -40 14 -22 0 -40 5 -40 10 0 6 -18 10 -40 10
-29 0 -40 4 -40 15 0 11 11 15 40 15 29 0 40 4 40 15 0 11 11 15 40 15 22 0
40 5 40 11 0 7 -43 10 -131 8 -120 -2 -133 0 -146 17 -13 17 -26 19 -141 17
-70 -1 -165 -3 -212 -6 -47 -2 -68 -2 -47 0 53 6 51 33 -3 33 -29 0 -40 4 -40
15 0 11 -11 15 -40 15 -22 0 -40 5 -40 10 0 6 -87 10 -240 10 -207 0 -240 2
-240 15 0 20 -9 19 -33 -3 -17 -15 -37 -17 -153 -14 l-134 3 0 -41 c0 -30 -4
-40 -16 -40 -9 0 -24 -10 -35 -22 -16 -20 -20 -21 -30 -8 -8 12 -9 8 -5 -18 3
-19 2 -31 -3 -27 -5 3 -13 1 -16 -5 -4 -6 -1 -9 6 -8 6 2 14 -3 16 -9 3 -9 -8
-13 -36 -13 -23 0 -41 5 -41 10 0 6 4 10 10 10 5 0 7 6 4 13 -5 15 -41 20 -49
6 -4 -5 1 -9 9 -9 9 0 16 -4 16 -10 0 -5 -13 -10 -29 -10 -16 0 -48 -9 -72
-20 -24 -11 -53 -20 -64 -19 -25 0 -69 35 -60 49 3 5 -10 17 -29 27 -43 20
-45 27 -8 42 24 10 27 16 27 59 l0 47 43 3 c41 3 42 4 42 38 0 34 0 34 45 34
36 0 43 3 38 16 -4 12 -17 15 -50 12 l-45 -3 4 31 4 32 -155 7 c-111 5 -156 4
-159 -4 -2 -7 -44 -11 -123 -11 -104 0 -119 2 -119 16 0 15 -9 16 -61 10 -34
-3 -88 -6 -120 -6 -33 0 -59 -4 -59 -8 0 -5 27 -8 60 -7 60 1 73 -8 48 -33
-16 -16 -28 -15 -28 3 0 11 -11 15 -38 15 -21 0 -42 3 -46 7 -4 4 -23 8 -42 8
l-34 1 0 -68 0 -68 -39 0 -40 0 3 -52 c2 -29 1 -36 -1 -15 -6 53 -33 51 -33
-3 0 -56 -34 -90 -90 -90 -29 0 -40 -4 -40 -15 0 -9 9 -15 25 -15 23 0 24 -2
15 -20 -6 -11 -17 -20 -25 -20 -8 0 -15 -9 -15 -20 0 -17 -7 -20 -40 -20 -35
0 -40 3 -40 23 0 13 -6 29 -12 35 -10 10 -10 14 0 21 10 6 4 17 -24 45 -27 27
-39 34 -45 24 -6 -9 -15 -10 -36 -3 -16 6 -69 8 -121 5 l-92 -5 -2 470 c-1
259 -2 1907 -3 3663 l-2 3194 65 86 c36 48 87 113 115 145 l49 57 -146 0 -146
0 0 -5485z m6760 4575 c0 -6 -7 -13 -15 -15 -55 -18 -98 -52 -246 -197 -32
-32 -60 -58 -64 -58 -36 0 171 217 244 255 49 26 81 31 81 15z m-4260 -250 c0
-22 -4 -40 -10 -40 -5 0 -10 18 -10 40 0 22 5 40 10 40 6 0 10 -18 10 -40z
m4390 -233 c0 -20 -57 -68 -93 -78 -77 -22 -75 -4 5 50 64 43 88 50 88 28z
m-132 -456 c5 -32 -15 -66 -45 -80 -33 -15 -53 1 -53 43 0 40 9 53 40 59 42 8
55 3 58 -22z m207 -127 c38 -8 55 -22 55 -45 0 -11 7 -19 15 -19 8 0 24 -9 35
-20 51 -51 -4 -70 -58 -21 -17 17 -32 34 -32 38 0 10 -56 39 -90 47 -14 3 -34
12 -45 20 -18 14 -16 15 35 11 30 -3 69 -8 85 -11z m-715 -44 c0 -11 -7 -20
-15 -20 -18 0 -19 12 -3 28 16 16 18 15 18 -8z m2696 -1003 c1 -1 5 -12 8 -24
6 -19 3 -23 -13 -23 -11 0 -23 5 -26 10 -4 6 -11 7 -17 4 -6 -4 -28 -11 -47
-14 -20 -4 -43 -10 -51 -13 -8 -4 -24 0 -35 8 -19 15 -19 16 5 33 38 26 60 32
119 26 30 -2 56 -6 57 -7z m65 -107 c27 -15 24 -40 -5 -40 -28 0 -40 14 -32
35 6 18 11 18 37 5z m-207 -85 c21 -19 26 -31 20 -48 -4 -12 -11 -24 -16 -25
-5 -2 -22 -15 -38 -29 -21 -17 -39 -23 -62 -21 -41 4 -46 23 -22 84 25 67 72
82 118 39z m771 -185 c3 -5 1 -10 -4 -10 -6 0 -11 5 -11 10 0 6 2 10 4 10 3 0
8 -4 11 -10z m505 -1760 c0 -5 -2 -10 -4 -10 -3 0 -8 5 -11 10 -3 6 -1 10 4
10 6 0 11 -4 11 -10z m-3910 -1384 c8 -7 29 -18 45 -26 17 -8 42 -24 57 -35
14 -11 45 -31 67 -44 50 -31 54 -41 31 -83 -21 -40 -99 -128 -112 -128 -12 0
-32 -20 -60 -62 -85 -125 -104 -113 -61 40 20 70 14 82 -38 80 -53 -2 -72 19
-57 64 7 21 7 37 -1 54 -16 36 -14 44 13 44 22 0 26 6 32 48 3 26 11 53 17 60
10 13 42 8 67 -12z m-170 -100 c0 -2 -18 -6 -40 -8 -22 -2 -40 0 -40 4 0 5 18
8 40 8 22 0 40 -2 40 -4z m-195 -377 c10 -15 -1 -23 -20 -15 -9 3 -13 10 -10
16 8 13 22 13 30 -1z m-3182 -586 c-13 -2 -33 -2 -45 0 -13 2 -3 4 22 4 25 0
35 -2 23 -4z m337 -23 c0 -5 -18 -10 -40 -10 -22 0 -40 5 -40 10 0 6 18 10 40
10 22 0 40 -4 40 -10z m2730 -233 c23 4 40 -1 68 -20 20 -14 68 -40 105 -56
99 -45 158 -40 171 14 4 15 13 25 24 25 16 0 42 -41 42 -67 0 -7 4 -13 10 -13
5 0 21 -24 34 -53 14 -29 39 -63 56 -75 16 -13 30 -28 30 -34 0 -6 24 -37 53
-68 78 -85 117 -134 117 -147 0 -7 12 -16 28 -20 l27 -7 -25 -7 c-24 -7 -24
-7 -2 -8 19 -1 22 -6 22 -41 0 -56 -34 -90 -90 -90 -36 0 -40 2 -40 25 0 23
-4 25 -40 25 -36 0 -40 3 -40 25 0 25 -1 25 -80 25 -47 0 -80 4 -80 10 0 6
-19 11 -42 12 l-43 1 43 4 c57 6 59 33 2 33 -33 0 -40 3 -40 20 0 17 -7 20
-40 20 -22 0 -40 -4 -40 -10 0 -5 -18 -10 -40 -10 -22 0 -40 5 -40 10 0 6 -18
10 -40 10 -29 0 -40 4 -40 15 0 11 -11 15 -40 15 -22 0 -40 -4 -40 -10 0 -5
-7 -10 -15 -10 -11 0 -15 11 -15 40 0 29 -4 40 -15 40 -11 0 -15 11 -15 40 l0
40 -50 0 c-38 0 -50 4 -50 15 0 23 -77 21 -83 -2 -3 -10 -5 1 -6 25 -1 39 -3
42 -28 42 -14 0 -23 3 -19 7 11 11 50 9 58 -2 5 -6 14 -1 23 12 16 23 55 27
55 5 0 -20 49 -64 65 -58 24 9 18 36 -8 36 -20 0 -25 8 -34 47 -6 27 -8 50 -4
53 5 3 11 34 14 68 5 49 12 68 29 82 23 19 23 19 51 -10 22 -24 33 -28 57 -23z
m-2040 -112 c24 -8 87 -18 142 -22 94 -6 98 -7 82 -24 -16 -17 -15 -19 2 -26
11 -4 25 -13 32 -20 7 -7 20 -13 27 -13 9 0 16 -17 21 -47 6 -41 4 -49 -16
-65 -27 -22 -98 -24 -155 -4 -22 8 -109 20 -192 27 -84 7 -153 16 -153 20 0
13 -61 69 -75 69 -18 0 -85 32 -85 40 0 6 37 23 108 51 13 5 46 9 75 10 29 1
63 5 77 9 39 12 64 11 110 -5z m1870 -5 c0 -13 -7 -20 -20 -20 -25 0 -25 9 -2
26 22 17 22 17 22 -6z m-1593 -67 c-3 -10 -5 -2 -5 17 0 19 2 27 5 18 2 -10 2
-26 0 -35z m-2707 -152 c0 -13 -27 -21 -75 -21 -50 0 -77 8 -69 21 7 12 144
12 144 0z m4281 -63 c28 -34 24 -72 -12 -107 -17 -17 -35 -31 -40 -31 -5 0 -9
-4 -9 -9 0 -11 -186 -8 -197 3 -3 3 -24 6 -46 6 -38 0 -97 26 -97 43 0 14 27
37 44 37 8 0 22 10 30 22 13 18 27 22 98 25 46 3 85 9 88 13 5 7 26 11 103 18
11 1 27 -8 38 -20z m-3699 -104 c4 -3 8 -12 8 -20 0 -19 -83 -19 -100 1 -20
24 -1 38 43 31 22 -4 44 -9 49 -12z m4693 -94 c3 -5 1 -10 -4 -10 -6 0 -11 5
-11 10 0 6 2 10 4 10 3 0 8 -4 11 -10z m312 -32 c13 -12 23 -30 23 -40 0 -26
-18 -58 -33 -58 -22 0 -47 39 -47 73 0 53 19 61 57 25z m-2151 -6 c11 -9 27
-32 34 -49 7 -18 16 -33 20 -33 20 0 19 -35 -1 -57 -23 -24 -49 -31 -49 -13 0
6 -6 10 -14 10 -16 0 -26 43 -26 111 0 53 4 57 36 31z m2222 -71 c23 -19 29
-41 12 -41 -5 0 -10 4 -10 8 0 5 -9 18 -20 30 -25 27 -11 29 18 3z m369 -28
c7 -9 10 -19 7 -22 -4 -3 -9 0 -11 7 -3 7 -23 12 -49 12 -42 0 -53 8 -37 24
12 12 77 -4 90 -21z m352 -101 c20 -11 51 -27 69 -36 22 -12 32 -25 32 -41 0
-29 -16 -42 -74 -59 -63 -19 -166 -86 -166 -108 0 -10 -5 -18 -11 -18 -9 0
-10 27 -5 95 7 87 6 95 -13 112 -27 23 -26 29 7 59 23 21 34 24 76 20 27 -3
65 -14 85 -24z m-557 -12 c19 -18 47 -33 69 -36 41 -7 53 -16 64 -52 5 -19 1
-25 -29 -37 -46 -19 -93 -19 -113 1 -11 11 -28 14 -52 11 -40 -5 -95 18 -85
34 4 7 10 7 17 0 17 -17 26 -13 20 8 -8 33 14 61 50 62 18 0 26 3 20 6 -15 6
-17 33 -3 33 6 0 24 -14 42 -30z m-346 -176 c32 -34 40 -37 99 -39 35 -1 70
-7 77 -13 7 -5 18 -11 23 -11 21 -2 45 -13 45 -20 0 -4 -11 -18 -26 -31 -20
-20 -27 -22 -34 -11 -6 11 -11 9 -21 -8 -17 -25 -37 -27 -83 -4 -27 12 -41 14
-58 6 -35 -15 -107 -4 -119 18 -5 10 -16 19 -24 19 -8 0 -15 5 -15 10 0 6 -6
10 -14 10 -7 0 -25 9 -40 21 -21 17 -24 24 -16 40 6 10 19 19 29 19 10 0 24 7
31 15 8 10 30 15 61 15 44 0 54 -4 85 -36z m1703 12 c-2 -3 -24 -6 -48 -9 -31
-2 -49 -10 -61 -27 -14 -19 -23 -22 -54 -16 -20 4 -36 10 -36 14 1 17 17 31
45 35 41 6 159 8 154 3z m1111 -166 c8 -5 11 -12 8 -15 -4 -4 -17 0 -30 9 -24
17 -5 23 22 6z m-2362 -11 c-12 -7 -24 -7 -35 0 -15 9 -12 10 17 10 29 0 32
-1 18 -10z m289 -65 c-3 -3 -12 -4 -19 -1 -8 3 -5 6 6 6 11 1 17 -2 13 -5z
m-479 -37 c22 -17 14 -57 -14 -67 -22 -9 -31 -5 -65 22 -39 33 -39 33 -18 50
21 18 71 15 97 -5z m802 -31 c0 -8 6 -16 13 -19 20 -6 -11 -37 -38 -37 -32 0
-37 20 -12 48 23 25 37 28 37 8z m870 -11 c26 -16 5 -32 -62 -47 -93 -20 -138
-15 -138 18 0 30 14 38 80 44 52 5 96 0 120 -15z m-6425 -42 c19 -11 18 -13
-17 -27 -21 -9 -58 -16 -83 -16 -26 0 -44 -4 -41 -9 3 -5 1 -23 -5 -40 -8 -23
-17 -31 -34 -31 -13 0 -26 6 -29 13 -30 60 -43 72 -85 75 -23 1 -54 8 -69 14
l-27 10 26 12 c36 15 337 15 364 -1z m3957 -51 c22 -15 49 -31 59 -37 11 -5
19 -15 19 -22 0 -7 8 -13 18 -13 15 -1 15 -2 -2 -15 -25 -19 -122 -20 -133 -2
-9 15 -5 48 9 65 13 15 0 16 -38 2 -14 -6 -42 -8 -60 -4 -27 5 -34 11 -34 29
0 44 95 42 162 -3z m2253 18 c3 -5 1 -10 -4 -10 -6 0 -11 5 -11 10 0 6 2 10 4
10 3 0 8 -4 11 -10z m-512 -7 c-13 -2 -33 -2 -45 0 -13 2 -3 4 22 4 25 0 35
-2 23 -4z m880 0 c-13 -2 -33 -2 -45 0 -13 2 -3 4 22 4 25 0 35 -2 23 -4z
m134 -532 c26 -10 66 -21 88 -25 60 -10 111 -35 123 -61 10 -21 7 -23 -41 -33
-29 -6 -74 -9 -102 -7 -27 2 -63 4 -78 4 -19 1 -26 5 -21 13 4 7 3 8 -5 4 -20
-13 -81 58 -81 94 0 28 3 30 35 30 19 0 56 -8 82 -19z m-197 -201 c0 -5 6 -10
12 -10 7 0 36 -10 66 -22 57 -24 76 -55 51 -84 -14 -17 -66 -16 -160 5 -110
24 -149 53 -134 101 6 18 15 20 86 20 46 0 79 -4 79 -10z m-526 -284 c58 -28
126 -42 126 -27 0 15 99 -39 105 -58 6 -21 56 -50 74 -43 7 2 12 -1 10 -8 -3
-6 -8 -11 -12 -11 -4 1 -17 -7 -29 -18 -11 -11 -34 -23 -50 -26 -16 -4 -32
-13 -35 -21 -3 -8 -22 -18 -43 -24 -26 -7 -48 -23 -71 -54 -33 -43 -35 -44
-109 -52 -41 -4 -90 -6 -107 -5 -23 2 -33 -2 -33 -12 0 -8 7 -17 15 -21 23 -9
18 -42 -9 -54 -14 -6 -26 -8 -29 -4 -2 4 -2 1 -1 -5 5 -19 -42 -46 -67 -40
-20 5 -93 -25 -105 -44 -8 -14 -17 -11 -47 17 -25 23 -34 25 -71 20 -39 -6
-43 -10 -52 -43 -10 -41 -28 -50 -102 -52 -44 -1 -112 23 -112 40 0 5 -7 9
-16 9 -9 0 -28 13 -44 30 -15 16 -65 45 -111 65 -112 48 -114 49 -117 74 -5
29 12 48 56 62 20 6 43 18 49 27 14 17 28 20 118 27 69 6 102 -2 70 -16 -13
-6 -2 -7 33 -3 42 5 51 3 47 -8 -8 -19 49 -38 114 -38 76 0 63 24 -16 30 -82
7 -92 20 -15 20 54 0 62 2 62 19 0 11 -4 21 -8 23 -5 2 -12 15 -15 29 -8 34
13 53 61 56 47 3 57 15 53 68 -2 42 -1 45 23 45 16 0 26 6 26 15 0 23 52 31
224 33 96 2 115 -1 160 -22z m-1063 -176 c10 -6 19 -16 19 -23 0 -17 -49 -57
-98 -79 -43 -19 -43 -19 -77 2 -57 35 -38 80 32 80 16 0 38 7 49 15 23 17 48
19 75 5z m-324 -16 c-3 -3 -12 -4 -19 -1 -8 3 -5 6 6 6 11 1 17 -2 13 -5z m1
-81 c5 -17 -48 -37 -61 -24 -5 5 -7 17 -3 26 7 19 57 17 64 -2z m2777 -187
c27 -3 31 -8 27 -35 -3 -16 -64 -25 -72 -11 -4 7 -13 9 -20 5 -15 -9 -80 25
-80 43 0 10 13 12 58 7 31 -4 71 -8 87 -9z m275 -111 c0 -8 -4 -15 -10 -15 -5
0 -10 7 -10 15 0 8 5 15 10 15 6 0 10 -7 10 -15z m-1697 -20 c-3 -9 -8 -14
-10 -11 -3 3 -2 9 2 15 9 16 15 13 8 -4z"/>
<path d="M3830 2941 c0 -6 5 -13 10 -16 6 -3 10 1 10 9 0 9 -4 16 -10 16 -5 0
-10 -4 -10 -9z"/>
<path d="M7920 640 c0 -5 5 -10 10 -10 6 0 10 5 10 10 0 6 -4 10 -10 10 -5 0
-10 -4 -10 -10z"/>
<path d="M2380 9250 c0 -22 5 -40 10 -40 6 0 10 18 10 40 0 22 -4 40 -10 40
-5 0 -10 -18 -10 -40z"/>
<path d="M5400 8921 c0 -59 -7 -81 -26 -81 -8 0 -14 -5 -14 -11 0 -5 -5 -7
-11 -3 -10 6 -57 -12 -69 -27 -12 -14 -77 -43 -100 -43 -20 -1 -25 -8 -32 -39
-4 -21 -15 -45 -23 -53 -19 -19 -19 -44 0 -70 8 -12 12 -24 9 -26 -10 -10 20
-177 32 -182 7 -3 22 4 34 14 16 14 19 23 12 37 -13 25 -6 141 9 160 12 13 15
13 31 -7 10 -13 18 -40 19 -64 0 -28 3 -35 8 -23 6 17 8 17 19 4 14 -16 18
-169 7 -199 -8 -20 9 -31 33 -24 27 9 62 128 62 208 0 36 4 78 9 94 5 16 12
41 15 57 6 26 9 27 64 27 31 0 73 4 92 10 45 13 124 15 178 6 41 -8 42 -7 42
21 0 49 -58 83 -148 88 -23 1 -82 57 -82 79 0 6 -6 4 -13 -4 -7 -8 -24 -21
-39 -27 -16 -7 -26 -19 -25 -31 0 -10 -9 -35 -22 -55 l-22 -37 -35 28 c-19 15
-34 33 -34 40 0 8 17 29 38 48 30 26 39 42 40 69 1 19 -3 35 -8 35 -6 0 -10 7
-10 15 0 8 -9 15 -20 15 -17 0 -20 -7 -20 -49z"/>
<path d="M2440 8805 c0 -43 4 -75 10 -75 6 0 10 32 10 75 0 43 -4 75 -10 75
-6 0 -10 -32 -10 -75z"/>
<path d="M4958 8696 c-19 -14 -24 -46 -8 -46 6 0 10 -14 10 -31 0 -16 4 -28 9
-25 5 3 12 -2 16 -12 6 -15 8 -15 26 7 24 30 24 42 -2 85 -23 40 -26 41 -51
22z"/>
<path d="M4916 8482 c-3 -20 -6 -65 -6 -99 0 -52 4 -67 25 -90 l24 -28 1 115
c0 102 -2 117 -19 127 -17 10 -19 8 -25 -25z"/>
<path d="M5068 8255 c-5 -47 13 -75 36 -56 17 14 23 81 7 81 -5 0 -16 3 -24 6
-11 4 -16 -4 -19 -31z"/>
<path d="M4809 8102 c-8 -4 -22 -13 -30 -20 -8 -8 -32 -23 -54 -36 -22 -12
-41 -29 -43 -39 -2 -9 11 -37 29 -62 34 -47 67 -58 110 -35 13 7 19 7 19 0 0
-5 14 -10 30 -10 20 0 30 -5 30 -15 0 -8 -8 -15 -19 -15 -20 0 -48 -27 -38
-36 23 -23 118 76 167 173 26 51 28 60 15 73 -13 12 -19 12 -36 2 -17 -11 -25
-11 -46 3 -21 14 -29 15 -55 4 -26 -11 -32 -10 -40 4 -10 18 -14 19 -39 9z
m121 -121 c0 -12 -20 -27 -47 -35 -19 -6 -23 -3 -23 12 0 11 6 23 13 25 21 9
57 8 57 -2z"/>
<path d="M5442 8089 c-38 -14 -100 -69 -106 -94 -7 -26 37 -121 55 -119 24 3
29 5 29 13 0 5 18 40 40 79 22 38 40 79 40 90 0 27 -28 42 -58 31z"/>
<path d="M2793 8010 c0 -47 2 -66 4 -42 2 23 2 61 0 85 -2 23 -4 4 -4 -43z"/>
<path d="M10421 6324 c-29 -8 -59 -14 -65 -13 -26 3 -59 -2 -53 -8 4 -3 -2
-12 -13 -20 -17 -12 -18 -17 -7 -36 16 -30 27 -37 58 -37 40 0 66 34 32 43
-14 4 -14 5 3 6 27 1 155 67 147 75 -10 9 -42 6 -102 -10z"/>
<path d="M4400 6310 c0 -17 7 -20 40 -20 33 0 40 3 40 20 0 17 -7 20 -40 20
-33 0 -40 -3 -40 -20z"/>
<path d="M10511 6056 c-6 -7 -8 -21 -5 -31 7 -17 8 -17 21 1 24 33 10 62 -16
30z"/>
<path d="M4800 6000 c0 -5 5 -10 10 -10 6 0 10 5 10 10 0 6 -4 10 -10 10 -5 0
-10 -4 -10 -10z"/>
<path d="M160 3555 c0 -11 11 -15 40 -15 29 0 40 4 40 15 0 11 -11 15 -40 15
-29 0 -40 -4 -40 -15z"/>
<path d="M1520 3435 c0 -11 11 -15 40 -15 22 0 40 4 40 9 0 6 19 12 43 14 23
2 5 4 -40 5 -68 2 -83 -1 -83 -13z"/>
<path d="M1760 3435 c0 -11 -12 -15 -42 -17 l-43 -1 39 -4 c21 -3 48 -13 59
-24 11 -10 26 -19 33 -19 24 0 27 23 6 41 -12 9 -22 22 -22 28 0 6 -7 11 -15
11 -8 0 -15 -7 -15 -15z"/>
<path d="M4540 2660 c0 -5 5 -10 10 -10 6 0 10 5 10 10 0 6 -4 10 -10 10 -5 0
-10 -4 -10 -10z"/>
<path d="M4540 2580 c0 -5 5 -10 10 -10 6 0 10 5 10 10 0 6 -4 10 -10 10 -5 0
-10 -4 -10 -10z"/>
</g>
</svg>
