<?xml version="1.0" standalone="no"?>
<!DOCTYPE svg PUBLIC "-//W3C//DTD SVG 20010904//EN"
 "http://www.w3.org/TR/2001/REC-SVG-20010904/DTD/svg10.dtd">
<svg version="1.0" xmlns="http://www.w3.org/2000/svg"
 width="320.000000pt" height="320.000000pt" viewBox="0 0 320.000000 320.000000"
 preserveAspectRatio="xMidYMid meet">

<g transform="translate(0.000000,320.000000) scale(0.100000,-0.100000)"
fill="#000000" stroke="none">
<path d="M1 3145 c-2 -66 5 -95 25 -95 8 0 14 -7 14 -15 0 -7 8 -18 17 -24 14
-7 12 -9 -10 -8 -22 2 -27 6 -23 20 4 15 2 16 -10 6 -12 -10 -14 -74 -14 -405
1 -359 5 -417 25 -384 3 6 1 10 -6 10 -7 0 -10 3 -7 6 4 3 16 0 28 -6 20 -11
21 -10 10 9 -9 17 -8 21 5 21 8 0 15 -7 15 -15 0 -8 7 -15 16 -15 13 0 14 -3
5 -13 -15 -19 -2 -29 15 -12 20 20 17 35 -6 35 -11 0 -20 5 -20 11 0 6 9 9 20
6 13 -3 20 0 20 10 0 26 25 8 28 -21 3 -27 4 -27 29 -11 13 9 28 14 31 10 4
-3 0 -10 -8 -15 -10 -7 -11 -10 -2 -10 6 0 12 -9 12 -19 0 -11 5 -23 10 -26 6
-3 10 1 10 10 0 12 5 15 16 11 9 -3 18 -6 20 -6 2 0 4 -4 4 -10 0 -5 -8 -10
-17 -10 -15 0 -16 -2 -3 -10 8 -5 17 -6 20 -2 3 4 17 13 32 21 15 8 26 19 25
24 -1 6 11 17 26 25 38 19 86 -2 88 -38 1 -17 3 -19 6 -7 5 21 23 23 23 2 0
-8 11 -22 25 -31 14 -9 25 -25 25 -35 0 -11 5 -19 12 -19 6 0 20 -7 30 -17 10
-9 18 -11 18 -5 0 6 -4 14 -10 17 -5 3 -10 11 -10 17 0 7 5 7 13 1 6 -5 25
-15 41 -21 24 -11 28 -10 23 2 -7 17 20 30 27 13 3 -9 7 -8 14 2 7 9 12 10 16
2 4 -6 3 -11 -2 -11 -5 0 -18 -17 -27 -37 -10 -21 -22 -41 -28 -44 -9 -7 -13
-24 -24 -102 -3 -20 -9 -39 -13 -42 -12 -7 -80 24 -80 37 0 6 -7 20 -17 30 -9
11 -11 18 -5 18 7 0 12 8 11 18 0 10 -3 12 -6 5 -8 -22 -23 -14 -23 11 0 14
-4 28 -10 31 -5 3 -10 -3 -10 -14 0 -12 -4 -21 -10 -21 -5 0 -10 -21 -10 -46
0 -38 -2 -43 -14 -32 -24 25 -29 56 -9 67 10 5 14 13 10 18 -5 4 -13 0 -18
-10 -12 -21 -32 -12 -25 11 3 11 -5 24 -22 36 l-27 20 19 -22 c11 -12 16 -25
11 -30 -4 -4 -10 -1 -12 6 -8 21 -26 13 -20 -9 4 -15 2 -18 -7 -10 -7 6 -15 9
-17 7 -2 -2 -17 -6 -33 -10 -23 -6 -27 -4 -22 9 3 9 -3 24 -15 36 -19 19 -24
20 -45 8 -13 -7 -24 -18 -24 -26 0 -7 -5 -13 -11 -13 -6 0 -9 7 -5 15 4 10 -1
14 -17 14 -12 -1 -38 5 -57 11 -19 7 -41 15 -48 16 -7 2 -10 8 -7 14 3 5 -1
10 -9 10 -23 0 -24 -605 -2 -613 17 -7 30 8 22 22 -3 5 1 11 9 15 8 3 19 -3
25 -14 7 -13 6 -20 -3 -23 -8 -3 -7 -10 7 -25 20 -23 16 -52 -7 -52 -21 0 -46
32 -30 37 23 8 14 23 -12 21 -28 -3 -31 -12 -12 -33 45 -51 45 -54 12 -47
l-26 4 2 -71 c1 -39 6 -74 10 -77 5 -3 9 1 9 9 0 21 40 9 41 -12 0 -11 3 -9 9
7 12 29 23 29 16 0 -3 -13 -3 -17 0 -10 3 6 13 12 21 12 10 0 14 6 11 18 -5
17 15 46 25 36 3 -3 28 -1 56 4 50 9 51 9 51 -14 0 -13 -6 -24 -13 -24 -9 0
-12 -9 -9 -29 2 -16 -1 -32 -7 -35 -12 -8 -41 16 -41 34 0 6 -4 9 -9 5 -6 -3
-6 -18 0 -38 13 -47 11 -52 -12 -31 l-21 19 7 -32 c8 -39 -10 -46 -19 -7 -5
19 -11 24 -26 19 -14 -4 -20 -2 -20 9 0 8 -5 18 -12 22 -7 4 -8 3 -4 -5 4 -6
-1 -19 -10 -29 -19 -18 -22 -18 -41 7 -10 13 -13 -19 -12 -161 0 -144 3 -178
14 -178 8 0 16 4 20 10 9 15 35 -1 35 -22 0 -13 -5 -18 -14 -15 -7 3 -19 0
-26 -6 -9 -9 -11 -9 -7 -1 4 7 0 14 -8 18 -13 5 -15 -11 -15 -99 0 -94 9 -129
23 -92 4 8 6 7 6 -3 1 -9 13 -23 29 -32 26 -17 26 -17 4 -18 -12 0 -25 7 -28
15 -4 8 -12 15 -20 15 -17 0 -18 -17 -1 -23 10 -4 10 -6 0 -6 -10 -1 -13 -66
-13 -291 l0 -290 894 0 c807 0 894 2 900 16 3 9 3 20 0 25 -3 6 0 16 6 24 8
10 9 15 2 15 -6 0 -14 9 -17 21 -4 11 -13 18 -20 15 -15 -5 -25 41 -17 81 3
18 10 23 23 20 25 -7 24 8 -1 33 -11 11 -20 28 -20 38 0 10 3 13 8 6 12 -17
42 -25 42 -11 0 13 -10 28 -59 89 -20 25 -22 33 -13 49 8 13 9 20 0 25 -6 4
-15 -1 -20 -10 -8 -15 -12 -15 -39 4 -31 23 -39 50 -14 50 8 0 15 9 15 20 0
11 -7 23 -15 26 -18 7 -20 41 -3 46 18 6 1 37 -27 48 -14 5 -25 12 -25 15 0 4
4 4 9 0 6 -3 15 4 22 16 15 29 -5 69 -32 64 -24 -5 -46 30 -24 39 19 7 19 42
0 50 -11 4 -15 20 -15 55 0 42 -4 51 -27 66 -23 16 -25 16 -20 1 4 -10 1 -16
-8 -16 -9 0 -15 10 -15 26 0 20 4 25 16 20 8 -3 21 0 29 7 11 11 10 16 -6 25
-10 7 -27 12 -37 12 -21 0 -52 30 -52 50 0 10 3 10 17 -1 15 -12 16 -12 10 3
-5 13 1 18 26 20 32 4 32 4 -12 17 -96 28 -113 73 -23 62 6 -1 12 2 12 7 0 17
-24 29 -52 28 -36 -2 -35 7 6 49 24 24 45 35 73 38 36 3 36 4 -10 5 -31 1 -46
6 -45 15 2 6 -8 13 -22 15 -17 2 -30 13 -39 33 -7 16 -16 27 -21 24 -4 -3 -16
-2 -27 2 -14 6 -8 9 22 14 l40 6 -44 8 c-34 6 -40 10 -27 17 10 6 15 17 11 27
-4 15 -1 17 20 13 30 -5 34 14 5 23 -11 4 -18 10 -15 15 6 9 24 8 42 -3 6 -4
18 -4 26 -1 18 7 22 0 31 -48 7 -36 5 -38 -19 -38 -43 0 -27 -20 18 -21 23 -1
34 -3 25 -6 -10 -2 -18 -9 -18 -14 0 -6 -5 -7 -12 -3 -7 4 -8 3 -4 -4 4 -7 20
-12 37 -12 32 0 43 -29 12 -31 -10 -1 0 -5 22 -10 21 -5 49 -19 61 -30 13 -12
27 -18 33 -14 6 3 29 -2 51 -12 41 -19 55 -46 59 -109 1 -14 12 -26 30 -34 20
-8 32 -21 36 -41 4 -16 10 -31 15 -34 5 -3 6 -21 3 -40 -5 -29 -2 -35 12 -35
13 0 16 -6 11 -23 -11 -44 82 -55 132 -15 13 11 15 10 9 -4 -4 -12 -2 -18 8
-18 9 0 15 10 16 23 0 21 1 21 9 2 5 -11 9 -14 9 -7 1 15 35 16 61 0 23 -15
35 -5 24 19 -4 10 -8 23 -9 29 0 6 -9 23 -19 38 -12 20 -24 26 -37 23 -12 -3
-27 3 -40 16 l-20 22 20 3 c23 4 29 22 8 22 -9 0 -13 27 -14 97 -3 122 3 159
25 167 9 3 22 8 27 11 7 3 19 -26 30 -70 10 -42 24 -80 32 -86 17 -15 17 -40
-1 -33 -9 3 -15 -5 -20 -27 -11 -56 -7 -106 9 -113 8 -3 15 -12 15 -21 0 -8 5
-15 11 -15 6 0 8 -9 4 -21 -6 -16 -4 -20 6 -13 12 7 12 5 1 -9 -8 -9 -12 -24
-9 -34 4 -14 5 -13 6 5 0 12 5 22 10 22 4 0 6 -12 3 -26 -3 -15 -1 -24 4 -21
17 10 74 -21 74 -42 0 -25 -37 -17 -45 10 -10 30 -23 22 -21 -14 0 -21 -3 -31
-11 -29 -7 1 -13 -3 -13 -9 0 -6 -10 -9 -22 -7 -13 2 -28 -4 -35 -12 -11 -13
-12 -12 -13 6 0 11 -9 29 -20 39 -20 18 -20 17 -20 -13 0 -17 -3 -37 -6 -46
-5 -12 0 -16 17 -17 22 0 23 -1 4 -9 -11 -4 -24 -4 -29 1 -15 14 -36 11 -36
-5 0 -8 -5 -16 -12 -18 -6 -2 -8 -10 -4 -16 10 -17 26 -15 26 3 0 8 5 15 10
15 6 0 10 -4 10 -9 0 -5 3 -16 6 -24 4 -11 -2 -17 -18 -19 l-23 -5 25 -10 c21
-9 22 -12 9 -18 -17 -6 -15 -38 3 -62 5 -7 5 -14 -2 -18 -18 -11 -11 -47 10
-52 16 -4 19 -10 13 -27 -8 -25 -8 -44 1 -111 10 -79 31 -157 39 -148 5 4 5 0
1 -10 -3 -10 -1 -17 6 -17 6 0 9 -3 6 -8 -4 -7 31 -139 49 -184 7 -17 42 -18
551 -18 l544 0 -2 320 -1 321 -21 -7 c-11 -4 -24 -12 -28 -18 -5 -7 -8 -4 -8
8 0 17 -1 17 -17 -3 -10 -12 -27 -23 -38 -25 -11 -2 -44 -12 -73 -21 -31 -10
-57 -14 -62 -9 -13 14 -25 128 -13 121 13 -8 23 38 17 73 -9 53 -29 120 -36
120 -20 0 -5 20 15 21 16 1 18 2 5 6 -10 2 -18 11 -18 18 0 8 -6 12 -14 9 -9
-3 -20 5 -30 23 -19 35 -19 34 -1 -60 11 -56 12 -84 5 -98 -6 -10 -7 -19 -3
-19 5 0 8 -17 8 -37 0 -25 -4 -37 -12 -36 -16 4 -17 -19 -2 -34 19 -19 -32
-93 -64 -93 -3 0 -3 9 0 21 4 14 8 17 13 8 12 -19 28 22 19 51 -4 14 -8 21 -9
15 0 -5 -6 6 -13 25 -13 37 -46 49 -59 20 -4 -9 -7 -2 -7 18 -1 25 -5 32 -22
32 -11 0 -18 4 -15 9 9 15 -14 68 -29 68 -19 0 -19 -5 0 -23 8 -9 15 -30 15
-48 0 -18 3 -36 7 -40 5 -4 8 -11 9 -14 0 -4 4 -29 8 -57 9 -59 -8 -106 -51
-148 -29 -27 -30 -27 -48 -7 -10 11 -13 20 -7 20 7 0 12 6 12 14 0 19 32 30
42 14 6 -10 8 -9 8 3 0 20 -24 31 -38 17 -5 -5 -24 -8 -43 -6 -25 2 -35 9 -41
28 -6 21 -7 20 -3 -7 3 -21 -1 -33 -10 -37 -18 -6 -15 -46 3 -46 7 0 10 5 7
10 -3 6 0 10 8 10 8 0 14 -11 14 -29 0 -37 -42 -65 -61 -41 -15 20 -36 23 -36
5 0 -9 6 -12 17 -8 10 4 14 2 10 -4 -10 -16 -85 -27 -100 -14 -9 7 -16 5 -25
-10 -15 -23 -28 -24 -36 -3 -5 12 -2 15 9 10 10 -4 19 3 27 19 6 14 16 25 21
25 5 0 4 6 -3 14 -13 17 -40 10 -40 -10 0 -8 -4 -14 -10 -14 -10 0 -14 20 -12
52 1 10 -3 18 -9 18 -6 0 -10 -12 -9 -27 5 -65 -9 -71 -35 -17 -20 42 -35 32
-35 -23 0 -18 -4 -33 -10 -33 -10 0 -15 32 -12 78 1 17 -3 22 -13 18 -9 -3
-12 0 -9 9 7 18 36 28 44 15 5 -7 11 -6 19 3 9 12 8 16 -7 19 -10 3 -26 22
-36 42 -16 34 -42 43 -29 11 9 -25 -13 -16 -25 9 -7 16 -7 26 -1 28 21 7 -3
38 -30 38 -16 0 -21 -3 -14 -8 15 -9 25 -72 12 -72 -5 0 -9 -5 -9 -11 0 -6 7
-9 15 -5 8 3 15 1 15 -4 0 -6 -5 -10 -11 -10 -5 0 -7 -5 -3 -11 4 -7 9 -30 11
-53 2 -22 8 -43 14 -46 6 -4 4 -12 -6 -20 -14 -11 -19 -7 -16 12 0 4 -5 5 -12
2 -11 -4 -13 8 -12 51 2 56 -2 64 -23 43 -8 -8 -8 -17 -1 -30 12 -23 6 -33
-16 -25 -17 7 -21 57 -4 57 6 0 9 6 6 13 -2 6 -11 11 -19 9 -9 -1 -18 11 -25
30 -5 18 -9 25 -7 16 1 -10 -2 -18 -7 -18 -5 0 -9 7 -9 15 0 8 -6 15 -12 15
-7 0 -5 5 5 11 16 9 16 12 2 26 -9 8 -13 18 -10 21 3 4 10 0 15 -8 6 -9 10
-10 10 -3 0 7 9 10 21 8 20 -4 20 -3 5 20 -21 31 -20 33 7 31 12 -1 28 3 36 8
11 9 13 6 6 -14 -7 -24 -7 -24 9 -5 8 11 16 26 16 33 0 7 15 12 40 12 22 0 43
0 48 1 4 0 14 -10 22 -23 l14 -23 -22 19 c-12 11 -24 17 -27 15 -9 -9 32 -72
48 -75 9 -1 16 1 16 4 -4 25 3 42 16 42 8 0 15 -5 15 -12 0 -6 2 -9 5 -6 3 3
1 16 -4 29 -5 13 -10 19 -10 12 -1 -14 -31 -6 -31 9 0 5 5 6 10 3 6 -3 10 -1
10 4 0 16 16 13 34 -4 18 -19 26 -19 26 -1 0 8 6 17 13 20 6 3 0 3 -15 0 -22
-5 -28 -2 -28 11 0 10 4 13 13 9 8 -6 8 -3 -1 9 -8 9 -10 22 -6 28 4 7 3 9 -4
5 -5 -3 -12 0 -15 6 -2 7 -8 10 -12 6 -4 -4 -2 -14 5 -23 7 -9 10 -18 7 -21
-9 -9 -29 36 -23 52 3 7 12 11 21 8 9 -4 15 -1 15 9 0 8 -7 17 -15 21 -8 3
-15 15 -15 26 0 17 5 20 36 16 30 -4 37 -1 41 15 4 15 12 19 25 15 11 -2 32 0
47 6 36 15 61 17 62 4 0 -6 4 -2 9 9 8 19 9 18 9 -4 1 -23 2 -23 19 -8 10 10
22 14 25 10 4 -3 18 -1 31 7 14 7 35 10 47 7 15 -4 27 0 35 11 12 15 13 14 14
-10 0 -20 4 -26 15 -21 9 3 24 -2 34 -12 18 -16 20 -15 24 2 4 16 5 16 6 1 0
-10 6 -18 11 -18 6 0 10 -8 11 -17 0 -11 3 -13 6 -5 2 6 10 9 16 5 7 -4 5 2
-3 12 -37 47 -46 58 -58 71 -11 12 -9 14 15 14 16 0 36 -9 46 -21 12 -13 24
-18 37 -14 15 5 24 -3 42 -34 13 -24 31 -41 41 -41 15 0 16 2 5 14 -7 8 -16
12 -20 9 -13 -7 -9 12 6 32 9 12 11 29 6 52 -9 36 5 36 20 -1 7 -16 9 -17 9
-4 1 20 41 46 41 27 0 -6 7 -9 15 -5 9 3 15 0 15 -8 0 -7 7 -13 16 -13 11 0
14 7 11 23 -2 13 0 21 4 18 5 -3 9 -11 9 -19 0 -8 5 -17 12 -21 7 -5 9 -2 5 8
-8 21 12 38 44 38 21 0 30 -8 43 -35 9 -19 21 -35 26 -35 16 0 11 40 -5 46 -8
4 -15 13 -15 20 0 8 7 17 15 20 8 4 15 10 15 14 0 13 -43 20 -57 9 -9 -8 -21
-5 -43 11 -34 24 -71 21 -50 -5 11 -13 7 -15 -26 -15 -22 0 -49 -3 -61 -6 -18
-5 -23 -1 -30 22 -4 16 -7 32 -8 36 0 3 -10 18 -22 32 -17 20 -19 26 -8 26 8
0 15 5 15 10 0 6 -5 10 -11 10 -8 0 -7 6 2 16 11 14 10 19 -9 35 -20 16 -21
21 -10 38 15 24 24 26 32 9 3 -7 3 5 0 27 -5 35 -4 38 9 23 8 -11 17 -14 23
-8 15 15 38 -5 30 -26 -6 -15 -9 -16 -16 -4 -8 12 -10 12 -16 -3 -3 -9 -4 -24
-1 -32 4 -8 2 -17 -3 -20 -6 -4 -5 -12 3 -19 16 -18 29 2 16 26 -7 13 -6 16 5
12 10 -4 16 4 21 25 4 17 11 31 16 31 5 0 9 12 9 28 -1 24 -2 25 -14 10 -17
-23 -34 -23 -38 -1 -2 12 7 23 27 33 37 19 65 14 65 -11 0 -25 40 -26 41 -1 0
14 2 14 9 -3 7 -16 9 -14 9 14 1 27 4 32 13 23 7 -7 12 -29 11 -49 0 -29 1
-33 7 -18 7 15 9 9 9 -22 1 -39 3 -43 26 -43 14 0 25 3 25 6 0 12 -28 33 -35
26 -4 -4 -5 2 -3 13 2 12 10 19 21 17 14 -2 17 6 17 53 0 42 -3 55 -15 55 -8
0 -15 -4 -15 -9 0 -10 -26 -9 -36 2 -4 4 -17 7 -29 7 -11 0 -27 6 -34 13 -10
9 -15 9 -18 1 -2 -7 -13 -10 -23 -7 -14 4 -20 0 -20 -11 0 -9 -3 -16 -7 -17
-5 0 -21 -3 -37 -5 -24 -4 -28 -2 -22 13 6 17 6 17 -8 0 -10 -14 -15 -15 -19
-5 -4 9 -6 7 -6 -4 -1 -26 -43 -26 -73 1 -16 13 -28 30 -28 36 0 7 -11 17 -25
23 -23 11 -25 10 -26 -16 l-1 -27 -8 25 -8 25 -2 -25 c-2 -18 -4 -20 -7 -7 -2
9 -11 17 -19 17 -8 0 -14 5 -14 12 0 6 -8 1 -19 -11 -20 -23 -56 -19 -47 5 3
8 1 14 -3 14 -5 0 -11 -7 -15 -15 -3 -8 -17 -15 -31 -15 -28 0 -35 20 -7 21
14 0 14 2 2 7 -17 8 -25 32 -10 32 5 0 10 6 10 14 0 19 51 51 59 38 3 -6 15
-10 26 -9 11 1 24 -8 32 -23 7 -14 13 -19 13 -12 0 7 -5 22 -10 33 -6 10 -9
19 -8 19 22 -2 136 -48 131 -53 -3 -4 -2 -7 4 -7 6 0 14 7 17 16 5 14 7 14 21
0 11 -11 25 -13 48 -8 18 4 90 7 160 7 122 0 128 1 125 20 -2 11 -9 19 -16 18
-6 -2 -14 8 -18 22 -5 20 -9 23 -25 15 -10 -6 -18 -14 -18 -18 4 -24 -8 -27
-118 -25 -65 2 -129 6 -143 10 -14 3 -29 6 -35 5 -11 -2 -35 43 -35 65 0 7 -4
13 -9 13 -4 0 -9 23 -10 51 0 28 -3 55 -6 60 -4 5 -2 9 2 9 12 0 14 40 2 62
-6 12 -6 18 1 18 5 0 10 5 10 10 0 6 -7 10 -15 10 -11 0 -14 7 -11 26 3 15 8
29 12 33 4 3 4 -2 1 -12 -6 -16 -3 -18 23 -12 21 5 30 3 30 -6 0 -10 3 -10 12
-1 19 19 28 14 28 -13 0 -14 1 -25 3 -25 1 0 17 -4 35 -9 25 -8 32 -7 29 2 -3
7 -10 11 -17 9 -14 -3 -40 16 -40 29 0 5 8 9 18 9 13 0 14 2 3 9 -7 5 -10 14
-7 20 10 16 26 14 26 -3 0 -8 4 -17 9 -21 6 -3 3 16 -6 42 -13 39 -18 44 -24
28 -7 -19 -8 -19 -8 2 -1 12 -9 27 -18 32 -16 9 -16 11 5 12 12 1 28 2 35 3 6
1 16 -3 20 -9 6 -7 10 -6 14 2 3 10 8 9 19 -2 9 -8 12 -19 9 -25 -3 -5 -1 -10
4 -10 6 0 11 7 11 15 0 8 5 15 11 15 7 0 10 -14 7 -35 -3 -23 1 -36 10 -40 9
-3 12 1 7 14 -7 22 18 46 40 37 17 -6 21 -56 4 -56 -8 0 -7 -5 1 -15 9 -11 15
-13 20 -5 4 7 10 11 14 10 4 -1 12 1 19 3 9 4 9 8 -1 15 -9 6 -10 15 -3 35 12
30 47 39 37 10 -4 -11 2 -8 14 7 15 20 20 21 20 8 0 -9 4 -19 9 -22 5 -3 9 74
10 173 1 172 0 179 -19 174 -15 -4 -18 -1 -13 16 4 17 8 19 19 10 11 -9 14 -6
14 19 0 21 -6 31 -20 35 -25 6 -25 20 -2 43 15 15 15 17 1 12 -9 -4 -22 -1
-28 5 -10 9 -11 6 -6 -14 5 -19 2 -28 -9 -32 -9 -4 -16 -1 -16 6 0 14 -39 41
-48 33 -3 -3 -1 -6 5 -6 5 0 8 -14 5 -30 -4 -28 -5 -29 -19 -13 -14 17 -14 17
-9 1 4 -14 0 -18 -22 -17 -15 0 -21 3 -14 6 27 11 9 18 -50 19 -80 1 -93 5
-115 35 -36 47 -70 144 -53 154 6 4 10 -4 10 -19 0 -14 5 -28 11 -31 17 -11
23 3 9 20 -18 21 -7 28 29 20 19 -4 31 -13 31 -23 0 -12 3 -13 12 -4 16 16 28
15 28 -3 0 -18 4 -19 30 -3 16 10 22 10 32 -4 7 -8 25 -18 40 -22 19 -4 28
-14 33 -34 3 -16 12 -29 20 -29 13 0 13 3 0 17 -8 9 -15 19 -15 22 0 11 45 -5
56 -21 10 -13 12 -12 18 7 4 12 12 22 17 22 6 0 7 5 4 10 -4 6 -12 7 -18 4 -9
-5 -9 -4 -1 5 6 7 20 13 31 14 16 1 20 9 22 50 2 41 -1 49 -13 44 -9 -4 -16
-2 -16 3 0 5 8 11 18 13 9 3 -2 5 -25 6 -24 0 -43 5 -43 10 0 12 29 23 41 15
5 -3 9 0 9 6 0 6 -8 10 -17 9 -23 -3 -53 10 -53 23 0 6 14 8 35 5 42 -7 43 -5
10 17 -20 13 -28 14 -44 4 -16 -10 -23 -9 -38 4 -12 11 -23 14 -32 9 -20 -13
-6 -40 17 -34 15 3 20 0 19 -13 -1 -12 5 -19 18 -19 12 0 19 -6 17 -16 -1 -8
7 -25 19 -38 12 -12 18 -25 14 -29 -4 -4 -10 -1 -12 6 -5 14 -33 17 -33 3 0
-6 5 -13 10 -16 18 -11 11 -35 -10 -35 -14 0 -20 7 -21 23 0 12 -3 17 -5 10
-3 -7 -12 -9 -20 -6 -7 3 -11 9 -8 14 3 5 0 9 -5 9 -6 0 -11 5 -11 11 0 6 6 9
14 6 19 -7 51 17 42 31 -9 15 -36 15 -36 0 0 -6 -3 -8 -7 -4 -5 4 1 14 11 22
19 13 18 14 -11 25 -34 11 -53 49 -25 49 14 1 14 3 -3 16 -11 8 -20 25 -20 37
0 13 -6 22 -15 22 -10 0 -14 -8 -12 -22 2 -12 -2 -24 -8 -28 -7 -5 -11 0 -10
11 4 34 0 43 -15 38 -9 -4 -15 -19 -15 -36 0 -17 4 -27 10 -23 5 3 10 2 10 -4
0 -15 -18 -23 -25 -11 -9 15 -25 12 -25 -5 0 -8 17 -19 40 -26 39 -12 40 -14
39 -53 -1 -23 -4 -31 -6 -18 -2 12 -8 22 -13 22 -5 0 -7 7 -4 15 4 9 0 15 -9
15 -23 0 -29 -16 -12 -30 8 -7 15 -23 15 -36 0 -13 5 -24 11 -24 5 0 8 -4 5
-9 -4 -5 0 -12 6 -14 8 -3 6 -6 -5 -6 -10 -1 -20 6 -23 14 -4 8 -10 13 -14 10
-5 -3 -20 0 -34 6 -19 9 -26 19 -25 38 1 17 3 20 6 9 2 -10 8 -18 13 -18 5 0
15 -3 24 -6 9 -3 16 -2 16 4 0 5 -9 12 -20 15 -14 4 -20 14 -20 35 0 17 -4 34
-10 37 -5 3 -10 1 -10 -5 0 -7 -8 -9 -19 -5 -14 4 -21 0 -26 -15 -4 -11 -11
-18 -16 -15 -14 9 -11 -8 7 -33 12 -17 12 -22 2 -22 -22 0 -49 69 -37 92 6 11
17 17 25 14 8 -3 14 1 14 11 0 12 3 13 14 4 11 -9 15 -9 19 1 4 10 8 10 16 -2
9 -12 11 -10 12 10 0 14 3 20 5 13 3 -7 12 -9 20 -6 13 5 13 7 2 14 -8 5 -13
27 -13 54 0 25 -4 45 -8 45 -5 0 -5 -4 -2 -10 3 -5 -7 -18 -22 -27 -22 -14
-27 -24 -25 -45 3 -26 -5 -33 -31 -29 -5 1 -5 -4 -1 -10 4 -8 0 -9 -15 -4 -15
5 -21 2 -21 -9 0 -11 -9 -16 -30 -16 -21 0 -30 5 -30 16 0 8 5 12 10 9 5 -3
10 0 10 8 0 8 -8 17 -19 20 -10 2 -20 16 -23 31 -5 22 -2 26 19 26 22 0 24 -4
19 -24 -4 -17 -1 -26 10 -30 9 -4 14 -13 10 -22 -3 -8 -2 -12 4 -9 13 8 13 72
0 80 -17 11 -11 25 11 25 27 0 19 24 -9 28 -17 3 -22 -2 -22 -17 0 -12 -6 -21
-16 -21 -11 0 -13 6 -8 23 4 12 8 30 8 40 0 9 7 17 15 17 11 0 10 4 -5 15 -13
10 -33 13 -64 9 -25 -3 -65 -1 -90 5 -24 5 -46 8 -48 6 -2 -2 4 -26 13 -54 9
-28 14 -59 10 -70 -3 -11 -1 -22 5 -26 5 -3 10 -22 10 -41 0 -19 4 -34 9 -34
5 0 7 10 4 23 -3 12 -2 19 2 15 4 -4 9 -29 10 -55 3 -43 2 -45 -9 -23 -15 33
-41 39 -33 8 4 -12 1 -28 -5 -35 -8 -10 -5 -13 12 -13 16 0 20 -4 16 -15 -3
-10 1 -15 13 -15 20 0 35 -24 32 -51 -1 -8 8 -24 19 -34 11 -10 20 -13 20 -7
0 7 5 12 10 12 6 0 10 -7 10 -16 0 -8 5 -12 10 -9 6 3 13 -1 16 -9 3 -9 11
-16 16 -16 6 0 7 7 4 16 -3 8 -2 12 4 9 6 -3 10 -2 10 4 0 5 -5 13 -10 16 -11
7 -10 75 1 75 15 0 59 -78 53 -93 -4 -12 -1 -17 10 -17 9 0 16 -4 16 -10 0
-13 -16 -13 -41 1 -11 5 -16 15 -13 21 5 7 2 8 -5 3 -8 -4 -11 -22 -9 -46 2
-22 0 -39 -4 -39 -5 0 -8 5 -8 10 0 6 -9 10 -20 10 -11 0 -20 6 -20 13 0 8 -3
8 -8 1 -4 -6 -15 -14 -26 -17 -13 -5 -17 -3 -13 8 4 8 2 17 -3 20 -6 4 -10 1
-10 -4 0 -6 -5 -11 -10 -11 -6 0 -10 6 -9 13 1 6 -7 32 -18 57 l-21 45 1 -37
c1 -21 4 -33 8 -27 3 6 9 2 12 -10 3 -12 1 -19 -4 -15 -8 5 -13 -9 -10 -28 0
-4 -6 -5 -14 -2 -8 4 -15 11 -15 16 0 6 -6 6 -15 -2 -17 -14 -55 -4 -55 16 0
8 -4 14 -10 14 -5 0 -10 -5 -10 -10 0 -10 -21 -8 -74 7 -12 3 -16 1 -12 -6 4
-6 2 -11 -3 -11 -6 0 -11 8 -11 19 0 22 -49 73 -62 65 -6 -4 -14 0 -19 7 -8
12 -11 12 -19 -1 -8 -12 -10 -9 -10 13 0 15 -5 27 -11 27 -6 0 -9 -7 -6 -15 4
-8 2 -17 -3 -20 -6 -4 -10 12 -10 36 0 23 -3 39 -7 35 -14 -13 -10 -136 4
-136 17 0 23 -13 16 -38 -6 -25 -23 -30 -23 -7 0 8 -4 15 -10 15 -19 0 -10
-38 10 -43 17 -4 18 -9 9 -36 -17 -48 -37 -48 -31 0 1 4 -12 12 -28 19 -19 8
-31 22 -35 41 -7 29 -39 55 -62 51 -7 -2 -13 5 -13 14 0 11 -5 14 -16 10 -12
-5 -14 -1 -10 17 4 15 1 12 -8 -7 -12 -25 -14 -26 -21 -10 -7 17 -8 17 -15 -6
l-8 -25 -3 25 c-1 14 -3 34 -3 44 -1 10 -11 22 -23 27 -20 7 -21 5 -17 -33 4
-40 3 -40 -26 -36 -16 3 -31 0 -33 -6 -5 -15 -37 12 -37 31 0 10 7 14 20 10
11 -3 23 -1 26 4 5 9 0 11 -28 13 -7 1 -16 6 -20 11 -4 6 -8 -10 -8 -35 -1
-37 -3 -42 -11 -27 -11 18 -12 18 -28 0 -10 -10 -21 -25 -24 -33 -4 -11 -6
-10 -6 4 -1 11 -4 17 -7 13 -4 -3 -21 1 -38 10 -17 10 -39 16 -48 14 -12 -1
-18 4 -18 16 0 13 -3 15 -8 5 -5 -7 -16 -10 -25 -6 -10 3 -17 1 -17 -5 0 -6
-4 -11 -10 -11 -5 0 -10 7 -10 15 0 8 -5 15 -11 15 -5 0 -8 -4 -5 -8 3 -5 -8
-6 -25 -4 -16 2 -29 0 -29 -5 0 -5 -6 -18 -14 -29 -14 -18 -16 -17 -34 23 -10
24 -21 40 -24 37 -4 -3 -9 4 -13 15 -8 25 -29 28 -23 3 4 -13 -1 -17 -18 -17
-13 1 -27 5 -31 8 -3 4 -17 7 -30 7 -24 0 -32 15 -10 23 6 2 -5 7 -25 11 -35
6 -38 10 -38 39 0 24 -3 28 -10 17 -8 -13 -10 -12 -10 3 0 9 -4 17 -9 17 -5 0
-13 9 -16 20 -3 11 -13 20 -22 20 -10 0 -13 6 -9 16 10 27 -5 37 -25 15 -19
-20 -19 -21 5 -58 30 -49 57 -78 76 -86 9 -3 5 -6 -11 -6 -18 -1 -30 7 -39 25
l-14 26 -18 -22 c-14 -18 -21 -19 -38 -10 -12 6 -26 10 -33 7 -15 -5 -37 17
-37 38 0 14 -2 14 -15 3 -37 -34 -47 -40 -53 -33 -4 4 -2 10 5 12 8 3 9 12 3
29 -6 14 -6 24 0 24 5 0 10 -10 12 -22 3 -21 4 -21 18 -3 8 10 10 16 4 12 -8
-4 -14 5 -17 26 -5 37 0 48 14 27 8 -13 10 -13 18 0 6 8 13 11 17 7 4 -3 2
-12 -3 -19 -6 -9 -6 -21 2 -36 8 -15 15 -20 20 -12 4 6 1 17 -5 25 -6 8 -9 19
-5 25 15 24 14 50 -3 51 -14 0 -13 2 3 9 17 7 17 9 3 9 -21 1 -23 21 -5 40 10
10 8 15 -7 27 -11 8 -14 14 -8 14 7 0 12 9 12 20 0 12 7 20 18 21 11 0 12 2 4
6 -7 3 -18 0 -25 -5 -15 -12 -57 3 -57 20 0 9 -3 9 -10 -2 -8 -13 -10 -12 -10
4 0 13 -5 16 -17 12 -15 -6 -15 -5 1 13 19 21 14 41 -10 41 -17 0 -19 16 -1
23 7 3 5 6 -5 6 -10 1 -18 -3 -18 -9 0 -5 -13 -16 -29 -24 -27 -14 -30 -14
-51 9 -23 25 -24 25 -209 24 -102 0 -180 -3 -173 -6 6 -2 12 -11 12 -19 0 -9
11 -14 35 -14 35 0 75 -28 75 -52 0 -6 -8 -1 -19 11 l-19 21 -6 -22 c-5 -19
-8 -21 -16 -8 -8 12 -10 12 -10 1 0 -11 -3 -11 -15 -1 -14 11 -14 10 -5 -15
15 -40 4 -43 -17 -3 -10 19 -25 34 -33 34 -30 0 -80 16 -80 25 0 5 -4 9 -10 9
-5 0 -7 -7 -4 -15 4 -8 1 -15 -5 -15 -6 0 -11 5 -11 10 0 6 -10 4 -22 -4 -32
-20 -89 -8 -104 23 -18 35 -32 41 -100 41 l-61 0 -2 -55z m39 -11 c0 -8 -4
-12 -10 -9 -5 3 -10 10 -10 16 0 5 5 9 10 9 6 0 10 -7 10 -16z m550 6 c0 -5
-4 -10 -10 -10 -5 0 -10 5 -10 10 0 6 5 10 10 10 6 0 10 -4 10 -10z m87 -45
c27 -16 30 -22 21 -38 -9 -17 -8 -19 8 -13 42 17 49 19 42 11 -4 -4 2 -25 12
-46 24 -46 25 -69 4 -69 -9 0 -14 -7 -12 -17 2 -13 14 -19 41 -21 20 -2 37 -8
37 -13 0 -6 -5 -7 -11 -3 -7 4 -3 -8 7 -25 12 -21 20 -27 22 -18 5 25 28 28
28 3 -1 -12 4 -20 12 -19 7 2 12 -8 12 -25 l-1 -27 -18 23 c-13 15 -21 18 -24
10 -4 -9 -12 -5 -25 11 -11 13 -24 21 -30 17 -6 -3 -14 -1 -18 6 -5 8 -10 6
-16 -8 -6 -13 -7 -9 -4 16 4 34 4 34 -7 8 -13 -33 -17 -34 -43 -10 -10 9 -30
23 -44 29 -25 12 -24 12 5 6 27 -6 29 -5 16 10 -8 10 -11 27 -7 43 4 14 3 23
-2 20 -5 -3 -20 6 -32 19 -27 29 -20 32 15 9 14 -9 25 -14 25 -10 0 3 9 -3 20
-14 11 -11 20 -22 20 -25 0 -3 -9 -5 -20 -5 -11 0 -20 -4 -20 -10 0 -11 11
-13 34 -4 9 3 16 15 16 26 0 14 5 18 15 14 18 -6 18 -5 5 30 -10 26 -11 26
-25 8 -17 -22 -19 -15 -6 20 9 21 8 24 -10 21 -10 -2 -24 -7 -30 -10 -14 -9
-56 31 -63 61 -7 27 2 52 13 37 3 -5 20 -18 38 -28z m-637 0 c0 -8 -4 -15 -10
-15 -5 0 -10 7 -10 15 0 8 5 15 10 15 6 0 10 -7 10 -15z m55 -5 c3 -5 2 -10
-4 -10 -5 0 -13 5 -16 10 -3 6 -2 10 4 10 5 0 13 -4 16 -10z m104 -23 c19 -9
25 -9 28 1 7 18 33 15 33 -5 0 -13 3 -14 12 -5 16 16 43 15 60 -1 7 -8 23 -19
35 -25 12 -7 24 -22 26 -34 l4 -23 8 23 c11 34 27 26 20 -10 -5 -26 -4 -30 5
-18 9 12 10 11 5 -7 -5 -17 -2 -23 9 -23 9 0 16 -4 16 -10 0 -5 -4 -10 -9 -10
-5 0 -11 -10 -13 -22 -2 -13 -7 -21 -13 -18 -5 3 -9 8 -8 13 2 4 -6 7 -17 7
-24 0 -38 26 -22 42 7 7 12 3 17 -11 8 -27 25 -18 18 9 -3 13 -14 20 -29 20
-18 0 -24 6 -24 21 0 16 -4 19 -20 14 -12 -4 -27 -1 -35 5 -8 6 -19 9 -24 6
-5 -4 -12 -2 -16 4 -4 6 -11 8 -16 4 -6 -3 -3 -11 7 -19 11 -7 15 -19 11 -30
-6 -14 -3 -16 17 -11 24 6 45 -9 31 -22 -3 -3 -10 0 -15 8 -7 10 -10 11 -10 3
0 -17 -10 -16 -33 1 -18 14 -24 29 -27 71 -1 12 -4 15 -7 7 -4 -10 -8 -10 -21
0 -12 10 -14 10 -8 1 4 -7 4 -18 0 -24 -4 -8 -9 -7 -14 2 -7 10 -11 10 -24 0
-9 -8 -16 -9 -16 -3 0 14 25 33 33 25 4 -3 7 6 7 20 0 28 -6 32 -29 18 -9 -6
-10 -11 -2 -15 6 -4 9 -12 5 -17 -10 -17 -23 0 -22 30 1 31 16 32 67 8z m637
8 c9 -22 -3 -45 -20 -39 -21 8 -29 36 -14 46 19 12 28 10 34 -7z m-271 -16
c-7 -10 -35 -1 -35 11 0 5 9 6 20 3 11 -3 17 -9 15 -14z m-447 -6 c-4 -21 -19
-26 -38 -13 -13 9 -13 11 0 20 23 15 42 12 38 -7z m386 -33 c3 -14 3 -19 0
-12 -3 6 -11 9 -17 5 -6 -4 -8 0 -4 10 3 10 2 17 -3 17 -6 0 -10 8 -10 17 0
15 2 15 14 3 8 -8 17 -26 20 -40z m-35 -33 c0 -27 -2 -29 -9 -12 -12 28 -12
57 0 50 6 -3 10 -21 9 -38z m376 19 c8 -7 11 -16 8 -19 -5 -6 -33 17 -33 27 0
10 11 7 25 -8z m137 -11 c3 -14 1 -25 -3 -25 -5 0 -9 11 -9 25 0 14 2 25 4 25
2 0 6 -11 8 -25z m-442 -17 c0 -18 -2 -20 -9 -8 -6 8 -7 18 -5 22 9 14 14 9
14 -14z m378 -5 c6 -19 -25 -16 -32 3 -4 11 -1 14 11 12 9 -2 18 -9 21 -15z
m-788 -3 c0 -5 -4 -10 -9 -10 -6 0 -13 5 -16 10 -3 6 1 10 9 10 9 0 16 -4 16
-10z m444 -1 c-9 -15 21 -15 33 0 9 11 12 12 13 3 0 -7 4 -11 8 -8 5 3 9 -1 9
-9 0 -11 -4 -12 -14 -4 -10 9 -13 5 -13 -18 0 -16 9 -36 20 -46 23 -19 27 -42
6 -34 -8 3 -17 1 -19 -6 -7 -21 -20 1 -19 33 0 18 -4 29 -11 27 -7 -1 -11 4
-9 12 1 7 -4 23 -12 35 -12 19 -12 23 -1 23 8 0 12 -4 9 -8z m267 -6 c13 -16
12 -17 -3 -4 -10 7 -18 15 -18 17 0 8 8 3 21 -13z m-794 -20 c-9 -9 -20 -13
-24 -9 -4 4 -1 11 7 16 25 16 35 11 17 -7z m133 -15 c0 -13 -23 -5 -28 10 -2
7 2 10 12 6 9 -3 16 -11 16 -16z m490 -8 c0 -5 -4 -10 -10 -10 -5 0 -10 5 -10
10 0 6 5 10 10 10 6 0 10 -4 10 -10z m201 -12 c0 -10 2 -10 6 0 2 6 10 12 16
12 5 0 7 -3 4 -7 -4 -3 -2 -12 5 -20 6 -7 8 -17 4 -20 -4 -4 -11 -2 -15 5 -4
7 -15 10 -24 6 -13 -4 -17 -1 -17 15 0 22 19 30 21 9z m-297 -23 c3 -9 0 -15
-9 -15 -8 0 -15 7 -15 15 0 8 4 15 9 15 5 0 11 -7 15 -15z m-84 -5 c0 -5 -2
-10 -4 -10 -3 0 -8 5 -11 10 -3 6 -1 10 4 10 6 0 11 -4 11 -10z m45 0 c3 -5 1
-10 -4 -10 -6 0 -11 5 -11 10 0 6 2 10 4 10 3 0 8 -4 11 -10z m150 -30 c3 -5
1 -10 -4 -10 -6 0 -11 5 -11 10 0 6 2 10 4 10 3 0 8 -4 11 -10z m-152 -10 c8
0 8 -3 0 -11 -9 -9 -16 -7 -30 7 -17 17 -17 18 0 11 10 -4 24 -7 30 -7z m2182
-10 c3 -5 1 -10 -4 -10 -6 0 -11 5 -11 10 0 6 2 10 4 10 3 0 8 -4 11 -10z
m-2648 -22 c-3 -8 -6 -5 -6 6 -1 11 2 17 5 13 3 -3 4 -12 1 -19z m667 -5 c-17
-18 -27 -13 -18 10 3 9 12 13 20 10 11 -4 11 -7 -2 -20z m2276 -19 c0 -8 -4
-12 -10 -9 -5 3 -10 10 -10 16 0 5 5 9 10 9 6 0 10 -7 10 -16z m-177 -14 c3
-11 1 -20 -4 -20 -5 0 -9 9 -9 20 0 11 2 20 4 20 2 0 6 -9 9 -20z m351 -55
c-7 -17 -20 -20 -28 -6 -7 10 3 21 20 21 8 0 11 -6 8 -15z m-1260 -10 c-4 -8
-8 -15 -10 -15 -2 0 -4 7 -4 15 0 8 4 15 10 15 5 0 7 -7 4 -15z m708 -17 c-3
-14 -7 -16 -18 -7 -20 16 -17 28 5 26 12 -1 17 -7 13 -19z m-429 -13 c4 -8 2
-17 -3 -20 -6 -4 -10 3 -10 14 0 25 6 27 13 6z m-273 -11 c0 -8 -4 -12 -10 -9
-5 3 -10 10 -10 16 0 5 5 9 10 9 6 0 10 -7 10 -16z m360 -4 c0 -5 -4 -10 -10
-10 -5 0 -10 5 -10 10 0 6 5 10 10 10 6 0 10 -4 10 -10z m-2153 -42 c-3 -8 -6
-5 -6 6 -1 11 2 17 5 13 3 -3 4 -12 1 -19z m1118 12 c-3 -5 -11 -10 -16 -10
-6 0 -7 5 -4 10 3 6 11 10 16 10 6 0 7 -4 4 -10z m1060 0 c3 -5 1 -10 -4 -10
-6 0 -11 5 -11 10 0 6 2 10 4 10 3 0 8 -4 11 -10z m488 -66 c-6 -15 -7 -15
-15 5 -10 28 1 51 13 28 5 -8 6 -23 2 -33z m-478 26 c3 -5 1 -10 -4 -10 -6 0
-11 -5 -11 -11 0 -5 6 -7 13 -3 10 6 10 4 0 -7 -16 -17 -39 2 -30 25 7 18 23
21 32 6z m55 6 c0 -3 -4 -8 -10 -11 -5 -3 -10 -1 -10 4 0 6 5 11 10 11 6 0 10
-2 10 -4z m-2253 -28 c-3 -8 -6 -5 -6 6 -1 11 2 17 5 13 3 -3 4 -12 1 -19z
m2313 12 c0 -5 -12 -10 -26 -10 -14 0 -23 4 -19 10 3 6 15 10 26 10 10 0 19
-4 19 -10z m321 -6 c12 -14 11 -16 -5 -13 -11 2 -21 10 -24 17 -5 17 13 15 29
-4z m69 -49 c0 -5 -5 -3 -10 5 -5 8 -10 20 -10 25 0 6 5 3 10 -5 5 -8 10 -19
10 -25z m-220 -8 c0 -18 -2 -19 -10 -7 -13 20 -13 43 0 35 6 -3 10 -16 10 -28z
m40 -3 c0 -8 -4 -12 -10 -9 -5 3 -10 13 -10 21 0 8 5 12 10 9 6 -3 10 -13 10
-21z m40 -9 c0 -8 -4 -15 -9 -15 -13 0 -22 16 -14 24 11 11 23 6 23 -9z m-500
-41 c0 -8 -4 -12 -10 -9 -5 3 -10 10 -10 16 0 5 5 9 10 9 6 0 10 -7 10 -16z
m199 -6 c12 -16 10 -18 -23 -18 -20 0 -36 4 -36 10 0 5 7 7 15 4 9 -4 18 1 21
10 4 9 7 16 8 14 1 -2 8 -11 15 -20z m330 13 c7 -5 10 -14 7 -20 -11 -17 -23
-13 -29 9 -6 22 0 25 22 11z m-567 -19 c-7 -2 -12 -13 -12 -23 0 -11 -4 -18
-9 -15 -4 3 -6 17 -4 30 4 18 10 23 21 18 10 -4 12 -7 4 -10z m163 -2 c-4 -11
-2 -20 4 -20 6 0 11 -9 11 -20 0 -17 -3 -18 -18 -9 -22 14 -25 69 -4 69 9 0
11 -7 7 -20z m298 -15 c-3 -9 -8 -14 -10 -11 -3 3 -2 9 2 15 9 16 15 13 8 -4z
m397 -1 c0 -8 -5 -12 -10 -9 -6 4 -8 11 -5 16 9 14 15 11 15 -7z m-820 -14 c0
-5 -5 -10 -11 -10 -5 0 -7 5 -4 10 3 6 8 10 11 10 2 0 4 -4 4 -10z m187 -48
c-3 -12 -5 -10 -6 6 0 13 -5 20 -11 17 -11 -7 -14 8 -3 19 10 10 25 -22 20
-42z m761 13 c-3 -3 -9 2 -12 12 -6 14 -5 15 5 6 7 -7 10 -15 7 -18z m-927
-65 c0 -8 7 -32 16 -52 11 -27 20 -35 32 -30 13 5 14 3 4 -9 -10 -12 -10 -18
-1 -27 17 -17 28 -15 29 6 0 14 2 14 9 -3 l9 -20 0 20 c1 17 3 17 11 5 8 -12
10 -12 10 5 0 11 4 16 8 10 4 -5 14 -11 22 -13 33 -6 61 -26 55 -40 -4 -10 -1
-12 12 -7 10 4 26 7 36 7 9 0 17 3 17 8 0 10 68 -8 93 -25 10 -7 27 -11 38 -8
10 3 19 0 19 -6 0 -6 9 -11 21 -11 11 0 29 -5 41 -11 24 -13 27 -10 30 24 3
30 8 33 27 15 11 -11 12 -10 6 2 -8 13 -7 13 9 1 9 -8 22 -23 27 -34 9 -16 8
-18 -9 -13 -17 6 -19 3 -15 -16 3 -13 10 -29 16 -36 5 -7 7 -16 3 -20 -9 -9
-37 28 -30 39 2 4 -5 7 -16 6 -15 -1 -20 -7 -17 -19 3 -10 1 -21 -5 -24 -6 -4
-5 -10 3 -15 10 -6 11 -11 3 -19 -8 -8 -8 -22 -1 -50 9 -33 8 -42 -7 -59 -11
-13 -17 -30 -14 -45 3 -17 1 -23 -8 -19 -7 2 -14 -4 -17 -14 -3 -10 -5 -2 -6
17 0 26 2 31 9 20 11 -17 13 -6 4 27 -4 13 -11 20 -17 16 -6 -4 -8 4 -5 21 3
14 2 29 -2 31 -12 8 -21 -25 -11 -43 4 -9 6 -54 4 -100 -3 -65 0 -86 12 -98
17 -17 20 -44 5 -44 -5 0 -10 5 -10 10 0 16 -46 12 -60 -5 -14 -17 -50 -20
-50 -5 0 5 -11 9 -24 8 -19 -2 -22 -5 -14 -15 13 -16 5 -16 -44 -2 -27 7 -40
17 -44 34 -6 26 -18 32 -29 15 -10 -16 -21 -11 -33 15 -12 27 -46 36 -36 10 4
-8 1 -15 -5 -15 -6 0 -11 -7 -11 -15 0 -21 27 -19 34 3 2 9 3 3 1 -15 -2 -18
2 -34 8 -37 7 -2 0 -5 -15 -5 -15 -1 -34 6 -42 15 -12 11 -16 12 -16 2 0 -19
-79 -20 -98 -2 -12 13 -17 13 -38 -1 -14 -9 -28 -14 -32 -11 -5 3 -26 1 -48
-4 -24 -6 -43 -5 -48 0 -6 6 -31 10 -57 10 -28 0 -49 5 -51 12 -3 7 -12 9 -23
4 -16 -6 -14 -9 16 -25 19 -11 33 -24 31 -30 -3 -17 15 -13 22 4 6 17 34 10
54 -14 8 -9 11 -11 8 -4 -11 21 13 24 34 3 16 -16 20 -17 20 -4 0 10 4 12 13
7 6 -4 21 -8 31 -8 25 0 32 -21 9 -28 -10 -4 -33 -13 -52 -22 -29 -13 -32 -13
-27 0 9 25 -10 17 -22 -10 -6 -14 -18 -25 -26 -25 -20 0 -29 -33 -21 -83 l6
-42 -20 30 c-12 17 -21 39 -21 50 0 29 -10 40 -60 65 -93 46 -134 71 -113 67
14 -3 23 1 26 13 4 16 2 17 -20 7 -18 -8 -29 -8 -44 1 -10 7 -25 12 -32 12
-15 0 -86 59 -172 145 -33 33 -77 72 -97 85 -20 14 -39 33 -42 43 -2 9 -10 16
-17 15 -8 -2 -15 8 -17 22 -2 14 -7 27 -11 30 -5 3 -11 17 -14 31 -6 25 -5 25
35 20 23 -3 43 -12 46 -18 2 -7 -1 -13 -6 -13 -14 0 -9 -42 8 -67 17 -26 35
-31 26 -7 -3 8 -1 24 4 35 9 16 7 19 -12 20 -16 1 -18 3 -6 6 10 2 15 10 11
19 -3 9 0 14 8 12 9 -2 15 7 17 24 3 26 1 27 -25 22 -24 -5 -31 -1 -46 25 -10
17 -13 31 -8 31 15 0 14 30 -1 31 -7 0 -21 2 -31 4 -14 3 -16 0 -7 -10 14 -17
-3 -29 -29 -20 -15 4 -18 1 -14 -18 3 -17 0 -24 -11 -24 -8 0 -13 4 -11 8 10
15 -40 19 -51 4 -12 -15 -44 -11 -44 6 0 5 -19 10 -42 10 -24 1 -33 4 -20 6
21 4 21 5 5 21 -12 12 -18 13 -21 4 -2 -6 -16 -12 -30 -12 -19 0 -30 -7 -37
-22 -6 -15 -19 -23 -34 -23 -19 0 -24 6 -27 29 -4 36 -6 38 -48 43 -27 2 -40
-2 -60 -22 l-26 -26 0 28 c0 22 2 25 10 13 5 -8 10 -10 10 -5 0 6 -4 16 -9 24
-6 10 -11 6 -18 -15 -9 -27 -10 -27 -15 -6 -4 12 -2 20 3 17 13 -8 22 41 15
77 -3 17 -3 29 0 25 4 -4 10 -24 13 -44 l6 -38 60 -3 c33 -2 80 2 103 8 40 10
46 9 63 -12 l20 -22 6 22 c3 13 10 19 17 15 6 -4 5 1 -3 11 -13 15 -13 19 0
26 11 7 16 2 20 -21 7 -29 37 -61 50 -53 10 6 -2 46 -18 62 -7 7 -13 20 -13
28 0 13 2 13 16 -1 9 -9 24 -13 35 -10 13 4 19 2 19 -9 0 -9 -6 -16 -14 -16
-9 0 -12 -7 -9 -20 5 -19 6 -20 19 -3 8 10 14 14 13 8 -3 -24 2 -34 19 -32 18
1 18 2 0 39 -10 20 -18 40 -18 43 0 11 38 4 50 -10 9 -10 16 -12 25 -5 8 7 10
2 7 -20 -2 -18 0 -30 7 -30 6 0 8 7 5 15 -7 18 12 20 20 3 5 -10 7 -10 12 0 6
13 24 7 24 -9 0 -6 -4 -7 -10 -4 -5 3 -10 -1 -10 -10 0 -13 4 -14 20 -5 13 7
20 21 20 40 0 22 5 30 18 30 10 0 22 -3 26 -7 3 -4 17 -8 29 -10 55 -8 148
-46 143 -58 -2 -7 4 -15 15 -18 20 -5 26 7 9 18 -5 3 -10 11 -10 16 0 6 12 1
26 -10 29 -23 51 -19 57 12 3 18 5 17 6 -5 1 -29 21 -40 21 -12 0 11 6 14 23
8 12 -4 24 -9 27 -13 3 -3 12 -6 20 -6 8 0 16 -10 18 -22 5 -32 22 -29 23 5
l2 27 4 -27 c5 -32 33 -28 33 5 0 19 1 19 20 -3 11 -12 26 -20 34 -17 8 3 17
1 20 -6 4 -7 4 3 1 21 -5 35 9 43 25 13 13 -25 13 -34 0 -26 -5 3 -10 1 -10
-5 0 -7 9 -14 20 -17 11 -3 20 -10 21 -17 0 -6 4 -2 9 9 7 15 9 16 9 4 2 -34
-33 -46 -131 -48 -40 -1 -35 -27 7 -41 19 -6 35 -16 35 -21 0 -6 5 -7 10 -4 6
3 11 -4 11 -17 l2 -23 4 23 c6 31 43 26 60 -8 7 -14 13 -19 13 -12 0 7 5 10
10 7 16 -10 12 -25 -7 -26 -15 0 -15 -2 2 -9 13 -6 15 -9 5 -9 -9 -1 -6 -7 10
-18 14 -10 26 -17 28 -15 1 1 15 -4 30 -11 15 -8 32 -13 38 -10 6 2 9 -7 6
-25 -2 -18 3 -36 17 -52 20 -25 20 -25 21 -3 0 12 -4 25 -10 28 -13 8 -13 45
1 45 6 0 8 -8 4 -19 -3 -12 0 -21 10 -25 8 -3 15 0 16 7 0 9 2 9 6 -1 2 -6 9
-10 13 -7 5 3 6 13 3 22 -5 13 -2 15 11 10 9 -4 15 -3 12 2 -3 5 4 11 15 14
15 4 20 11 15 21 -3 9 -9 23 -13 33 -4 9 -2 14 3 10 6 -3 10 3 11 13 1 13 -4
16 -18 13 -10 -3 -19 -14 -19 -24 0 -11 -4 -19 -10 -19 -5 0 -10 6 -10 13 0 8
-3 7 -10 -3 -7 -12 -12 -12 -22 -2 -9 9 -9 12 0 12 7 0 12 13 11 33 0 27 -2
29 -9 12 -7 -17 -9 -18 -9 -2 -1 9 10 22 22 28 13 6 24 17 24 25 0 18 -2 18
-22 -3 -16 -16 -17 -15 -13 3 2 14 13 20 44 22 37 3 42 0 48 -21 7 -31 63 -60
88 -46 14 8 18 6 18 -8 1 -17 1 -17 11 0 5 9 8 21 5 26 -3 4 3 16 14 26 18 16
20 16 43 -7 l24 -25 -1 28 c-2 39 -20 56 -41 39 -10 -8 -15 -9 -15 -1 0 6 -13
11 -30 11 -16 0 -30 5 -30 11 0 7 -10 9 -26 5 -21 -6 -33 -1 -55 20 -16 15
-29 24 -29 18 0 -5 -5 -2 -11 6 -8 11 -9 7 -5 -17 6 -37 -8 -44 -24 -12 -8 13
-17 18 -28 14 -15 -5 -15 -4 0 12 15 17 15 20 -2 41 -10 12 -24 22 -32 22 -15
1 -57 30 -42 30 17 0 70 52 57 57 -7 3 -13 11 -13 19 0 9 -5 12 -12 8 -8 -5
-9 0 -5 17 4 13 7 40 8 59 l1 35 10 -35 c5 -19 9 -42 9 -50z m-41 59 c0 -4 -6
-9 -14 -12 -9 -4 -12 -14 -9 -26 3 -12 1 -21 -6 -21 -6 0 -11 15 -11 34 0 29
4 34 20 33 11 -1 20 -4 20 -8z m516 -25 c-4 -9 -9 -15 -11 -12 -3 3 -3 13 1
22 4 9 9 15 11 12 3 -3 3 -13 -1 -22z m214 22 c0 -2 -7 -6 -15 -10 -8 -3 -15
-1 -15 4 0 6 7 10 15 10 8 0 15 -2 15 -4z m126 -33 c-10 -10 -19 5 -10 18 6
11 8 11 12 0 2 -7 1 -15 -2 -18z m-81 6 c10 -14 1 -21 -19 -13 -9 3 -13 10
-10 15 7 12 21 11 29 -2z m-581 -24 c3 -8 1 -15 -4 -15 -6 0 -10 7 -10 15 0 8
2 15 4 15 2 0 6 -7 10 -15z m76 -7 c0 -4 -9 -8 -20 -8 -11 0 -20 4 -20 8 0 4
9 8 20 8 11 0 20 -4 20 -8z m70 -2 c0 -2 -7 -7 -16 -10 -8 -3 -12 -2 -9 4 6
10 25 14 25 6z m497 -43 c-3 -10 -5 -2 -5 17 0 19 2 27 5 18 2 -10 2 -26 0
-35z m-2241 21 c-3 -8 -2 -13 3 -10 13 9 34 -22 27 -40 -3 -8 -10 -13 -16 -9
-6 4 -7 -5 -4 -25 4 -20 3 -30 -5 -30 -7 0 -9 5 -5 11 3 6 0 15 -7 20 -11 6
-11 11 -1 21 19 19 14 37 -14 44 l-25 6 23 13 c31 17 31 17 24 -1z m159 -28
c8 8 19 12 25 9 15 -9 12 -41 -6 -56 -14 -11 -18 -11 -29 4 -16 22 -24 21 -42
0 -12 -16 -12 -15 -2 9 9 22 9 30 -3 42 -9 8 -18 12 -22 9 -3 -4 -6 -2 -6 4 0
24 17 22 42 -6 24 -27 29 -29 43 -15z m2035 35 c0 -6 -4 -13 -10 -16 -5 -3
-10 1 -10 9 0 9 5 16 10 16 6 0 10 -4 10 -9z m-2266 -16 c3 -8 12 -15 21 -15
8 0 15 -4 15 -10 0 -5 -4 -10 -10 -10 -5 0 -10 -12 -10 -27 0 -19 -3 -24 -9
-15 -4 7 -20 14 -34 16 -27 3 -67 32 -67 48 0 4 16 8 35 8 19 0 35 5 35 10 0
15 17 12 24 -5z m1776 -6 c0 -6 -4 -7 -10 -4 -5 3 -10 11 -10 16 0 6 5 7 10 4
6 -3 10 -11 10 -16z m-33 -11 c-3 -8 -6 -5 -6 6 -1 11 2 17 5 13 3 -3 4 -12 1
-19z m-2157 -19 c0 -6 -4 -7 -10 -4 -5 3 -10 11 -10 16 0 6 5 7 10 4 6 -3 10
-11 10 -16z m739 -19 c-13 -9 -39 -2 -39 10 0 4 12 5 26 2 17 -3 22 -7 13 -12z
m1721 16 c0 -3 -4 -8 -10 -11 -5 -3 -10 -1 -10 4 0 6 5 11 10 11 6 0 10 -2 10
-4z m-1914 -43 c-11 -11 -19 6 -11 24 8 17 8 17 12 0 3 -10 2 -21 -1 -24z
m2204 27 c0 -5 -4 -10 -10 -10 -5 0 -10 5 -10 10 0 6 5 10 10 10 6 0 10 -4 10
-10z m-85 -19 c3 -5 1 -12 -5 -16 -5 -3 -10 1 -10 9 0 18 6 21 15 7z m-500
-11 c3 -5 1 -10 -4 -10 -6 0 -11 5 -11 10 0 6 2 10 4 10 3 0 8 -4 11 -10z
m555 -6 c0 -8 -4 -12 -10 -9 -5 3 -10 10 -10 16 0 5 5 9 10 9 6 0 10 -7 10
-16z m-955 -44 c19 -37 14 -38 -20 -5 -29 30 -31 35 -10 35 8 0 21 -13 30 -30z
m122 13 c4 -10 16 -30 27 -45 l20 -28 -22 -23 c-12 -13 -19 -27 -15 -30 3 -4
1 -7 -5 -7 -7 0 -12 5 -12 10 0 6 -22 10 -48 10 -40 0 -48 3 -48 19 0 16 7 19
39 18 21 -2 42 -9 47 -17 16 -25 23 -2 10 30 -17 40 -21 80 -9 80 5 0 13 -8
16 -17z m-1377 -13 c0 -5 -7 -10 -15 -10 -8 0 -15 5 -15 10 0 6 7 10 15 10 8
0 15 -4 15 -10z m1340 -16 c0 -8 -4 -14 -10 -14 -5 0 -10 9 -10 21 0 11 5 17
10 14 6 -3 10 -13 10 -21z m-1580 6 c0 -5 -2 -10 -4 -10 -3 0 -8 5 -11 10 -3
6 -1 10 4 10 6 0 11 -4 11 -10z m2262 -56 c-8 -15 -10 -15 -15 0 -4 10 -3 15
3 11 6 -3 11 6 11 22 1 23 2 24 6 6 2 -12 0 -30 -5 -39z m238 36 c0 -5 -9 -6
-20 -3 -11 3 -20 9 -20 13 0 5 9 6 20 3 11 -3 20 -9 20 -13z m-2145 1 c3 -5 1
-12 -4 -15 -5 -3 -11 1 -15 9 -6 16 9 21 19 6z m2112 -33 c-3 -8 -6 -5 -6 6
-1 11 2 17 5 13 3 -3 4 -12 1 -19z m-160 -60 c-16 -10 -37 -10 -37 1 0 5 7 11
15 15 8 3 15 16 16 28 1 20 2 19 10 -7 6 -20 5 -32 -4 -37z m-1637 32 c3 -1
32 -1 65 -1 42 1 56 -1 45 -8 -8 -6 -34 -7 -57 -4 -25 3 -43 2 -43 -4 0 -6
-17 -5 -45 1 -54 13 -60 28 -7 22 20 -3 39 -5 42 -6z m230 -20 c0 -5 -8 -10
-17 -10 -15 0 -16 2 -3 10 19 12 20 12 20 0z m656 -35 c-7 -27 -23 -34 -23
-10 0 8 4 12 9 9 4 -3 8 5 8 17 0 12 3 20 6 16 4 -3 4 -18 0 -32z m271 13 c-3
-8 -6 -5 -6 6 -1 11 2 17 5 13 3 -3 4 -12 1 -19z m-187 -8 c0 -5 -4 -10 -9
-10 -6 0 -13 5 -16 10 -3 6 1 10 9 10 9 0 16 -4 16 -10z m-875 -28 c-8 -8 -25
10 -19 20 4 6 9 5 15 -3 4 -7 6 -15 4 -17z m-853 -7 c3 -13 1 -22 -3 -19 -9 5
-13 44 -5 44 2 0 6 -11 8 -25z m-382 -15 c0 -5 -4 -10 -9 -10 -6 0 -13 5 -16
10 -3 6 1 10 9 10 9 0 16 -4 16 -10z m2050 -19 c0 -14 -12 -20 -26 -14 -22 8
-17 32 6 26 11 -3 20 -9 20 -12z m40 15 c0 -3 -4 -8 -10 -11 -5 -3 -10 -1 -10
4 0 6 5 11 10 11 6 0 10 -2 10 -4z m-2013 -52 c-3 -3 -12 -4 -19 -1 -8 3 -5 6
6 6 11 1 17 -2 13 -5z m348 -14 c-3 -5 -1 -10 4 -10 6 0 11 -7 11 -15 0 -7 7
-18 15 -22 12 -7 13 -16 4 -45 -9 -35 -11 -36 -28 -20 -14 14 -16 23 -8 46 8
22 7 31 -1 34 -15 5 -16 42 -1 42 5 0 7 -4 4 -10z m-128 -32 c-3 -8 -6 -5 -6
6 -1 11 2 17 5 13 3 -3 4 -12 1 -19z m2353 2 c0 -5 -2 -10 -4 -10 -3 0 -8 5
-11 10 -3 6 -1 10 4 10 6 0 11 -4 11 -10z m-2270 -64 c0 -30 -5 -58 -10 -61
-7 -5 -9 10 -5 44 4 33 2 51 -5 51 -5 0 -10 5 -10 10 0 6 7 10 15 10 11 0 15
-13 15 -54z m30 24 c0 -5 -5 -10 -11 -10 -5 0 -7 5 -4 10 3 6 8 10 11 10 2 0
4 -4 4 -10z m2243 -50 c3 -11 2 -20 -3 -20 -8 0 -20 24 -20 41 0 17 17 1 23
-21z m-2643 -20 c0 -5 -2 -10 -4 -10 -3 0 -8 5 -11 10 -3 6 -1 10 4 10 6 0 11
-4 11 -10z m70 -38 c0 -4 -18 -6 -40 -4 -22 2 -40 6 -40 8 0 2 18 4 40 4 22 0
40 -3 40 -8z m140 -58 c0 -16 -16 -19 -25 -4 -8 13 4 32 16 25 5 -4 9 -13 9
-21z m-160 6 c0 -5 -5 -10 -11 -10 -5 0 -7 5 -4 10 3 6 8 10 11 10 2 0 4 -4 4
-10z m2388 -34 c6 -4 12 -16 12 -28 0 -16 -5 -19 -22 -14 -13 3 -28 6 -34 6
-16 0 -27 32 -14 40 13 8 41 6 58 -4z m-280 -17 c2 -10 -10 -14 -43 -15 -33
-1 -45 2 -45 13 0 11 7 13 30 8 20 -4 30 -3 30 5 0 16 24 7 28 -11z m87 12
c17 -7 17 -8 -8 -13 -19 -4 -27 -1 -27 8 0 15 6 16 35 5z m92 -17 c-1 -2 -13
-1 -26 3 -16 4 -19 8 -10 14 12 7 45 -9 36 -17z m-137 6 c0 -5 -7 -7 -15 -4
-8 4 -15 8 -15 10 0 2 7 4 15 4 8 0 15 -4 15 -10z m-1796 -45 c-15 -14 -34
-25 -42 -25 -9 0 -2 10 18 25 19 14 38 25 42 25 5 0 -3 -11 -18 -25z m2283
-37 c-3 -8 -6 -5 -6 6 -1 11 2 17 5 13 3 -3 4 -12 1 -19z m-2172 -8 c3 -6 17
-7 31 -4 15 4 24 2 24 -6 0 -7 6 -10 13 -7 7 3 22 -2 32 -10 14 -11 16 -17 7
-20 -6 -3 -9 -9 -6 -15 4 -6 -1 -8 -13 -4 -15 5 -19 1 -21 -20 -1 -19 2 -25
12 -21 10 4 18 -4 25 -21 5 -15 10 -21 10 -15 1 9 8 10 25 3 13 -5 27 -6 30
-3 3 4 6 -1 6 -11 0 -15 2 -15 23 -2 14 10 27 12 37 6 12 -7 11 -10 -5 -15
-11 -4 -28 -11 -37 -16 -21 -11 -29 -11 -25 -1 1 4 -3 9 -8 10 -6 2 -16 8 -22
14 -10 8 -13 6 -13 -6 0 -9 -4 -16 -8 -16 -16 0 -30 23 -25 38 4 10 2 13 -5 8
-17 -10 -15 -43 3 -50 19 -7 20 -36 1 -36 -8 0 -23 -3 -33 -6 -15 -5 -15 -3 2
7 29 17 29 17 16 33 -7 8 -19 12 -27 9 -8 -3 -21 0 -29 7 -12 10 -15 10 -15
-1 0 -8 -10 -14 -25 -14 -17 0 -24 4 -20 13 3 7 0 10 -5 7 -18 -11 -11 -24 21
-41 26 -13 33 -14 40 -2 5 7 9 10 9 6 0 -3 3 -15 6 -25 5 -15 4 -15 -5 -3 -7
10 -11 11 -11 3 0 -7 -9 -13 -20 -13 -14 0 -20 -7 -21 -22 -1 -22 -1 -22 -9 2
l-7 25 -8 -27 c-4 -16 -5 -34 -2 -42 3 -8 0 -16 -8 -18 -10 -2 -7 -11 11 -33
l24 -30 0 47 c0 39 3 46 16 41 8 -3 13 -11 10 -18 -2 -7 4 -21 15 -31 10 -9
19 -14 19 -10 0 4 8 0 18 -10 9 -10 17 -22 17 -28 0 -17 28 -18 50 -2 16 12
17 16 6 30 -7 9 -24 16 -37 16 -13 0 -24 6 -24 13 0 17 48 41 74 38 13 -2 17
2 13 13 -3 8 -2 18 3 21 5 3 10 -5 12 -17 4 -22 5 -22 16 5 13 30 15 31 43 17
16 -9 19 -7 19 9 0 18 3 19 26 11 36 -14 44 -13 44 10 0 28 12 25 49 -11 27
-25 31 -35 26 -60 -5 -22 -3 -29 9 -29 10 0 16 9 17 23 0 21 1 21 10 -3 6 -14
17 -28 25 -33 8 -4 14 -12 14 -16 0 -5 16 -26 35 -47 19 -21 35 -45 34 -53 0
-11 -2 -12 -6 -3 -2 6 -9 12 -15 12 -6 0 -8 -7 -4 -15 6 -16 -28 -58 -38 -48
-3 4 -6 -3 -6 -15 0 -11 5 -24 10 -27 6 -3 10 1 10 9 0 9 5 16 10 16 6 0 10 6
10 13 0 7 5 18 11 24 13 13 49 5 49 -10 0 -6 12 -23 26 -38 18 -19 24 -33 20
-46 -7 -17 -9 -16 -26 5 -11 13 -16 30 -13 39 4 10 2 14 -5 10 -6 -4 -13 1
-16 10 -3 10 -4 3 -2 -16 2 -28 1 -31 -9 -18 -10 14 -12 14 -23 -3 -9 -15 -17
-17 -41 -10 -22 6 -28 5 -25 -4 7 -18 -26 -43 -69 -51 -31 -6 -36 -5 -31 8 5
14 1 14 -31 6 -21 -6 -49 -7 -64 -3 -14 5 -37 8 -51 9 -16 0 -28 8 -35 22 -7
17 -15 20 -35 16 -21 -4 -30 1 -43 21 -9 14 -17 31 -16 38 0 7 4 4 9 -7 8 -19
9 -19 9 3 1 12 -3 22 -9 22 -5 0 -10 8 -10 18 0 9 -7 25 -14 35 -13 17 -14 17
-18 -1 -3 -11 -18 -22 -34 -26 -31 -8 -54 -24 -54 -37 0 -5 8 -5 17 -2 13 5
15 2 10 -11 -4 -10 -7 -24 -7 -33 0 -8 -6 -13 -12 -10 -7 2 -12 10 -10 17 2 7
-4 20 -12 29 -12 13 -12 19 -1 34 9 13 14 14 17 6 3 -10 6 -10 11 -2 5 7 -1
17 -13 23 -17 9 -22 7 -30 -15 -14 -36 -20 -31 -9 7 12 42 12 41 -6 34 -11 -4
-15 2 -16 22 -2 23 -2 24 -6 5 -4 -24 -27 -31 -38 -13 -3 6 1 10 9 10 25 0 18
20 -6 21 -22 0 -22 1 -3 9 18 8 19 9 1 9 -13 1 -16 6 -11 19 11 28 11 34 -2
39 -7 3 -9 -3 -6 -18 4 -15 2 -20 -5 -15 -6 4 -25 0 -41 -8 -28 -15 -29 -15
-27 9 1 28 6 31 24 13 7 -7 12 -8 12 -3 0 6 -18 20 -40 32 -28 17 -41 20 -46
11 -5 -8 -10 -6 -15 8 -7 17 -8 17 -8 2 -1 -20 -9 -22 -30 -9 -9 6 -11 16 -5
32 4 13 7 32 5 42 -2 17 -1 17 22 3 13 -9 27 -13 30 -9 4 3 8 -1 8 -10 3 -37
4 -40 18 -45 9 -3 11 0 6 8 -5 9 -2 10 14 5 24 -7 26 -2 11 25 -8 16 -8 18 5
14 8 -4 15 -2 15 4 0 9 19 9 40 2 3 -1 17 -1 33 0 15 1 27 -3 27 -9 0 -6 -7
-11 -15 -11 -9 0 -12 -6 -9 -15 4 -8 12 -15 19 -15 24 0 34 24 25 60 -4 19 -8
27 -9 17 -1 -12 -5 -15 -13 -10 -7 4 -17 8 -23 8 -5 0 -11 10 -13 23 -3 16 -8
22 -19 18 -8 -3 -18 -6 -23 -6 -4 0 -11 -10 -15 -22 -6 -20 -8 -20 -12 -5 -2
9 -9 15 -14 12 -5 -4 -9 3 -9 15 0 12 -4 18 -10 15 -5 -3 -24 2 -42 11 -27 14
-31 14 -20 2 7 -9 9 -23 6 -33 -6 -15 -4 -16 16 -5 15 8 20 8 16 1 -4 -6 -2
-11 4 -11 6 0 8 -4 5 -10 -3 -5 -19 -10 -35 -10 -33 0 -53 27 -44 57 3 10 -2
6 -11 -9 -18 -32 -27 -34 -45 -13 -15 17 -4 55 16 55 12 0 12 3 2 14 -11 12
-14 11 -23 -7 -14 -32 -36 -46 -60 -37 -21 8 -22 12 -10 47 5 15 17 23 39 25
35 4 90 -18 81 -32 -4 -6 4 -10 15 -10 19 0 21 4 16 25 -7 29 1 32 20 8 7 -10
16 -14 20 -10 5 4 2 12 -6 17 -11 7 -11 13 -3 32 7 13 12 17 12 11 1 -7 8 -13
17 -13 14 0 14 3 4 15 -16 20 0 19 28 -1 12 -8 22 -26 22 -39 0 -30 17 -41 25
-16 3 10 17 21 30 24 22 4 25 1 26 -27 1 -17 3 -38 4 -46 1 -8 3 -21 4 -28 1
-9 11 -11 39 -6 48 9 49 10 25 37 -44 47 -51 87 -17 87 8 0 14 6 14 14 0 21
54 34 65 16z m2585 -46 c0 -8 -4 -13 -9 -9 -5 3 -12 -3 -14 -12 -4 -14 -5 -13
-6 4 -1 18 6 26 27 32 1 1 2 -6 2 -15z m-110 2 c0 -3 -4 -8 -10 -11 -5 -3 -10
-1 -10 4 0 6 5 11 10 11 6 0 10 -2 10 -4z m-2338 -26 c-2 -7 3 -10 11 -7 11 4
13 0 10 -14 -5 -18 -6 -17 -24 5 -22 28 -24 40 -6 33 6 -2 11 -10 9 -17z m45
-30 c-1 -12 -5 -16 -10 -11 -5 5 -6 14 -3 20 11 16 15 13 13 -9z m-537 -79 c0
-11 -31 -24 -39 -16 -3 3 1 10 9 15 19 12 30 12 30 1z m2035 -1 c3 -5 -1 -10
-9 -10 -8 0 -18 5 -21 10 -3 6 1 10 9 10 8 0 18 -4 21 -10z m-1416 -9 c18 -11
5 -31 -20 -31 -10 0 -19 2 -19 4 0 2 -3 11 -6 20 -7 18 21 22 45 7z m504 -1
c8 0 7 -4 -1 -12 -9 -9 -16 -8 -30 6 -16 18 -16 19 1 12 10 -3 24 -6 30 -6z
m862 -10 c3 -5 14 -6 25 -3 12 3 20 0 20 -8 0 -7 3 -9 7 -6 3 4 13 1 22 -6 22
-19 51 -28 51 -17 0 6 -7 10 -15 10 -8 0 -15 2 -15 4 0 2 -3 13 -7 23 -5 15
-4 16 8 7 8 -6 25 -15 39 -19 41 -12 110 -48 110 -57 0 -5 5 -6 10 -3 6 3 27
-7 47 -24 21 -17 41 -31 46 -31 7 0 107 -98 107 -105 0 -2 -9 -1 -20 2 -11 3
-20 10 -20 16 0 6 -7 1 -16 -11 -20 -28 -88 -31 -103 -4 -9 16 -11 16 -23 -1
-15 -20 -66 -29 -85 -15 -6 5 -14 5 -18 -2 -4 -7 -12 -7 -25 0 -10 5 -43 8
-74 5 -31 -3 -56 -1 -56 4 0 5 -10 11 -22 13 -17 2 -24 11 -26 33 -2 17 -12
58 -22 93 -18 59 -18 83 2 108 9 12 45 8 53 -6z m-2168 -22 c-3 -8 -6 -5 -6 6
-1 11 2 17 5 13 3 -3 4 -12 1 -19z m733 -2 c0 -3 -4 -8 -10 -11 -5 -3 -10 -1
-10 4 0 6 5 11 10 11 6 0 10 -2 10 -4z m785 -6 c3 -5 1 -10 -4 -10 -6 0 -11 5
-11 10 0 6 2 10 4 10 3 0 8 -4 11 -10z m-953 -45 c-2 -14 -6 -25 -8 -25 -2 0
-4 11 -4 25 0 14 4 25 9 25 4 0 6 -11 3 -25z m45 -17 c-3 -8 -6 -5 -6 6 -1 11
2 17 5 13 3 -3 4 -12 1 -19z m2004 -25 c13 -17 13 -17 -6 -3 -11 8 -22 16 -24
17 -2 2 0 3 6 3 6 0 17 -8 24 -17z m-23 -20 c70 -66 80 -71 92 -60 8 9 10 8 5
-5 -8 -20 -21 -23 -30 -8 -4 6 -11 7 -17 4 -10 -7 -88 71 -88 88 0 13 6 10 38
-19z m-2461 -25 c-3 -8 -6 -5 -6 6 -1 11 2 17 5 13 3 -3 4 -12 1 -19z m-17
-33 c0 -8 -4 -15 -10 -15 -5 0 -7 7 -4 15 4 8 8 15 10 15 2 0 4 -7 4 -15z
m262 -23 c2 -17 -2 -34 -10 -42 -12 -11 -13 -10 -7 10 6 19 4 21 -13 16 -11
-4 -23 -2 -27 4 -4 6 4 10 19 10 16 0 26 6 26 15 0 25 7 17 12 -13z m1662 -8
c3 -8 -1 -22 -9 -30 -13 -14 -15 -12 -15 15 0 33 14 42 24 15z m-1607 -46 c-3
-7 -5 -2 -5 12 0 14 2 19 5 13 2 -7 2 -19 0 -25z m936 7 c3 -16 0 -24 -7 -22
-14 4 -21 47 -8 47 5 0 12 -11 15 -25z m-1063 5 c13 -8 13 -10 -2 -10 -9 0
-20 5 -23 10 -8 13 5 13 25 0z m2340 -11 c0 -6 7 -9 15 -5 8 3 15 1 15 -4 0
-6 -11 -10 -25 -10 -16 0 -25 6 -25 15 0 8 5 15 10 15 6 0 10 -5 10 -11z
m-2220 -41 c0 -9 -4 -20 -10 -23 -5 -3 -10 1 -10 9 0 9 -6 16 -13 16 -7 0 -13
8 -13 18 0 15 4 16 23 8 13 -6 23 -19 23 -28z m179 29 c12 -15 5 -27 -16 -27
-8 0 -11 5 -8 10 3 6 1 10 -4 10 -6 0 -11 5 -11 10 0 15 26 12 39 -3z m2251
-2 c0 -2 -9 -3 -19 -2 -11 0 -18 5 -15 9 4 6 34 0 34 -7z m-2589 -35 c2 -8 0
-16 -5 -17 -5 -1 -13 -7 -17 -15 -7 -10 -9 -9 -9 5 0 10 6 24 13 31 14 16 14
16 18 -4z m299 10 c0 -5 -4 -10 -10 -10 -5 0 -10 5 -10 10 0 6 5 10 10 10 6 0
10 -4 10 -10z m-560 -31 c0 -6 -4 -7 -10 -4 -5 3 -10 11 -10 16 0 6 5 7 10 4
6 -3 10 -11 10 -16z m324 -4 c3 -8 1 -15 -4 -15 -6 0 -10 7 -10 15 0 8 2 15 4
15 2 0 6 -7 10 -15z m-24 -5 c0 -5 -5 -10 -11 -10 -5 0 -7 5 -4 10 3 6 8 10
11 10 2 0 4 -4 4 -10z m319 -19 c0 -10 -2 -11 -6 -3 -6 16 -30 16 -35 0 -3 -7
-7 -3 -10 8 -4 17 -1 20 23 16 19 -3 29 -10 28 -21z m-203 -5 c6 -26 34 -44
34 -23 0 8 4 6 10 -3 6 -10 10 -11 10 -2 0 6 4 12 10 12 5 0 7 -6 4 -14 -3 -7
2 -16 11 -20 29 -11 7 -25 -25 -16 -21 6 -30 5 -30 -3 0 -7 -4 -6 -10 3 -7 12
-12 12 -22 2 -6 -6 -16 -12 -20 -12 -13 0 -4 24 12 33 8 4 -3 5 -25 2 -29 -4
-36 -3 -25 4 13 10 13 11 0 12 -8 1 -19 1 -23 0 -5 -1 -5 3 -2 9 4 7 23 10 44
7 20 -2 28 -2 19 0 -19 5 -23 15 -11 26 14 15 33 6 39 -17z m982 -1 c-3 -3 -9
2 -12 12 -6 14 -5 15 5 6 7 -7 10 -15 7 -18z m718 -6 c1 -20 -2 -26 -7 -17 -7
10 -9 11 -9 0 0 -7 -4 -10 -10 -7 -14 9 -12 42 3 48 21 9 22 8 23 -24z m-1562
-5 c-5 -20 -4 -25 6 -19 8 5 11 2 8 -10 -1 -10 -13 -20 -25 -21 -23 -4 -31 10
-13 21 6 3 10 17 10 31 0 13 5 24 10 24 6 0 8 -11 4 -26z m-243 -69 c12 8 11
-6 -1 -25 -6 -10 -10 -11 -10 -2 0 6 -4 12 -10 12 -5 0 -10 -7 -10 -15 0 -8
-4 -15 -10 -15 -5 0 -10 6 -10 14 0 8 -3 22 -6 31 -5 11 0 18 15 22 14 3 22
14 23 32 1 14 3 7 5 -17 2 -23 8 -40 14 -37z m289 55 c0 -5 -5 -10 -11 -10 -5
0 -7 5 -4 10 3 6 8 10 11 10 2 0 4 -4 4 -10z m-512 -55 c-1 -28 -4 -33 -14
-24 -8 6 -21 8 -30 5 -10 -4 -22 1 -29 11 -19 26 -7 37 21 18 22 -14 25 -14
36 5 17 27 18 26 16 -15z m106 7 c13 -26 13 -28 -5 -28 -10 0 -19 4 -19 9 0 4
-5 5 -12 1 -6 -4 -9 -3 -6 2 3 5 8 17 11 27 9 23 14 22 31 -11z m-55 -11 c-3
-6 -10 -7 -18 -2 -7 5 -10 14 -6 21 9 14 29 -2 24 -19z m215 14 c-4 -8 -10
-15 -15 -15 -4 0 -6 7 -3 15 4 8 10 15 15 15 4 0 6 -7 3 -15z m-104 -38 c0 -5
-4 -5 -10 -2 -5 3 -10 14 -10 23 0 15 2 15 10 2 5 -8 10 -19 10 -23z m940 23
c0 -6 11 -15 25 -20 23 -9 82 -89 99 -134 7 -19 6 -19 -13 -2 -12 11 -21 14
-26 7 -3 -6 -14 -11 -23 -10 -14 0 -14 2 2 8 15 6 16 10 7 15 -8 5 -10 18 -7
33 4 13 4 28 1 34 -9 14 -35 -16 -35 -41 0 -12 -4 -19 -9 -15 -5 3 -13 0 -17
-6 -11 -18 -24 12 -13 32 11 22 12 32 0 25 -5 -3 -12 1 -15 10 -3 8 -2 13 3
10 5 -3 11 4 15 17 3 12 1 24 -4 25 -13 5 -13 22 0 22 6 0 10 -5 10 -10z m283
-3 c3 -8 2 -19 -3 -26 -5 -9 -9 -4 -12 13 -5 27 6 36 15 13z m-373 -27 c-18
-11 -22 -7 -14 14 5 13 10 14 18 6 8 -8 7 -13 -4 -20z m-160 0 c3 -1 7 -2 10
-2 6 0 32 -28 28 -29 -27 -7 -40 -3 -58 16 -20 21 -20 23 -4 20 11 -2 21 -4
24 -5z m201 -36 c12 -14 11 -16 -5 -13 -11 2 -21 10 -24 17 -5 17 13 15 29 -4z
m-374 -26 c-3 -7 -5 -2 -5 12 0 14 2 19 5 13 2 -7 2 -19 0 -25z m338 10 c6 -4
2 -8 -7 -8 -10 0 -18 7 -18 17 0 9 3 12 8 7 4 -5 12 -12 17 -16z m-188 -4 c-3
-3 -12 -4 -19 -1 -8 3 -5 6 6 6 11 1 17 -2 13 -5z m113 -12 c0 -9 7 -12 20 -9
14 4 20 0 20 -11 1 -15 3 -14 15 2 14 19 15 19 15 -5 0 -14 6 -31 12 -37 10
-10 10 -15 -2 -22 -11 -7 -18 -3 -26 17 l-11 26 -7 -34 c-5 -30 -10 -34 -37
-35 -16 -1 -36 -7 -42 -14 -10 -10 -7 -11 10 -6 15 5 28 1 42 -13 28 -28 31
-27 32 12 0 17 3 26 6 20 2 -7 17 -13 31 -13 27 0 58 -32 47 -49 -7 -12 -43
-2 -48 13 -3 6 -3 -2 -1 -17 2 -17 0 -26 -6 -22 -6 3 -10 14 -10 23 0 10 -3
13 -8 6 -14 -21 -40 -23 -57 -4 -13 14 -23 17 -39 10 -33 -12 -41 -1 -43 58
-2 53 10 70 23 30 6 -21 7 -21 21 7 14 25 14 29 -1 37 -19 11 -21 34 -3 41 23
9 47 3 47 -11z m-453 -39 c-8 -7 -37 9 -31 19 3 5 12 4 20 -3 8 -6 13 -14 11
-16z m-97 7 c0 -5 -2 -10 -4 -10 -3 0 -8 5 -11 10 -3 6 -1 10 4 10 6 0 11 -4
11 -10z m339 -4 c13 -8 2 -44 -18 -59 -10 -7 -20 -20 -24 -29 -3 -10 -12 -18
-19 -17 -10 0 -10 2 0 6 6 2 12 13 12 24 0 13 -7 19 -24 19 -14 0 -28 -4 -31
-10 -10 -15 -23 -12 -28 8 -3 12 -5 10 -7 -8 -1 -23 -3 -22 -14 10 -11 29 -10
37 2 49 13 13 16 13 28 -3 7 -11 15 -24 17 -29 2 -6 11 -8 21 -4 9 4 14 11 11
17 -3 5 3 10 14 10 14 0 19 5 15 15 -4 10 0 13 15 10 12 -2 25 -6 30 -9z
m-389 -14 c10 -9 26 -31 34 -47 l16 -30 0 28 c0 15 5 27 10 27 6 0 10 -10 10
-23 0 -13 5 -28 12 -35 6 -6 8 -15 4 -19 -4 -4 -12 -1 -17 7 -8 12 -9 11 -7
-5 2 -11 9 -21 16 -21 6 -1 16 -2 20 -3 5 0 8 -11 6 -23 -1 -13 -3 -27 -3 -31
-1 -5 -6 -5 -13 -1 -8 5 -9 0 -6 -14 4 -12 2 -22 -4 -22 -5 0 -7 -12 -3 -29 3
-16 2 -32 -3 -35 -13 -8 -18 10 -17 60 0 30 -3 41 -14 40 -7 -1 -16 4 -18 10
-2 7 8 9 29 6 18 -2 29 -1 25 4 -13 14 -60 16 -68 2 -9 -14 -19 -7 -23 14 -1
7 -5 19 -9 26 -5 6 -5 18 -1 25 5 8 2 8 -9 -2 -15 -12 -17 -11 -17 3 0 9 6 16
13 16 8 0 9 3 1 8 -15 10 -24 51 -13 58 5 3 9 -2 9 -11 0 -9 4 -14 9 -11 5 3
7 15 4 26 -7 25 2 25 27 2z m504 -4 c-10 -13 -20 -25 -21 -27 -2 -2 -3 8 -3
22 0 21 5 27 22 27 21 0 21 0 2 -22z m-337 -4 c-3 -3 -12 -4 -19 -1 -8 3 -5 6
6 6 11 1 17 -2 13 -5z m573 -4 c0 -5 -2 -10 -4 -10 -3 0 -8 5 -11 10 -3 6 -1
10 4 10 6 0 11 -4 11 -10z m1570 0 c0 -5 -2 -10 -4 -10 -3 0 -8 5 -11 10 -3 6
-1 10 4 10 6 0 11 -4 11 -10z m-2205 -10 c3 -6 -1 -7 -9 -4 -18 7 -21 14 -7
14 6 0 13 -4 16 -10z m96 -33 c-15 -15 -21 -5 -14 22 5 21 7 21 16 6 6 -11 5
-21 -2 -28z m605 20 c14 5 79 -20 88 -35 3 -5 -4 -14 -16 -21 -18 -11 -19 -10
-14 7 5 14 1 21 -13 25 -11 3 -21 1 -23 -3 -2 -4 -14 -11 -26 -15 -21 -6 -23
-5 -17 15 5 14 3 20 -3 16 -6 -4 -8 2 -4 16 5 18 7 19 10 6 2 -10 9 -15 18
-11z m-691 -17 c18 7 23 6 19 -3 -2 -7 -15 -13 -29 -13 -20 -2 -25 3 -24 20 1
16 2 17 6 4 3 -13 9 -15 28 -8z m-455 -5 c7 -8 9 -15 5 -15 -4 0 -3 -6 3 -13
7 -8 7 -18 2 -27 -7 -10 -10 -11 -10 -2 0 6 -7 12 -15 12 -8 0 -15 5 -15 10 0
6 -10 10 -22 10 l-23 1 24 19 c28 24 35 25 51 5z m230 -57 c0 -10 -7 -18 -16
-18 -11 0 -14 -6 -10 -22 3 -13 3 -17 0 -10 -3 6 -10 10 -14 7 -5 -3 -8 8 -8
25 1 21 4 27 9 18 6 -9 9 -9 9 -1 0 6 3 19 7 29 4 12 3 15 -5 10 -13 -8 -17 6
-5 18 9 8 32 -32 33 -56z m-75 42 c3 -5 1 -10 -4 -10 -6 0 -11 5 -11 10 0 6 2
10 4 10 3 0 8 -4 11 -10z m1038 -20 c-6 -21 -18 -26 -28 -10 -3 5 -13 6 -22 3
-11 -5 -14 -3 -9 6 5 7 17 11 27 8 11 -3 19 -1 19 4 0 5 4 9 9 9 5 0 7 -9 4
-20z m-1080 3 c-7 -2 -19 -2 -25 0 -7 3 -2 5 12 5 14 0 19 -2 13 -5z m617 -50
c0 -6 -35 3 -37 10 -8 21 -1 25 17 10 11 -10 20 -19 20 -20z m1317 15 c-3 -8
-6 -5 -6 6 -1 11 2 17 5 13 3 -3 4 -12 1 -19z m-1392 -29 c9 -38 -1 -49 -20
-23 -14 18 -14 18 -15 -4 0 -13 -4 -20 -10 -17 -5 3 -10 0 -10 -8 0 -7 -13
-23 -30 -35 -16 -13 -30 -18 -30 -12 0 5 -9 10 -21 10 -11 0 -17 4 -14 10 4 6
16 8 28 5 16 -5 18 -4 8 3 -12 9 -12 15 1 43 9 18 14 38 11 46 -3 7 0 13 5 13
16 0 24 -18 12 -25 -14 -8 -13 -52 2 -61 8 -5 9 2 5 24 -6 29 -4 32 17 32 16
0 26 7 29 21 7 28 24 17 32 -22z m1232 9 c-3 -8 -6 -5 -6 6 -1 11 2 17 5 13 3
-3 4 -12 1 -19z m-1037 2 c0 -13 -11 -13 -30 0 -12 8 -11 10 8 10 12 0 22 -4
22 -10z m45 0 c5 -8 11 -7 21 1 11 9 14 8 14 -4 0 -15 -16 -17 -37 -4 -6 4
-14 1 -16 -5 -3 -8 -6 -6 -6 5 -1 19 14 23 24 7z m286 -32 c-4 -41 -5 -41 -11
-13 -7 31 -3 55 9 55 4 0 4 -19 2 -42z m1473 17 c-4 -8 -11 -12 -16 -9 -6 4
-5 10 3 15 19 12 19 11 13 -6z m376 11 c0 -3 -4 -8 -10 -11 -5 -3 -10 -1 -10
4 0 6 5 11 10 11 6 0 10 -2 10 -4z m-3085 -16 c3 -5 1 -10 -4 -10 -6 0 -11 5
-11 10 0 6 2 10 4 10 3 0 8 -4 11 -10z m1472 -12 c-3 -8 -6 -5 -6 6 -1 11 2
17 5 13 3 -3 4 -12 1 -19z m1026 -9 c-7 -25 -10 -24 -15 5 -3 16 -1 23 7 19 7
-2 11 -13 8 -24z m-1719 6 c3 -8 1 -15 -4 -15 -6 0 -10 7 -10 15 0 8 2 15 4
15 2 0 6 -7 10 -15z m416 5 c0 -5 -4 -10 -10 -10 -5 0 -10 5 -10 10 0 6 5 10
10 10 6 0 10 -4 10 -10z m-95 -11 c11 -17 2 -18 -19 -3 -17 12 -17 14 -4 14 9
0 20 -5 23 -11z m881 -36 c12 -4 13 -8 3 -13 -22 -14 -39 1 -38 34 0 29 1 29
9 8 5 -12 17 -25 26 -29z m-1666 27 c0 -5 -11 -10 -25 -10 -14 0 -25 5 -25 10
0 6 11 10 25 10 14 0 25 -4 25 -10z m41 -21 c-5 -13 -10 -19 -10 -12 -1 15 10
45 15 40 3 -2 0 -15 -5 -28z m-191 6 c10 -12 10 -15 -4 -15 -9 0 -16 7 -16 15
0 8 2 15 4 15 2 0 9 -7 16 -15z m-215 -5 c3 -5 1 -10 -4 -10 -6 0 -11 5 -11
10 0 6 2 10 4 10 3 0 8 -4 11 -10z m1225 0 c0 -5 -4 -10 -9 -10 -6 0 -13 5
-16 10 -3 6 1 10 9 10 9 0 16 -4 16 -10z m-796 -12 c-5 -8 -2 -9 9 -5 10 3 17
2 17 -3 0 -6 -9 -10 -20 -10 -20 0 -26 11 -13 23 10 11 15 8 7 -5z m1806 -19
c0 -5 -4 -9 -10 -9 -5 0 -10 7 -10 16 0 8 5 12 10 9 6 -3 10 -10 10 -16z m-71
-26 c-1 -21 -3 -30 -6 -20 -2 9 -11 17 -19 17 -8 0 -14 3 -14 6 0 6 30 33 38
34 1 0 1 -17 1 -37z m-1352 5 c-3 -8 -6 -5 -6 6 -1 11 2 17 5 13 3 -3 4 -12 1
-19z m763 1 c0 -5 -4 -9 -10 -9 -5 0 -10 7 -10 16 0 8 5 12 10 9 6 -3 10 -10
10 -16z m490 12 c0 -5 -7 -14 -15 -21 -13 -10 -15 -9 -15 9 0 12 6 21 15 21 8
0 15 -4 15 -9z m-1426 -27 c3 -8 2 -12 -4 -9 -6 3 -10 10 -10 16 0 14 7 11 14
-7z m95 12 c-12 -10 -59 -15 -59 -6 0 5 14 10 32 10 17 0 29 -2 27 -4z m1508
-18 c-3 -8 -6 -5 -6 6 -1 11 2 17 5 13 3 -3 4 -12 1 -19z m-1748 -28 c9 -7 10
-40 2 -40 -21 0 -60 27 -56 38 3 8 5 19 6 25 1 7 5 1 9 -13 8 -25 8 -25 9 5 2
28 3 28 13 10 6 -11 14 -22 17 -25z m1781 8 c0 -5 -4 -8 -10 -8 -5 0 -10 10
-10 23 0 18 2 19 10 7 5 -8 10 -18 10 -22z m-1655 -4 c22 -12 19 -31 -5 -26
-18 5 -16 2 -24 32 -4 14 -4 21 1 15 4 -5 17 -15 28 -21z m2205 22 c0 -3 -4
-8 -10 -11 -5 -3 -10 -1 -10 4 0 6 5 11 10 11 6 0 10 -2 10 -4z m-616 -27 c-3
-5 -10 -7 -15 -3 -5 3 -7 10 -3 15 3 5 10 7 15 3 5 -3 7 -10 3 -15z m496 1 c0
-5 -2 -10 -4 -10 -3 0 -8 5 -11 10 -3 6 -1 10 4 10 6 0 11 -4 11 -10z m-560
-20 c-14 -10 -27 -16 -30 -13 -6 6 30 33 44 33 6 0 0 -9 -14 -20z m510 10 c0
-5 -5 -10 -11 -10 -5 0 -7 5 -4 10 3 6 8 10 11 10 2 0 4 -4 4 -10z m243 -21
c-5 -19 -23 -27 -23 -10 0 5 -3 16 -6 24 -4 12 0 14 14 10 14 -3 18 -11 15
-24z m-2148 11 c-3 -5 -10 -10 -16 -10 -5 0 -9 5 -9 10 0 6 7 10 16 10 8 0 12
-4 9 -10z m2205 -5 c0 -9 -6 -12 -15 -9 -8 4 -15 10 -15 15 0 5 7 9 15 9 8 0
15 -7 15 -15z m-1282 -30 c-3 -3 -9 2 -12 12 -6 14 -5 15 5 6 7 -7 10 -15 7
-18z m-1198 5 c0 -5 -4 -10 -10 -10 -5 0 -10 5 -10 10 0 6 5 10 10 10 6 0 10
-4 10 -10z m2480 -4 c0 -3 -4 -8 -10 -11 -5 -3 -10 -1 -10 4 0 6 5 11 10 11 6
0 10 -2 10 -4z m-330 -15 c0 -5 -9 -7 -20 -4 -11 3 -20 7 -20 9 0 2 9 4 20 4
11 0 20 -4 20 -9z m-2130 -32 c0 -11 -27 -12 -34 0 -3 4 -3 11 0 14 8 8 34 -3
34 -14z m2473 1 c3 -11 1 -18 -4 -14 -5 3 -9 12 -9 20 0 20 7 17 13 -6z
m-2483 -48 c0 -8 -1 -13 -3 -11 -1 2 -9 12 -16 22 -12 15 -12 17 3 11 9 -3 16
-13 16 -22z m1711 -10 c3 -17 3 -32 -2 -32 -5 0 -9 14 -9 31 0 16 -4 28 -9 24
-5 -3 -13 0 -16 6 -5 7 -1 10 11 7 11 -2 21 -15 25 -36z m116 6 c-3 -8 -6 -5
-6 6 -1 11 2 17 5 13 3 -3 4 -12 1 -19z m-1800 -42 c-7 -18 -47 -22 -47 -5 0
5 8 21 18 34 16 22 17 22 26 5 5 -10 6 -26 3 -34z m1863 3 c0 -5 -4 -9 -10 -9
-5 0 -10 7 -10 16 0 8 5 12 10 9 6 -3 10 -10 10 -16z m378 -34 c-3 -3 -9 2
-12 12 -6 14 -5 15 5 6 7 -7 10 -15 7 -18z m-358 0 c0 -8 -2 -15 -4 -15 -2 0
-6 7 -10 15 -3 8 -1 15 4 15 6 0 10 -7 10 -15z m-1880 -2 c0 -5 -5 -15 -10
-23 -8 -12 -10 -11 -10 8 0 12 5 22 10 22 6 0 10 -3 10 -7z m-60 -117 c0 -3
-4 -8 -10 -11 -5 -3 -10 -1 -10 4 0 6 5 11 10 11 6 0 10 -2 10 -4z"/>
<path d="M1274 2209 c-3 -6 -2 -15 3 -20 5 -5 9 -1 9 11 0 23 -2 24 -12 9z"/>
<path d="M2371 2184 c0 -11 3 -14 6 -6 3 7 2 16 -1 19 -3 4 -6 -2 -5 -13z"/>
<path d="M1045 2150 c4 -6 11 -8 16 -5 14 9 11 15 -7 15 -8 0 -12 -5 -9 -10z"/>
<path d="M1220 2145 c0 -8 5 -15 10 -15 6 0 10 7 10 15 0 8 -4 15 -10 15 -5 0
-10 -7 -10 -15z"/>
<path d="M2736 2131 c-4 -5 3 -7 14 -4 23 6 26 13 6 13 -8 0 -17 -4 -20 -9z"/>
<path d="M1398 2103 c7 -3 16 -2 19 1 4 3 -2 6 -13 5 -11 0 -14 -3 -6 -6z"/>
<path d="M1755 2070 c-15 -16 -25 -34 -22 -42 4 -9 6 -10 6 0 1 13 71 18 71 4
0 -4 9 -13 20 -20 18 -11 20 -10 20 8 0 11 -10 28 -21 38 -12 9 -27 22 -34 29
-10 9 -18 6 -40 -17z"/>
<path d="M1474 2060 c3 -14 6 -28 6 -32 0 -5 7 -8 15 -8 9 0 12 6 8 16 -5 13
1 15 35 13 45 -3 65 7 42 21 -8 5 -21 5 -31 -1 -21 -11 -61 -8 -72 6 -5 6 -6
-1 -3 -15z"/>
<path d="M1605 2070 c-3 -4 -2 -15 1 -24 6 -15 20 -20 52 -19 6 1 12 -6 12
-14 0 -8 5 -11 11 -8 6 4 8 13 5 21 -4 9 2 14 17 14 22 1 22 1 2 12 -33 20
-92 30 -100 18z"/>
<path d="M1520 2029 c0 -5 5 -7 10 -4 6 3 10 8 10 11 0 2 -4 4 -10 4 -5 0 -10
-5 -10 -11z"/>
<path d="M1857 2007 c-3 -9 1 -29 9 -44 l16 -28 -6 27 c-5 22 -3 26 9 22 11
-5 13 -2 9 10 -3 9 -10 14 -14 11 -5 -3 -10 0 -12 7 -3 8 -7 6 -11 -5z"/>
<path d="M1355 2000 c4 -6 11 -8 16 -5 14 9 11 15 -7 15 -8 0 -12 -5 -9 -10z"/>
<path d="M1600 1996 c7 -7 13 -7 20 0 6 6 3 10 -10 10 -13 0 -16 -4 -10 -10z"/>
<path d="M1770 1998 c0 -5 5 -6 10 -3 6 3 10 -2 10 -13 0 -10 7 -19 15 -19 8
0 15 4 15 9 0 4 -4 8 -10 8 -5 0 -10 4 -10 10 0 5 7 6 17 3 10 -4 14 -2 10 4
-8 13 -57 14 -57 1z"/>
<path d="M2463 2003 c-9 -3 -10 -10 -3 -23 7 -13 7 -21 0 -25 -6 -4 -8 -11 -4
-16 3 -6 14 5 24 23 23 42 17 55 -17 41z"/>
<path d="M1552 1970 c14 -22 24 -19 15 5 -4 8 -11 15 -17 15 -6 0 -6 -7 2 -20z"/>
<path d="M1763 1960 c1 -11 5 -20 9 -20 4 0 8 9 8 20 0 11 -4 20 -9 20 -6 0
-9 -9 -8 -20z"/>
<path d="M1827 1966 c-4 -10 -5 -21 -2 -24 9 -9 17 6 13 25 -3 17 -4 17 -11
-1z"/>
<path d="M2270 1970 c0 -5 7 -10 15 -10 8 0 15 5 15 10 0 6 -7 10 -15 10 -8 0
-15 -4 -15 -10z"/>
<path d="M2335 1960 c3 -5 8 -10 11 -10 2 0 4 5 4 10 0 6 -5 10 -11 10 -5 0
-7 -4 -4 -10z"/>
<path d="M1890 1925 c-17 -18 -20 -28 -12 -37 5 -7 12 -24 14 -37 4 -32 28
-40 27 -9 0 13 3 36 7 52 5 22 4 27 -6 21 -10 -6 -12 -3 -8 13 8 28 7 27 -22
-3z"/>
<path d="M2690 1930 c0 -5 5 -10 10 -10 6 0 10 5 10 10 0 6 -4 10 -10 10 -5 0
-10 -4 -10 -10z"/>
<path d="M1693 1910 c-1 -11 2 -22 8 -25 5 -4 9 5 9 19 0 30 -15 35 -17 6z"/>
<path d="M2350 1920 c-13 -9 -13 -10 0 -9 8 0 24 4 35 9 l20 9 -20 0 c-11 0
-27 -4 -35 -9z"/>
<path d="M1575 1910 c3 -5 8 -10 11 -10 2 0 4 5 4 10 0 6 -5 10 -11 10 -5 0
-7 -4 -4 -10z"/>
<path d="M1458 1903 c7 -3 16 -2 19 1 4 3 -2 6 -13 5 -11 0 -14 -3 -6 -6z"/>
<path d="M1506 1895 c4 -8 1 -15 -7 -15 -7 0 -9 -3 -6 -6 8 -8 37 14 37 27 0
5 -7 9 -15 9 -9 0 -12 -6 -9 -15z"/>
<path d="M2030 1894 c0 -8 5 -12 10 -9 6 3 10 10 10 16 0 5 -4 9 -10 9 -5 0
-10 -7 -10 -16z"/>
<path d="M2090 1849 c0 -5 10 -9 22 -9 12 0 18 3 14 7 -10 11 -36 12 -36 2z"/>
<path d="M1826 1839 c4 -8 -1 -9 -17 -4 -17 5 -13 -1 14 -19 43 -29 64 -33 64
-11 0 8 -6 15 -14 15 -7 0 -16 7 -19 15 -4 8 -13 15 -21 15 -8 0 -11 -5 -7
-11z"/>
<path d="M1706 1822 c-2 -4 -1 -14 5 -22 7 -12 9 -10 9 8 0 23 -5 28 -14 14z"/>
<path d="M1540 1800 c0 -5 5 -10 11 -10 5 0 7 5 4 10 -3 6 -8 10 -11 10 -2 0
-4 -4 -4 -10z"/>
<path d="M1756 1758 c23 -28 37 -38 43 -33 8 9 -30 55 -46 55 -14 0 -14 -3 3
-22z"/>
<path d="M2242 1765 c-10 -12 -10 -19 0 -35 13 -21 48 -28 48 -9 0 5 -5 7 -11
3 -6 -3 -10 1 -9 12 5 46 -4 55 -28 29z"/>
<path d="M1820 1690 c0 -5 5 -10 11 -10 5 0 7 5 4 10 -3 6 -8 10 -11 10 -2 0
-4 -4 -4 -10z"/>
<path d="M1910 1610 c0 -6 7 -13 15 -17 24 -9 27 1 5 15 -13 8 -20 8 -20 2z"/>
<path d="M2175 2100 c3 -5 8 -10 11 -10 2 0 4 5 4 10 0 6 -5 10 -11 10 -5 0
-7 -4 -4 -10z"/>
<path d="M651 1476 c-7 -8 -20 -12 -30 -9 -11 3 -21 -2 -25 -13 -4 -10 -4 -15
0 -11 4 4 13 2 21 -4 10 -9 13 -8 13 2 0 11 2 11 10 -1 8 -12 10 -11 10 8 0
13 6 22 15 22 8 0 15 5 15 10 0 14 -16 12 -29 -4z"/>
<path d="M330 1445 c0 -9 5 -15 11 -13 6 2 11 8 11 13 0 5 -5 11 -11 13 -6 2
-11 -4 -11 -13z"/>
<path d="M606 1400 c8 -30 26 -43 36 -27 6 9 8 9 8 0 0 -7 5 -13 10 -13 6 0
10 10 10 21 0 17 -5 20 -21 16 -17 -5 -18 -3 -7 10 12 14 11 15 -9 5 -16 -9
-23 -9 -27 1 -3 6 -3 1 0 -13z"/>
<path d="M366 1395 c4 -8 8 -15 10 -15 2 0 4 7 4 15 0 8 -4 15 -10 15 -5 0 -7
-7 -4 -15z"/>
<path d="M523 1338 c-2 -18 0 -20 7 -8 12 18 13 30 2 30 -4 0 -9 -10 -9 -22z"/>
<path d="M527 1268 c-8 -29 -4 -32 11 -8 6 10 8 21 3 24 -5 3 -11 -4 -14 -16z"/>
<path d="M1005 1120 c3 -5 8 -10 11 -10 2 0 4 5 4 10 0 6 -5 10 -11 10 -5 0
-7 -4 -4 -10z"/>
<path d="M1070 1104 c0 -8 5 -12 10 -9 6 3 10 10 10 16 0 5 -4 9 -10 9 -5 0
-10 -7 -10 -16z"/>
<path d="M703 1095 c-10 -11 -10 -20 -1 -42 6 -15 11 -41 10 -56 0 -18 4 -27
11 -24 7 2 11 11 11 20 -1 10 4 13 13 10 9 -4 16 2 20 16 3 11 9 21 15 21 5 0
3 10 -4 23 -12 21 -13 21 -19 -13 -6 -31 -7 -32 -8 -7 -1 17 -7 27 -17 27 -11
0 -14 6 -9 20 7 23 -4 26 -22 5z"/>
<path d="M1036 1088 c3 -4 -2 -8 -10 -8 -20 0 -20 -14 -1 -30 12 -10 16 -9 21
6 12 38 12 41 -2 41 -7 0 -11 -4 -8 -9z"/>
<path d="M810 1058 c0 -13 5 -30 11 -38 9 -12 10 -11 6 8 -3 13 0 22 6 22 7 0
7 4 -2 9 -11 7 -10 10 5 14 16 4 16 5 -3 6 -18 1 -23 -4 -23 -21z"/>
<path d="M935 1070 c-3 -5 -2 -10 4 -10 5 0 13 5 16 10 3 6 2 10 -4 10 -5 0
-13 -4 -16 -10z"/>
<path d="M1080 1070 c0 -5 5 -10 10 -10 6 0 10 5 10 10 0 6 -4 10 -10 10 -5 0
-10 -4 -10 -10z"/>
<path d="M886 1045 c-4 -16 -11 -23 -18 -19 -7 4 -8 3 -4 -5 6 -8 15 -4 32 14
28 30 29 35 10 35 -8 0 -17 -11 -20 -25z"/>
<path d="M780 1000 c0 -5 5 -10 10 -10 6 0 10 5 10 10 0 6 -4 10 -10 10 -5 0
-10 -4 -10 -10z"/>
<path d="M832 980 c0 -14 2 -19 5 -12 2 6 2 18 0 25 -3 6 -5 1 -5 -13z"/>
<path d="M2290 1264 c0 -12 7 -24 15 -28 19 -7 19 5 0 30 -14 19 -14 19 -15
-2z"/>
<path d="M2561 1164 c0 -11 3 -14 6 -6 3 7 2 16 -1 19 -3 4 -6 -2 -5 -13z"/>
<path d="M1335 750 c-3 -5 -1 -10 4 -10 6 0 11 5 11 10 0 6 -2 10 -4 10 -3 0
-8 -4 -11 -10z"/>
<path d="M1080 710 c-7 -17 -10 -33 -6 -37 3 -3 6 2 6 12 0 14 3 15 15 5 13
-11 15 -8 15 13 0 38 -16 41 -30 7z"/>
<path d="M506 655 c-3 -8 -1 -25 4 -37 8 -20 9 -18 9 15 1 39 -3 47 -13 22z"/>
<path d="M186 3193 c12 -2 24 -13 27 -25 3 -11 10 -17 16 -14 5 4 12 2 16 -4
8 -13 45 10 45 28 0 9 6 12 15 8 8 -3 15 -1 15 4 0 6 -33 9 -77 9 -43 -1 -68
-4 -57 -6z"/>
<path d="M330 3190 c0 -5 7 -10 15 -10 8 0 15 5 15 10 0 6 -7 10 -15 10 -8 0
-15 -4 -15 -10z"/>
<path d="M957 3168 c3 -18 13 -38 22 -45 19 -15 34 -17 26 -3 -3 6 -1 10 4 10
19 0 12 20 -15 45 -36 33 -45 31 -37 -7z"/>
<path d="M1230 3186 c0 -9 5 -16 10 -16 6 0 10 4 10 9 0 6 -4 13 -10 16 -5 3
-10 -1 -10 -9z"/>
<path d="M1270 3174 c0 -15 4 -23 11 -19 6 4 8 14 5 22 -3 8 -1 11 4 8 6 -3
10 -1 10 4 0 6 -7 11 -15 11 -9 0 -15 -10 -15 -26z"/>
<path d="M1340 3180 c0 -11 4 -20 9 -20 5 0 7 9 4 20 -3 11 -7 20 -9 20 -2 0
-4 -9 -4 -20z"/>
<path d="M1408 3193 c26 -5 24 -29 -1 -27 -15 2 -15 -1 -1 -27 8 -17 23 -29
34 -29 12 0 22 -9 25 -22 5 -19 13 -23 43 -23 29 0 37 4 36 18 -2 24 8 21 41
-13 32 -34 47 -37 65 -15 10 12 9 16 -4 21 -12 5 -16 20 -16 65 l0 59 -122 -1
c-68 -1 -113 -4 -100 -6z m187 -53 c-3 -5 -10 -10 -16 -10 -5 0 -9 5 -9 10 0
6 7 10 16 10 8 0 12 -4 9 -10z m-134 -18 c-7 -2 -18 1 -23 6 -8 8 -4 9 13 5
13 -4 18 -8 10 -11z"/>
<path d="M1778 3178 c12 -13 31 -34 41 -48 15 -19 22 -22 31 -13 18 17 -37 83
-70 83 l-25 0 23 -22z"/>
<path d="M1316 3179 c3 -6 0 -15 -7 -20 -11 -7 -10 -9 4 -9 10 0 17 8 17 20 0
11 -5 20 -11 20 -5 0 -7 -5 -3 -11z"/>
<path d="M2275 3170 c3 -5 8 -10 11 -10 2 0 4 5 4 10 0 6 -5 10 -11 10 -5 0
-7 -4 -4 -10z"/>
<path d="M468 3133 c7 -3 16 -2 19 1 4 3 -2 6 -13 5 -11 0 -14 -3 -6 -6z"/>
<path d="M1319 3128 c-8 -7 -12 -12 -10 -11 2 2 10 -2 18 -8 10 -9 13 -7 13
10 0 25 -1 25 -21 9z"/>
<path d="M1060 3119 c0 -5 5 -7 10 -4 6 3 10 8 10 11 0 2 -4 4 -10 4 -5 0 -10
-5 -10 -11z"/>
<path d="M1935 3100 c-3 -5 -1 -10 4 -10 6 0 11 5 11 10 0 6 -2 10 -4 10 -3 0
-8 -4 -11 -10z"/>
<path d="M1118 3084 c-10 -3 -18 -10 -18 -16 0 -6 -13 -8 -34 -4 -39 7 -53 -5
-32 -27 8 -8 13 -17 10 -20 -3 -2 17 -3 43 0 38 4 45 2 33 -7 -12 -9 -9 -10
13 -5 38 8 67 -2 60 -21 -7 -19 2 -18 23 3 15 16 18 15 36 -10 11 -15 29 -27
41 -27 20 1 20 2 -5 17 -29 18 -45 43 -27 43 5 0 12 -7 15 -15 4 -10 20 -15
47 -15 23 0 48 -7 58 -16 16 -15 17 -14 12 6 -5 20 -4 21 16 11 12 -7 21 -8
21 -2 0 12 -14 21 -42 26 -12 3 -25 10 -29 16 -4 6 -25 13 -47 14 -22 1 -53
12 -69 23 -31 22 -94 35 -125 26z"/>
<path d="M2020 3075 c0 -8 2 -15 4 -15 2 0 12 -3 21 -7 15 -5 16 -3 6 15 -13
25 -31 29 -31 7z"/>
<path d="M1870 3061 c0 -21 22 -67 41 -84 10 -10 19 -23 18 -30 0 -9 -2 -9 -6
1 -2 6 -11 12 -19 12 -8 0 -11 -6 -8 -15 4 -8 1 -15 -5 -15 -6 0 -11 4 -11 9
0 5 -7 12 -16 15 -11 4 -15 2 -11 -6 3 -10 -11 -12 -60 -10 -49 2 -69 8 -85
24 -15 15 -22 17 -28 8 -4 -7 -19 -9 -36 -6 -52 9 -74 18 -68 27 3 5 10 7 15
4 15 -10 10 5 -9 25 -12 13 -25 17 -42 13 -24 -6 -24 -6 -2 -14 34 -13 28 -39
-8 -39 -16 0 -30 -4 -30 -10 0 -9 53 -15 63 -7 2 1 11 -4 20 -12 10 -7 17 -10
17 -7 0 4 7 0 16 -9 9 -8 13 -22 10 -30 -3 -9 1 -15 10 -15 9 0 12 -5 8 -12
-5 -7 -3 -8 5 -3 9 5 10 10 2 18 -6 6 -11 20 -11 31 0 19 1 19 20 -2 11 -12
20 -26 20 -31 0 -5 11 -18 25 -29 15 -12 21 -22 13 -24 -6 -2 -8 -10 -4 -16 5
-9 16 -2 35 22 16 20 31 33 35 29 3 -3 6 3 6 14 0 19 3 20 43 10 23 -5 48 -14
55 -20 8 -6 12 -5 12 3 0 10 3 10 14 1 11 -9 15 -9 18 0 3 8 9 7 20 -4 8 -9
18 -14 21 -11 9 9 112 -32 115 -46 4 -18 33 -39 52 -40 13 0 13 1 0 10 -14 9
-7 15 14 11 5 -1 4 5 -4 13 -7 9 -9 16 -5 16 14 0 65 -42 65 -54 0 -7 16 -13
37 -14 46 -3 52 -8 46 -30 -3 -14 4 -22 26 -32 19 -7 31 -20 31 -31 0 -10 4
-20 9 -23 4 -3 6 6 3 19 -2 15 0 25 7 25 6 0 11 -4 11 -9 0 -5 8 -12 18 -16
14 -5 15 -4 5 6 -18 18 -16 30 2 23 8 -4 15 -1 15 5 0 6 -11 11 -24 11 -17 0
-23 5 -22 18 0 9 -5 16 -11 14 -7 -1 -13 2 -13 8 0 5 -6 7 -14 4 -11 -4 -13 0
-9 16 3 13 11 19 19 16 19 -7 18 9 -2 28 -8 9 -12 20 -9 26 3 5 1 10 -4 10 -6
0 -11 -5 -11 -11 0 -7 -10 -9 -27 -5 -16 4 -50 8 -76 10 -29 1 -52 8 -58 17
-6 9 -9 10 -9 2 0 -13 -3 -12 -55 8 -16 7 -43 14 -60 15 -74 9 -80 11 -82 30
-4 41 -12 63 -32 83 -12 12 -21 32 -21 46 0 16 -6 25 -15 25 -8 0 -15 -4 -15
-9z m-147 -127 c54 -28 60 -35 40 -50 -10 -7 -21 -14 -24 -14 -14 0 -70 60
-64 69 8 14 10 14 48 -5z m202 -24 c3 -6 -1 -7 -9 -4 -18 7 -21 14 -7 14 6 0
13 -4 16 -10z m305 -100 c0 -5 -2 -10 -4 -10 -3 0 -8 5 -11 10 -3 6 -1 10 4
10 6 0 11 -4 11 -10z m69 1 c8 -5 9 -11 3 -15 -6 -3 -13 -2 -17 3 -3 6 -13 7
-22 4 -11 -4 -14 -3 -9 5 8 14 26 15 45 3z"/>
<path d="M1615 3020 c4 -6 11 -8 16 -5 14 9 11 15 -7 15 -8 0 -12 -5 -9 -10z"/>
<path d="M1065 3000 c-3 -5 -3 -10 2 -10 4 0 28 -18 52 -39 25 -23 50 -37 59
-34 8 3 18 0 22 -7 4 -7 22 -13 39 -12 32 1 49 -12 31 -23 -5 -3 -10 -1 -10 5
0 19 -17 2 -23 -22 -2 -13 -8 -31 -12 -40 -5 -12 -3 -18 6 -18 7 0 21 -8 31
-17 14 -13 23 -15 36 -7 22 14 27 92 6 113 -8 9 -21 25 -29 36 -13 17 -16 18
-25 5 -6 -10 -10 -11 -10 -2 0 6 -5 12 -11 12 -6 0 -9 -7 -5 -15 3 -8 1 -15
-4 -15 -6 0 -10 11 -10 24 0 18 -8 27 -32 35 l-33 11 24 -20 c18 -15 19 -20 7
-20 -9 0 -16 5 -16 11 0 5 -5 7 -10 4 -6 -4 -10 -3 -9 2 3 19 -2 33 -12 33 -5
0 -7 -6 -3 -12 4 -7 -4 -3 -18 10 -27 25 -34 27 -43 12z"/>
<path d="M2322 2998 c3 -7 13 -15 24 -17 16 -3 17 -1 5 13 -16 19 -34 21 -29
4z"/>
<path d="M2441 2984 c0 -11 3 -14 6 -6 3 7 2 16 -1 19 -3 4 -6 -2 -5 -13z"/>
<path d="M2788 2986 c-9 -9 -24 -16 -32 -16 -13 0 -14 -4 -4 -26 11 -24 12
-25 19 -5 5 13 21 22 43 27 20 3 33 11 30 16 -3 5 -12 7 -19 4 -8 -3 -15 0
-17 6 -2 6 -10 4 -20 -6z"/>
<path d="M1440 2980 c0 -5 4 -10 9 -10 6 0 13 5 16 10 3 6 -1 10 -9 10 -9 0
-16 -4 -16 -10z"/>
<path d="M2910 2976 c0 -2 11 -6 25 -8 14 -3 25 -1 25 3 0 5 -11 9 -25 9 -14
0 -25 -2 -25 -4z"/>
<path d="M1220 2960 c0 -5 7 -10 16 -10 8 0 12 5 9 10 -3 6 -10 10 -16 10 -5
0 -9 -4 -9 -10z"/>
<path d="M2327 2949 c6 -23 9 -24 16 -5 3 8 0 17 -7 19 -10 4 -12 -1 -9 -14z"/>
<path d="M2990 2960 c19 -13 30 -13 30 0 0 6 -10 10 -22 10 -19 0 -20 -2 -8
-10z"/>
<path d="M1040 2939 c0 -11 7 -19 18 -20 13 0 12 -3 -5 -11 -29 -14 -29 -28 1
-50 30 -22 35 -11 27 52 -4 33 -11 45 -23 46 -11 1 -18 -5 -18 -17z"/>
<path d="M2150 2952 c0 -13 35 -42 50 -42 9 0 5 9 -10 25 -24 25 -40 32 -40
17z"/>
<path d="M1490 2942 c0 -5 27 -32 32 -32 2 0 4 9 5 19 1 14 -4 19 -18 18 -10
-1 -19 -3 -19 -5z"/>
<path d="M2440 2925 c0 -1 11 -10 25 -19 23 -15 25 -15 25 1 0 12 -8 18 -25
19 -14 1 -25 1 -25 -1z"/>
<path d="M3080 2915 c0 -8 7 -15 15 -15 8 0 15 7 15 15 0 8 -7 15 -15 15 -8 0
-15 -7 -15 -15z"/>
<path d="M1305 2910 c3 -5 10 -10 16 -10 5 0 9 5 9 10 0 6 -7 10 -16 10 -8 0
-12 -4 -9 -10z"/>
<path d="M3132 2912 c-9 -6 -5 -12 13 -20 22 -10 29 -9 43 4 15 15 14 16 -6
10 -13 -5 -22 -3 -22 3 0 13 -10 14 -28 3z"/>
<path d="M3030 2896 c0 -6 9 -12 20 -13 11 -1 20 2 20 6 0 5 -9 11 -20 14 -12
3 -20 0 -20 -7z"/>
<path d="M1820 2865 c0 -8 -4 -15 -10 -15 -5 0 -10 -4 -10 -10 0 -14 27 -12
33 3 4 9 8 8 16 -3 14 -19 14 -5 1 21 -13 23 -30 25 -30 4z"/>
<path d="M1542 2861 c2 -7 7 -12 11 -12 12 1 9 15 -3 20 -7 2 -11 -2 -8 -8z"/>
<path d="M1506 2848 c3 -4 9 -8 15 -8 5 0 9 4 9 8 0 5 -7 9 -15 9 -8 0 -12 -4
-9 -9z"/>
<path d="M1650 2850 c0 -5 5 -10 10 -10 6 0 10 5 10 10 0 6 -4 10 -10 10 -5 0
-10 -4 -10 -10z"/>
<path d="M1990 2843 c8 -3 7 -9 -1 -19 -8 -10 -9 -18 -2 -25 6 -6 10 -5 10 3
0 7 2 19 4 27 2 7 -2 15 -9 17 -7 1 -8 0 -2 -3z"/>
<path d="M1776 2825 c4 -8 8 -15 10 -15 2 0 4 7 4 15 0 8 -4 15 -10 15 -5 0
-7 -7 -4 -15z"/>
<path d="M1950 2829 c0 -5 5 -7 10 -4 6 3 10 8 10 11 0 2 -4 4 -10 4 -5 0 -10
-5 -10 -11z"/>
<path d="M2785 2830 c-3 -5 -1 -10 4 -10 6 0 11 5 11 10 0 6 -2 10 -4 10 -3 0
-8 -4 -11 -10z"/>
<path d="M1093 2818 c4 -10 2 -18 -3 -18 -6 0 -10 -5 -10 -12 0 -8 6 -6 17 5
14 14 15 19 4 29 -11 11 -13 10 -8 -4z"/>
<path d="M1870 2820 c0 -5 4 -10 10 -10 5 0 7 -7 4 -15 -9 -23 3 -45 21 -38
12 4 13 8 5 13 -7 4 -10 14 -8 21 3 8 -1 19 -8 26 -15 16 -24 17 -24 3z"/>
<path d="M2400 2790 c14 -11 33 -20 43 -20 10 0 29 -7 42 -16 23 -15 25 -15
25 1 0 41 -18 54 -77 54 l-58 0 25 -19z"/>
<path d="M1974 2737 c1 -35 3 -42 10 -28 5 11 4 31 -1 48 -9 25 -10 23 -9 -20z"/>
<path d="M2125 2760 c-3 -5 1 -10 9 -10 9 0 16 5 16 10 0 6 -4 10 -9 10 -6 0
-13 -4 -16 -10z"/>
<path d="M2380 2759 c0 -5 5 -7 10 -4 6 3 10 8 10 11 0 2 -4 4 -10 4 -5 0 -10
-5 -10 -11z"/>
<path d="M2070 2745 c0 -8 -7 -15 -15 -15 -8 0 -15 5 -15 12 0 6 -3 8 -7 4
-16 -16 -7 -51 15 -63 32 -17 51 2 44 45 -4 32 -22 45 -22 17z m0 -35 c0 -5
-2 -10 -4 -10 -3 0 -8 5 -11 10 -3 6 -1 10 4 10 6 0 11 -4 11 -10z"/>
<path d="M2410 2750 c0 -5 7 -10 15 -10 8 0 15 5 15 10 0 6 -7 10 -15 10 -8 0
-15 -4 -15 -10z"/>
<path d="M1570 2740 c0 -5 5 -10 10 -10 6 0 10 5 10 10 0 6 -4 10 -10 10 -5 0
-10 -4 -10 -10z"/>
<path d="M2475 2720 c3 -5 8 -10 11 -10 2 0 4 5 4 10 0 6 -5 10 -11 10 -5 0
-7 -4 -4 -10z"/>
<path d="M1430 2700 c0 -5 5 -10 10 -10 6 0 10 5 10 10 0 6 -4 10 -10 10 -5 0
-10 -4 -10 -10z"/>
<path d="M2461 2687 c18 -14 33 -47 30 -66 -2 -8 5 -6 19 6 12 12 18 26 14 36
-8 22 -24 22 -25 0 0 -12 -4 -8 -11 10 -5 15 -17 27 -26 27 -15 -1 -15 -2 -1
-13z"/>
<path d="M2700 2686 c0 -2 7 -6 15 -10 8 -3 15 -1 15 4 0 6 -7 10 -15 10 -8 0
-15 -2 -15 -4z"/>
<path d="M2125 2600 c4 -6 11 -8 16 -5 14 9 11 15 -7 15 -8 0 -12 -5 -9 -10z"/>
<path d="M3000 2565 c0 -31 -6 -31 -31 -2 -20 24 -26 8 -7 -22 17 -28 48 -15
48 20 0 16 -2 29 -5 29 -3 0 -5 -11 -5 -25z"/>
<path d="M2905 2550 c-3 -5 1 -10 10 -10 9 0 13 5 10 10 -3 6 -8 10 -10 10 -2
0 -7 -4 -10 -10z"/>
<path d="M4 2168 c1 -45 4 -53 21 -54 42 -2 47 -4 41 -19 -3 -9 0 -15 9 -15 8
0 12 6 9 13 -6 16 25 19 44 4 8 -6 17 -5 29 4 9 8 14 9 10 3 -4 -7 3 -14 18
-16 15 -3 25 -1 25 6 0 8 2 8 8 0 9 -14 52 -11 62 5 5 10 9 9 13 -2 4 -12 18
-15 52 -13 25 1 41 -1 34 -4 -7 -5 -5 -9 6 -13 9 -4 13 -3 10 2 -10 17 11 20
39 6 15 -8 35 -16 44 -17 9 -2 20 -7 24 -13 4 -5 8 0 8 12 0 17 -5 21 -24 19
-21 -3 -24 1 -22 26 1 16 -4 34 -13 41 -12 10 -14 8 -9 -11 5 -18 4 -21 -7
-12 -7 6 -11 19 -8 30 3 13 0 18 -11 16 -24 -3 -32 -16 -16 -26 11 -7 12 -12
4 -20 -9 -9 -14 -9 -18 -1 -4 6 -18 11 -31 11 -13 0 -27 5 -31 11 -3 6 -19 9
-35 5 -19 -4 -29 -1 -29 7 0 8 -3 8 -9 -2 -5 -8 -11 -9 -15 -3 -9 14 -46 3
-46 -15 0 -9 -5 -11 -12 -6 -7 4 -24 9 -38 9 -44 2 -50 4 -50 15 0 8 4 8 13 0
11 -8 17 -5 27 13 7 13 10 30 7 38 -3 7 -6 3 -6 -10 -1 -13 -5 -20 -11 -17
-14 9 -52 -4 -45 -16 4 -5 0 -9 -9 -9 -8 0 -16 -6 -19 -12 -2 -8 -8 -9 -13 -4
-5 5 -4 11 3 13 19 7 16 23 -4 23 -15 0 -14 2 3 15 17 13 17 14 2 15 -10 0
-18 5 -18 10 0 6 -4 10 -9 10 -5 0 -8 -24 -7 -52z"/>
<path d="M350 2209 c0 -4 11 -6 25 -6 14 0 25 3 25 8 0 5 -11 8 -25 7 -14 -1
-25 -5 -25 -9z"/>
<path d="M156 2195 c-3 -8 -1 -15 4 -15 6 0 10 7 10 15 0 8 -2 15 -4 15 -2 0
-6 -7 -10 -15z"/>
<path d="M191 2194 c0 -11 3 -14 6 -6 3 7 2 16 -1 19 -3 4 -6 -2 -5 -13z"/>
<path d="M461 2163 c0 -12 2 -13 6 -5 4 10 8 10 21 0 15 -12 16 -11 3 5 -7 9
-17 17 -22 17 -5 0 -9 -8 -8 -17z"/>
<path d="M106 2091 c-4 -7 -5 -15 -2 -18 9 -9 19 4 14 18 -4 11 -6 11 -12 0z"/>
<path d="M618 2083 c7 -3 16 -2 19 1 4 3 -2 6 -13 5 -11 0 -14 -3 -6 -6z"/>
<path d="M575 2060 c3 -5 8 -10 11 -10 2 0 4 5 4 10 0 6 -5 10 -11 10 -5 0 -7
-4 -4 -10z"/>
<path d="M3030 2050 c0 -5 4 -10 9 -10 6 0 13 5 16 10 3 6 -1 10 -9 10 -9 0
-16 -4 -16 -10z"/>
<path d="M2930 2043 c1 -14 27 -43 33 -37 7 7 -14 44 -25 44 -5 0 -8 -3 -8 -7z"/>
<path d="M3132 2030 c0 -14 2 -19 5 -12 2 6 2 18 0 25 -3 6 -5 1 -5 -13z"/>
<path d="M3183 2043 c-7 -2 -13 -18 -13 -35 l0 -29 -57 2 c-32 1 -66 6 -75 11
-13 6 -18 5 -18 -6 0 -7 7 -16 15 -20 8 -3 15 -12 15 -20 0 -7 -7 -16 -15 -20
-10 -4 -15 1 -15 15 0 16 -2 18 -14 7 -19 -18 4 -34 52 -35 21 -1 29 1 19 4
-11 3 -16 10 -13 20 3 8 6 19 6 24 0 5 4 9 9 9 5 0 7 -10 4 -22 -3 -13 -2 -20
2 -16 4 4 14 0 21 -10 7 -9 16 -14 19 -10 4 4 0 14 -9 23 -9 9 -16 21 -16 26
0 10 43 3 72 -12 27 -14 29 -11 26 46 -2 30 -3 55 -3 54 0 0 -6 -3 -12 -6z"/>
<path d="M2977 1987 c4 -6 0 -8 -10 -4 -10 3 -17 2 -17 -2 0 -5 6 -11 13 -14
10 -4 10 -7 0 -18 -16 -16 -17 -29 -2 -29 5 0 7 5 4 10 -3 6 1 13 10 16 9 4
14 13 10 21 -4 11 -1 13 11 9 9 -4 14 -1 12 6 -2 6 -12 12 -21 14 -10 1 -14
-2 -10 -9z"/>
<path d="M3141 1937 c0 -7 4 -20 7 -30 7 -16 8 -16 23 1 14 17 14 19 -8 29
-17 8 -23 8 -22 0z"/>
<path d="M3191 1894 c0 -11 3 -14 6 -6 3 7 2 16 -1 19 -3 4 -6 -2 -5 -13z"/>
<path d="M2980 1865 c-7 -8 -10 -22 -6 -30 9 -25 23 -17 23 15 0 35 -1 35 -17
15z"/>
<path d="M2678 1593 c7 -3 16 -2 19 1 4 3 -2 6 -13 5 -11 0 -14 -3 -6 -6z"/>
<path d="M2880 1570 c0 -5 7 -10 16 -10 8 0 12 5 9 10 -3 6 -10 10 -16 10 -5
0 -9 -4 -9 -10z"/>
<path d="M1374 1438 c-9 -15 1 -20 36 -16 l33 3 -32 12 c-20 7 -33 8 -37 1z"/>
<path d="M3034 1414 c3 -9 6 -22 6 -30 0 -8 10 -14 25 -14 16 0 25 6 25 16 0
11 -6 14 -22 9 -19 -6 -21 -5 -10 6 18 19 15 29 -9 29 -15 0 -19 -4 -15 -16z"/>
<path d="M2885 1340 c3 -5 13 -10 21 -10 8 0 12 5 9 10 -3 6 -13 10 -21 10 -8
0 -12 -4 -9 -10z"/>
<path d="M2990 1270 c0 -5 5 -10 11 -10 5 0 7 5 4 10 -3 6 -8 10 -11 10 -2 0
-4 -4 -4 -10z"/>
<path d="M1446 1254 c-11 -27 -7 -37 9 -24 16 14 20 40 6 40 -5 0 -12 -7 -15
-16z"/>
<path d="M2977 1239 c7 -7 15 -10 18 -7 3 3 -2 9 -12 12 -14 6 -15 5 -6 -5z"/>
<path d="M2940 1202 c0 -8 6 -12 14 -9 8 3 16 2 18 -3 2 -4 10 -1 18 8 13 14
12 15 -3 9 -9 -3 -17 -3 -17 2 0 4 -7 8 -15 8 -8 0 -15 -7 -15 -15z"/>
<path d="M90 1199 c0 -5 5 -7 10 -4 6 3 10 8 10 11 0 2 -4 4 -10 4 -5 0 -10
-5 -10 -11z"/>
<path d="M2985 1160 c3 -5 8 -10 11 -10 2 0 4 5 4 10 0 6 -5 10 -11 10 -5 0
-7 -4 -4 -10z"/>
<path d="M3151 985 c-1 -16 -3 -17 -11 -5 -12 19 -24 6 -13 -14 11 -21 36 -4
30 20 -4 18 -5 18 -6 -1z"/>
<path d="M2412 901 c6 -22 16 -42 22 -44 9 -4 9 7 -3 39 -20 55 -32 58 -19 5z"/>
<path d="M3135 910 c10 -11 23 -20 28 -20 6 0 2 9 -8 20 -10 11 -23 20 -28 20
-6 0 -2 -9 8 -20z"/>
<path d="M2346 898 c7 -25 22 -38 42 -38 8 0 2 13 -15 30 -34 36 -36 37 -27 8z"/>
<path d="M2960 910 c0 -5 5 -10 11 -10 5 0 7 5 4 10 -3 6 -8 10 -11 10 -2 0
-4 -4 -4 -10z"/>
<path d="M1571 894 c0 -11 3 -14 6 -6 3 7 2 16 -1 19 -3 4 -6 -2 -5 -13z"/>
<path d="M2487 850 c-4 -16 -2 -20 10 -16 8 3 23 6 34 6 10 0 19 4 19 9 0 4
-10 8 -22 7 -13 -1 -26 2 -29 7 -3 5 -9 -1 -12 -13z"/>
<path d="M2598 843 c6 -2 18 -2 25 0 6 3 1 5 -13 5 -14 0 -19 -2 -12 -5z"/>
<path d="M2423 833 c9 -2 25 -2 35 0 9 3 1 5 -18 5 -19 0 -27 -2 -17 -5z"/>
<path d="M2370 819 c0 -5 5 -7 10 -4 6 3 10 8 10 11 0 2 -4 4 -10 4 -5 0 -10
-5 -10 -11z"/>
<path d="M2540 807 c0 -7 7 -22 15 -33 13 -16 14 -16 9 -1 -3 9 -1 17 5 17 6
0 11 5 11 11 0 8 -6 7 -17 -2 -15 -12 -16 -12 -10 4 3 9 2 17 -3 17 -6 0 -10
-6 -10 -13z"/>
<path d="M1607 803 c-4 -3 -7 -13 -7 -21 0 -18 13 -7 16 13 2 17 1 18 -9 8z"/>
<path d="M2396 797 c3 -10 9 -15 12 -12 3 3 0 11 -7 18 -10 9 -11 8 -5 -6z"/>
<path d="M2382 718 c5 -15 28 -23 28 -10 0 5 -7 13 -16 16 -10 4 -14 1 -12 -6z"/>
<path d="M2610 710 c-8 -5 -12 -12 -9 -15 4 -3 12 1 19 10 14 17 11 19 -10 5z"/>
<path d="M3181 704 c0 -11 3 -14 6 -6 3 7 2 16 -1 19 -3 4 -6 -2 -5 -13z"/>
<path d="M2252 684 c3 -17 21 -21 26 -6 1 5 -4 12 -13 16 -11 4 -15 1 -13 -10z"/>
<path d="M2106 683 c-9 -10 -7 -53 3 -53 11 0 21 49 11 55 -4 2 -10 2 -14 -2z"/>
<path d="M2210 681 c0 -6 4 -13 10 -16 6 -3 7 1 4 9 -7 18 -14 21 -14 7z"/>
<path d="M2430 680 c0 -5 -9 -10 -21 -10 -12 0 -19 -5 -17 -12 4 -11 14 -13
63 -9 8 1 15 6 15 12 0 6 -7 8 -16 5 -12 -4 -15 -2 -10 9 3 8 1 15 -4 15 -6 0
-10 -4 -10 -10z"/>
<path d="M2475 680 c3 -5 8 -10 11 -10 2 0 4 5 4 10 0 6 -5 10 -11 10 -5 0 -7
-4 -4 -10z"/>
<path d="M2072 663 c3 -12 1 -24 -5 -26 -6 -2 -4 -6 5 -9 12 -5 15 -1 13 18
-1 14 -6 28 -10 32 -4 4 -6 -3 -3 -15z"/>
<path d="M2293 660 c2 -14 8 -35 15 -47 7 -12 9 -30 6 -40 -5 -16 -4 -15 7 2
12 19 12 19 21 0 6 -14 7 -9 3 15 -3 19 -6 40 -7 47 -1 6 -7 9 -15 6 -7 -3
-17 5 -23 18 l-9 24 2 -25z"/>
<path d="M2351 664 c0 -11 3 -14 6 -6 3 7 2 16 -1 19 -3 4 -6 -2 -5 -13z"/>
<path d="M3170 660 c0 -5 7 -10 16 -10 8 0 12 5 9 10 -3 6 -10 10 -16 10 -5 0
-9 -4 -9 -10z"/>
<path d="M2496 651 c-4 -6 -4 -17 1 -23 4 -7 7 -22 6 -33 -2 -13 1 -11 8 7 11
29 -2 71 -15 49z"/>
<path d="M2409 633 c-1 -5 -2 -20 -3 -36 -2 -23 1 -26 19 -21 12 3 15 2 8 -3
-12 -9 -17 -39 -15 -87 2 -28 2 -28 27 -12 13 9 31 16 40 16 20 0 19 37 -2 58
-15 16 -16 15 -9 -12 6 -23 4 -27 -8 -23 -9 4 -16 2 -16 -3 0 -6 -5 -10 -11
-10 -6 0 -9 9 -7 20 2 12 8 20 13 20 18 -2 23 44 7 63 -8 9 -11 17 -6 17 11 0
-17 20 -28 20 -5 0 -9 -3 -9 -7z"/>
<path d="M1696 525 c-4 -10 1 -15 16 -15 17 0 18 2 8 15 -7 8 -14 15 -15 15
-2 0 -5 -7 -9 -15z"/>
<path d="M1770 388 c0 -12 7 -18 23 -17 15 0 17 2 7 6 -8 3 -18 11 -22 17 -5
7 -8 4 -8 -6z"/>
<path d="M1900 271 c0 -5 7 -11 15 -15 8 -3 15 -1 15 3 0 5 -7 11 -15 15 -8 3
-15 1 -15 -3z"/>
<path d="M1772 192 c-7 -5 -10 -16 -6 -25 7 -18 24 -23 24 -8 0 5 3 16 6 25 7
17 -3 20 -24 8z"/>
</g>
</svg>
