<?xml version="1.0" standalone="no"?>
<!DOCTYPE svg PUBLIC "-//W3C//DTD SVG 20010904//EN"
 "http://www.w3.org/TR/2001/REC-SVG-20010904/DTD/svg10.dtd">
<svg version="1.0" xmlns="http://www.w3.org/2000/svg"
 width="1080.000000pt" height="1080.000000pt" viewBox="0 0 1080.000000 1080.000000"
 preserveAspectRatio="xMidYMid meet">

<g transform="translate(0.000000,1080.000000) scale(0.100000,-0.100000)"
fill="#000000" stroke="none">
<path d="M0 10770 l0 -30 5400 0 5400 0 0 30 0 30 -5400 0 -5400 0 0 -30z"/>
<path d="M5081 10212 c-24 -2 -50 -10 -58 -18 -8 -8 -21 -14 -29 -14 -8 0 -14
-4 -14 -10 0 -5 -18 -10 -39 -10 -28 0 -54 -10 -88 -32 -26 -18 -50 -34 -53
-37 -8 -10 -113 -53 -140 -58 -14 -3 -47 -12 -73 -20 -26 -8 -54 -12 -62 -9
-21 8 -45 -3 -45 -21 0 -10 -6 -13 -16 -9 -10 4 -23 -3 -36 -19 -15 -20 -28
-25 -54 -23 -18 1 -36 -1 -40 -5 -4 -4 -1 -7 6 -7 9 0 7 -6 -6 -19 -13 -12
-23 -15 -31 -9 -8 6 -17 1 -30 -19 -10 -15 -28 -36 -40 -46 -12 -10 -25 -27
-28 -38 -4 -12 -19 -22 -36 -26 -16 -3 -29 -9 -29 -13 0 -4 -18 -26 -40 -49
-22 -23 -40 -51 -40 -61 0 -38 -43 -151 -62 -161 -10 -5 -18 -15 -18 -22 0 -8
-13 -26 -30 -42 -24 -23 -30 -37 -30 -72 0 -32 -4 -43 -15 -43 -17 0 -35 -38
-35 -75 0 -13 -6 -30 -13 -37 -8 -7 -20 -31 -26 -53 -7 -22 -19 -53 -26 -70
-21 -47 -29 -105 -16 -105 7 0 9 -5 5 -12 -4 -7 -11 -30 -15 -53 -4 -22 -11
-50 -14 -63 -6 -19 -3 -24 14 -29 14 -4 18 -9 12 -17 -15 -19 -39 -116 -31
-121 10 -6 53 30 164 135 112 107 109 104 173 156 32 26 60 50 63 53 20 24
112 92 121 89 6 -2 -16 -26 -48 -53 -101 -85 -373 -365 -411 -422 -24 -38 -51
-48 -68 -26 -12 16 -13 15 -14 -17 0 -19 -7 -44 -15 -54 -8 -11 -15 -32 -15
-47 0 -14 -9 -38 -20 -52 -13 -17 -20 -40 -20 -71 0 -35 -4 -48 -20 -56 -21
-11 -21 -11 2 -39 13 -16 29 -26 37 -23 12 4 13 -4 8 -43 -6 -38 -3 -52 10
-67 15 -16 15 -25 5 -64 -17 -63 -15 -85 13 -147 21 -45 24 -60 15 -82 -10
-26 -13 -27 -51 -21 -23 4 -54 13 -70 21 -38 20 -72 19 -240 -10 -147 -24
-192 -36 -203 -53 -10 -16 -28 -194 -22 -218 6 -24 33 -32 52 -15 15 13 299
59 308 50 2 -2 -3 -29 -11 -59 -17 -64 -13 -131 17 -252 11 -46 25 -103 30
-128 22 -92 42 -150 50 -145 4 2 19 -22 34 -55 14 -33 29 -59 34 -58 10 4 81
-32 100 -49 7 -7 21 -13 31 -13 10 0 26 -9 36 -20 11 -13 14 -20 6 -20 -8 0
-10 -7 -6 -21 6 -19 4 -21 -19 -15 -15 4 -26 2 -26 -4 0 -5 5 -10 10 -10 6 0
19 -9 30 -20 40 -40 145 -19 201 41 27 29 49 32 49 5 0 -7 9 -21 20 -31 11
-10 20 -23 20 -30 0 -7 9 -20 19 -29 18 -17 21 -16 51 11 32 29 32 30 19 69
-8 21 -16 41 -19 44 -12 12 -30 51 -30 65 0 8 -4 15 -9 15 -5 0 -14 15 -21 33
-7 17 -17 43 -22 57 -30 71 -33 85 -49 185 -22 141 -27 241 -16 303 6 34 15
62 20 62 9 0 33 -18 104 -76 17 -14 37 -39 43 -55 7 -16 16 -29 21 -29 5 0 9
-5 9 -10 0 -18 43 -70 57 -70 8 0 19 -5 26 -10 49 -42 62 -50 79 -50 10 0 18
-4 18 -10 0 -5 -4 -10 -10 -10 -5 0 -10 -6 -10 -14 0 -7 -7 -19 -15 -26 -24
-20 -18 -40 11 -40 21 0 25 -3 19 -17 -5 -10 -10 -33 -13 -51 -2 -18 -17 -46
-33 -62 -24 -23 -29 -37 -29 -74 0 -26 -4 -54 -9 -64 -21 -42 -41 -121 -41
-164 0 -27 -4 -48 -10 -48 -5 0 -10 -6 -10 -14 0 -7 -7 -19 -15 -26 -8 -7 -15
-29 -16 -49 0 -33 -1 -34 -11 -13 -6 12 -18 22 -26 22 -11 0 -13 -8 -6 -37 13
-62 8 -114 -14 -136 l-20 -20 -26 26 c-19 19 -26 37 -26 64 0 33 -5 62 -25
151 -3 12 -10 22 -16 22 -6 0 -8 -11 -4 -28 4 -20 0 -36 -15 -55 -21 -26 -21
-35 -16 -205 3 -97 9 -193 14 -212 9 -36 -6 -150 -19 -150 -4 0 -10 15 -14 33
-5 27 -17 70 -51 185 -2 6 -7 12 -11 12 -10 0 -58 -69 -58 -84 0 -13 -47 -78
-93 -126 -18 -19 -42 -50 -55 -68 -18 -28 -27 -32 -49 -28 -16 4 -42 9 -59 12
-23 5 -42 0 -72 -17 -37 -21 -56 -24 -162 -25 -121 -2 -181 -9 -191 -25 -8
-13 -50 -11 -61 4 -6 6 -11 103 -12 214 -3 200 -3 204 -31 262 -38 79 -54 161
-34 181 13 14 104 30 187 33 31 1 44 -6 83 -43 25 -25 53 -57 62 -72 21 -35
37 -41 70 -24 15 7 44 16 64 20 27 5 47 18 70 46 33 43 56 49 99 27 32 -17
127 -29 134 -17 3 5 12 7 20 3 10 -3 15 1 15 11 0 9 -19 26 -45 38 -24 12 -42
25 -39 29 2 4 -5 10 -16 14 -11 3 -33 18 -50 31 -16 14 -36 24 -44 22 -8 -2
-15 2 -15 7 -1 37 -268 9 -355 -37 -27 -14 -34 -14 -80 2 -28 10 -60 30 -71
44 -11 14 -26 26 -31 26 -6 0 -23 11 -38 25 -15 14 -34 25 -42 25 -7 0 -14 4
-14 9 0 5 -18 16 -40 25 -22 9 -40 20 -40 25 0 6 -21 13 -47 17 -57 8 -72 18
-90 62 -21 51 -10 70 46 78 43 6 49 10 68 48 63 125 83 172 83 199 0 29 43
117 58 117 4 0 27 19 52 41 57 51 94 71 145 78 31 5 40 10 40 26 0 28 -56 45
-180 57 -232 23 -282 13 -360 -69 -70 -73 -96 -124 -139 -274 -32 -115 -35
-136 -33 -240 1 -94 -3 -134 -26 -229 -20 -86 -27 -140 -27 -215 0 -121 4
-130 54 -117 20 6 36 7 36 3 0 -4 18 -14 40 -21 22 -7 38 -15 35 -18 -2 -2 7
-19 20 -37 18 -23 31 -62 45 -141 27 -143 69 -333 80 -361 7 -16 15 -20 30
-16 35 9 190 -18 190 -33 0 -20 -130 -107 -176 -118 -16 -4 -72 -28 -124 -53
-52 -25 -104 -50 -115 -55 -11 -5 -51 -32 -89 -61 -38 -29 -74 -55 -80 -58
-53 -29 -82 -42 -109 -46 -18 -2 -48 -15 -67 -28 -19 -13 -56 -33 -81 -43 -25
-11 -53 -31 -62 -46 -15 -23 -138 -89 -205 -110 -28 -9 -145 -75 -152 -85 -8
-12 -48 -32 -131 -66 -42 -17 -111 -56 -154 -86 -80 -56 -189 -155 -197 -179
-2 -7 -13 -14 -24 -15 -10 -1 -26 -4 -34 -6 -8 -2 -15 2 -16 9 -1 6 -2 16 -3
21 -1 11 -221 11 -221 0 0 -14 -27 -11 -42 4 -8 9 -35 13 -73 13 -33 -1 -71 2
-85 7 -14 5 -77 14 -142 21 -97 11 -127 19 -183 47 -71 36 -85 51 -85 97 0 19
-11 40 -34 63 -30 30 -35 43 -38 88 -2 43 0 55 16 65 14 8 20 8 23 -1 3 -7 11
-13 19 -13 8 0 40 -26 72 -57 69 -69 168 -143 191 -143 32 0 235 54 216 58
-11 2 -27 10 -35 18 -27 23 -100 44 -156 44 -54 0 -61 4 -121 57 -13 11 -43
36 -65 55 -23 18 -55 45 -72 60 -29 27 -61 38 -118 42 -31 2 -48 19 -48 49 0
9 -4 25 -9 35 -5 9 -15 31 -22 47 -7 17 -26 48 -41 71 -31 47 -78 146 -78 165
0 7 -8 22 -19 33 -17 20 -43 84 -61 155 -5 19 -18 43 -29 55 l-21 20 0 -993
c0 -984 0 -993 20 -998 27 -7 27 -49 0 -58 -16 -5 -20 -15 -20 -46 0 -43 15
-51 31 -16 15 32 62 56 127 63 31 4 74 15 94 25 22 11 58 19 88 19 56 0 110
22 110 45 0 17 -63 21 -103 6 -19 -7 -35 -5 -66 11 -38 18 -46 32 -42 66 1 6
-3 12 -9 12 -6 0 -10 8 -8 18 5 32 -9 41 -52 30 -22 -6 -46 -8 -54 -5 -19 7
-66 102 -66 132 0 31 28 92 57 123 13 14 23 31 23 38 0 31 24 64 46 64 13 0
26 -5 29 -10 8 -12 89 -50 108 -50 13 0 46 -28 74 -63 18 -23 49 -89 62 -132
21 -69 32 -87 88 -147 9 -10 20 -15 24 -12 14 8 10 -35 -5 -69 -8 -18 -25 -62
-36 -99 -15 -47 -30 -74 -48 -87 -15 -10 -54 -46 -87 -78 -33 -32 -78 -72
-100 -88 -21 -17 -59 -49 -83 -72 -24 -24 -48 -43 -53 -43 -6 0 -8 -4 -4 -9 3
-5 0 -13 -6 -17 -6 -3 -15 -1 -20 7 -14 23 -52 -19 -44 -50 5 -21 4 -23 -9
-12 -12 10 -20 9 -40 -4 l-26 -17 0 -749 0 -749 40 0 c44 0 197 -33 250 -54
54 -21 140 -46 161 -46 10 0 42 -9 71 -20 142 -54 196 -60 556 -59 347 0 388
3 652 37 85 12 193 23 240 27 47 3 130 10 185 15 55 5 130 12 167 15 37 2 73
6 80 7 16 4 24 -97 10 -115 -15 -19 -25 -70 -12 -62 7 5 9 -2 4 -22 -4 -15 -3
-25 1 -21 9 8 35 -9 35 -23 0 -5 -18 -20 -40 -34 -48 -31 -59 -51 -70 -128 -5
-33 -13 -63 -18 -66 -5 -3 -19 -27 -30 -53 -11 -27 -26 -48 -31 -48 -6 0 -11
-7 -11 -15 0 -8 -11 -25 -25 -39 -28 -28 -34 -81 -14 -119 l12 -22 -22 20
c-19 16 -24 17 -32 5 -8 -13 -10 -13 -18 0 -8 12 -11 11 -16 -5 -13 -38 -28
-65 -38 -65 -6 0 -19 8 -29 17 -17 16 -20 16 -35 0 -12 -12 -13 -17 -5 -17 7
0 10 -4 7 -10 -9 -15 -25 -12 -25 5 0 11 -11 15 -40 15 -31 0 -40 -4 -40 -17
0 -14 -3 -14 -20 4 -10 12 -28 24 -40 28 -30 9 -25 20 20 40 53 24 53 45 0 45
-22 0 -40 5 -40 10 0 6 -18 10 -40 10 -33 0 -40 -3 -40 -20 0 -17 -7 -20 -40
-20 -22 0 -40 4 -40 10 0 6 -62 9 -157 9 -102 0 -159 4 -161 10 -2 7 -64 11
-176 11 -145 0 -175 3 -196 17 -17 12 -25 13 -28 5 -2 -7 -21 -12 -43 -12
l-39 0 0 41 0 41 -57 -5 c-32 -3 -120 -11 -196 -17 -128 -10 -141 -9 -182 9
-40 18 -44 18 -48 3 -4 -14 -6 -13 -12 6 -6 19 -14 22 -56 22 -26 0 -51 -4
-54 -10 -9 -14 -35 -13 -35 2 0 6 -12 23 -28 37 -59 55 -59 59 -10 81 25 11
51 27 58 35 7 8 21 15 31 15 34 0 29 18 -11 34 -22 9 -40 21 -40 28 -1 14 -61
48 -85 48 -7 0 -23 12 -35 27 -17 22 -29 27 -68 27 l-47 1 -3 -699 -2 -699 47
6 c27 4 77 11 113 17 147 22 299 6 415 -45 l52 -23 74 25 c99 34 183 33 479
-8 74 -11 92 -10 145 5 33 10 72 26 86 37 46 33 54 26 70 -58 l14 -78 1583 -3
1582 -2 0 42 c0 52 7 64 41 70 28 5 75 -18 163 -80 l47 -32 1140 0 1141 0 -7
67 c-4 38 -15 136 -25 218 -11 83 -19 161 -19 175 1 45 -7 105 -15 118 -4 7
-27 122 -51 255 -24 133 -47 250 -50 260 -4 9 -2 24 5 32 10 12 30 -5 122
-101 62 -63 118 -114 126 -112 8 2 23 14 34 28 20 27 19 30 -42 139 -16 29
-146 160 -216 217 -67 55 -77 88 -124 394 -11 74 -23 150 -26 168 -7 45 12 49
99 24 131 -38 301 -51 572 -43 118 4 134 2 172 -17 23 -12 60 -22 81 -22 46 0
76 -19 66 -43 -3 -9 -10 -17 -15 -17 -5 0 -33 -21 -62 -47 -29 -27 -72 -65
-97 -85 -43 -35 -44 -37 -30 -63 11 -21 11 -32 2 -59 -7 -18 -12 -43 -12 -57
-1 -41 -25 -117 -43 -137 -14 -15 -15 -22 -6 -28 7 -4 20 2 31 16 10 12 18 19
18 14 0 -4 9 2 20 14 12 12 24 22 28 22 4 0 26 17 49 37 22 21 60 54 84 73 48
38 235 223 259 257 8 11 44 52 80 92 58 64 68 71 102 71 33 0 39 -4 52 -34 8
-19 21 -38 29 -42 20 -13 37 -48 37 -80 0 -20 -14 -41 -51 -76 -29 -27 -64
-55 -79 -63 -15 -8 -35 -25 -44 -39 -9 -15 -24 -26 -32 -26 -20 0 -76 -59 -68
-71 6 -11 46 8 57 27 4 8 15 14 22 14 8 0 15 5 15 11 0 11 25 9 80 -6 14 -3
56 -9 93 -12 58 -5 70 -3 81 12 7 10 18 15 25 11 8 -5 2 -18 -19 -39 -79 -83
-100 -112 -95 -132 3 -11 8 -31 11 -45 3 -14 12 -35 20 -47 8 -12 14 -33 14
-45 0 -13 22 -49 48 -80 49 -59 86 -74 111 -44 10 12 4 26 -33 72 -39 50 -44
62 -42 101 2 32 9 48 24 59 21 14 22 41 1 29 -14 -9 -11 22 5 37 7 8 17 25 21
38 4 14 24 47 44 75 20 27 47 70 61 95 31 57 59 99 88 130 34 36 48 94 34 134
-18 49 -15 63 18 83 20 12 34 30 41 55 5 21 14 38 19 38 5 0 7 9 5 20 -3 17
12 89 20 98 2 2 33 6 68 9 52 3 68 1 78 -12 8 -9 21 -23 30 -32 13 -12 15 -30
11 -91 -2 -43 -10 -87 -18 -99 -16 -26 -18 -53 -4 -53 5 0 7 -6 4 -14 -3 -8 4
-19 16 -26 18 -9 30 -7 68 11 49 23 78 26 125 14 21 -6 27 -4 27 8 0 9 8 24
19 34 21 20 41 90 22 79 -6 -4 -11 0 -11 8 0 9 4 16 8 16 5 0 15 23 22 51 8
28 20 53 26 56 7 2 16 23 19 45 5 26 10 36 15 28 5 -8 13 9 21 44 9 41 9 60 2
64 -7 5 -12 63 -15 155 -1 81 -6 147 -9 147 -3 0 -12 18 -19 40 -9 27 -19 40
-32 40 -10 0 -18 -5 -18 -10 0 -6 -9 -5 -22 2 -28 16 -36 26 -45 58 -9 33 -27
52 -40 39 -7 -7 -16 -1 -27 15 -22 35 -32 33 -46 -9 -9 -27 -9 -52 -1 -99 6
-34 11 -81 11 -104 l0 -41 -40 3 c-22 2 -40 -1 -40 -5 0 -5 -12 -9 -26 -9 -21
0 -25 3 -18 18 11 24 5 164 -9 181 -8 10 -26 11 -72 6 -144 -17 -197 -3 -218
55 -7 22 -11 77 -10 144 2 105 1 110 -22 132 -14 13 -25 32 -25 44 0 11 -3 20
-7 20 -12 0 -86 -20 -108 -29 -110 -46 -147 -50 -297 -35 -53 5 -68 10 -69 23
-1 32 -49 -85 -49 -121 0 -27 -4 -38 -15 -38 -9 0 -15 -9 -15 -24 0 -16 -7
-27 -21 -31 -11 -4 -18 -13 -15 -20 6 -16 -24 -45 -46 -45 -8 0 -26 -13 -40
-29 -13 -17 -36 -35 -51 -40 -16 -6 -27 -18 -27 -30 0 -26 -62 -36 -170 -26
-25 2 -55 4 -67 4 -26 1 -79 44 -97 80 -42 84 -21 121 70 121 65 0 114 -24
132 -65 14 -30 41 -30 57 0 22 44 42 63 91 89 29 15 60 36 69 46 10 11 24 20
31 20 7 0 18 9 24 20 6 11 19 19 28 18 12 -2 19 8 26 35 5 20 15 37 23 37 18
0 16 30 -3 51 -15 17 -15 19 0 34 9 9 16 22 16 29 0 16 52 120 62 124 20 9 4
82 -18 82 -10 0 -11 6 -5 23 12 32 24 168 12 142 -5 -11 -21 -31 -36 -45 -25
-23 -27 -23 -25 -5 1 11 2 25 1 31 -1 12 -37 27 -59 25 -15 -2 -32 40 -32 80
0 16 -6 40 -14 52 -7 12 -17 49 -20 81 -4 33 -13 64 -21 70 -8 7 -15 32 -16
63 -2 29 -6 58 -11 65 -6 10 -8 10 -8 0 0 -7 -4 -10 -10 -7 -5 3 -10 15 -10
26 0 16 -5 18 -27 13 -16 -4 -31 -12 -35 -17 -3 -6 -17 1 -31 16 -14 16 -35
27 -51 27 -14 0 -26 5 -26 11 0 7 -7 8 -17 4 -61 -25 -79 9 -44 80 38 75 85
100 168 90 91 -11 141 -80 169 -235 10 -53 19 -61 57 -45 18 7 68 18 112 25
95 14 156 29 246 63 95 36 165 44 189 22 18 -17 21 -17 57 0 21 10 49 25 63
35 46 30 170 54 170 33 0 -5 4 -14 9 -21 7 -11 16 -10 47 7 44 24 74 27 92 9
15 -15 16 -80 2 -129 -9 -31 -18 -40 -60 -58 -27 -11 -62 -21 -79 -21 -30 0
-35 7 -34 47 0 8 -5 9 -16 3 -35 -18 -240 -69 -303 -74 -36 -4 -82 -13 -101
-21 -68 -28 -178 -46 -219 -34 -42 11 -50 33 -16 42 43 12 12 14 -75 7 -107
-8 -121 -18 -111 -79 4 -26 13 -45 23 -48 9 -3 25 -14 36 -23 26 -22 62 -41
165 -86 84 -37 87 -37 225 -39 126 -2 147 -4 209 -28 96 -37 106 -45 268 -197
278 -263 299 -288 353 -425 15 -38 31 -74 36 -79 10 -11 154 12 192 31 32 16
31 12 12 173 -9 69 -13 135 -10 148 7 27 74 61 121 62 38 0 77 -29 92 -67 6
-15 16 -66 22 -113 15 -111 18 -120 42 -120 19 0 20 3 11 98 -14 165 -12 187
21 221 16 17 39 34 50 37 12 4 50 23 86 44 36 20 91 45 122 55 31 9 67 28 79
42 33 34 31 109 -4 185 -24 49 -27 69 -27 156 0 95 1 100 23 106 12 3 32 14
44 25 21 20 21 20 27 -2 3 -12 6 -33 6 -46 0 -13 11 -32 24 -42 48 -38 103
-163 121 -274 3 -22 17 -87 30 -145 13 -58 28 -136 35 -175 15 -96 31 -145 46
-145 20 0 23 12 13 60 -13 69 -40 280 -53 419 -17 184 4 294 62 318 44 18 119
22 139 7 39 -29 43 -19 43 105 l0 120 -32 -10 c-18 -5 -46 -19 -62 -30 -22
-17 -33 -19 -46 -12 -9 6 -49 19 -89 29 -115 27 -132 54 -151 231 -8 73 -8
114 0 142 11 40 66 121 103 151 23 19 17 50 -16 80 l-21 20 40 0 c29 0 35 3
24 10 -8 5 -28 10 -45 10 -39 0 -54 11 -53 35 2 68 -17 189 -33 208 l-18 22
-1 -22 c0 -29 -3 -29 -34 2 -14 14 -32 25 -39 25 -17 0 -30 37 -16 46 5 3 9
21 7 39 -1 19 -5 32 -9 29 -4 -2 -12 3 -19 11 -10 12 -30 14 -99 10 -47 -3
-91 -2 -96 2 -21 16 -34 60 -39 130 -4 67 -18 110 -91 279 -7 17 -19 66 -25
110 -7 43 -22 98 -34 121 -21 42 -76 113 -76 97 0 -4 -5 -3 -11 3 -8 8 -16 6
-30 -8 -10 -10 -28 -19 -39 -19 -26 0 -92 -33 -110 -55 -8 -9 -30 -25 -50 -35
-38 -20 -73 -27 -425 -91 -121 -22 -256 -47 -300 -55 -85 -16 -143 -26 -265
-44 -41 -6 -82 -12 -90 -15 -8 -2 -58 -11 -110 -19 -235 -37 -569 -96 -591
-105 -13 -5 -48 -25 -78 -45 -55 -36 -115 -52 -151 -41 -26 8 -70 -19 -70 -43
0 -9 12 -55 25 -101 14 -46 28 -114 31 -150 11 -105 5 -101 149 -96 74 3 199
18 303 36 253 44 239 44 442 10 196 -32 549 -86 789 -121 157 -23 251 -20 251
7 0 17 -31 63 -66 98 -43 43 -27 82 31 77 154 -13 177 -40 153 -176 -2 -15 9
-27 42 -45 38 -21 62 -26 165 -31 66 -4 127 -10 135 -13 8 -3 44 -8 80 -11 36
-2 82 -12 102 -20 25 -11 65 -16 117 -15 66 1 85 -2 106 -19 24 -19 24 -21 7
-41 -12 -16 -38 -25 -97 -35 -44 -8 -156 -28 -250 -46 -93 -17 -195 -35 -225
-40 -30 -5 -80 -14 -110 -19 -30 -6 -104 -19 -165 -30 -60 -11 -173 -31 -250
-46 -249 -47 -348 -64 -460 -79 -60 -8 -198 -31 -305 -50 -107 -20 -220 -40
-250 -45 -30 -6 -93 -17 -140 -26 -47 -8 -121 -20 -165 -25 -113 -14 -304 -48
-343 -61 -29 -9 -41 -7 -97 20 -67 31 -86 53 -179 214 -32 55 -160 228 -203
272 -16 17 -40 46 -55 66 -14 19 -80 74 -145 122 -144 105 -152 118 -152 250
0 64 -7 121 -22 177 -27 106 -50 220 -56 285 -3 28 -9 54 -14 60 -15 15 -10
33 13 55 21 19 31 20 123 15 55 -3 131 -8 169 -10 38 -2 73 -8 79 -14 17 -17
47 -13 47 6 0 24 -46 81 -80 98 -17 9 -55 15 -92 15 -60 0 -79 -4 -173 -30
-44 -12 -71 -5 -116 31 -15 12 -64 29 -120 40 -102 22 -129 40 -129 88 0 28
61 101 86 101 18 0 23 11 35 75 5 30 24 78 41 105 l30 49 -29 48 c-16 26 -37
75 -48 108 -10 33 -26 72 -36 87 -11 14 -19 33 -19 41 0 24 -19 31 -26 10 -17
-49 -57 -149 -67 -165 -7 -10 -17 -18 -23 -18 -7 0 -15 -11 -18 -25 -4 -14
-15 -34 -24 -43 -35 -35 -102 -136 -102 -153 0 -10 10 -29 23 -43 12 -13 33
-60 46 -104 12 -43 38 -117 58 -163 81 -196 91 -337 27 -390 -18 -15 -75 -20
-90 -7 -7 5 -12 47 -13 105 -1 53 -5 101 -8 107 -4 6 -8 42 -8 81 -3 119 4
114 -135 111 -116 -3 -121 -4 -145 -30 -14 -15 -25 -31 -25 -36 0 -13 -40 -33
-48 -25 -4 4 1 13 12 20 10 8 16 18 13 22 -3 5 -1 15 5 23 8 12 9 12 4 -2 -8
-27 13 -21 24 6 5 13 14 27 20 31 6 4 8 15 5 25 -4 12 1 19 15 23 11 3 20 11
20 19 0 7 15 24 33 37 17 13 44 49 60 80 15 31 34 67 41 81 8 14 20 39 28 55
7 17 16 32 19 35 16 13 49 98 50 129 1 35 2 35 8 7 6 -27 7 -28 20 -12 12 14
12 22 3 37 -16 25 -15 54 2 72 8 8 19 30 23 48 9 35 43 54 43 25 0 -9 -4 -16
-9 -16 -9 0 -31 -121 -24 -133 8 -13 42 24 59 62 9 20 20 45 26 57 5 11 11 39
12 60 1 21 6 46 11 54 5 8 8 28 6 45 -2 30 34 180 49 200 12 16 19 56 13 71
-3 8 -13 14 -22 15 -10 0 -12 2 -3 6 10 4 11 26 6 94 -8 105 5 158 49 203 25
26 28 35 25 79 -3 44 0 52 24 70 28 21 68 17 50 -6 -5 -6 -12 -49 -16 -95 -4
-46 -13 -118 -21 -160 -8 -42 -15 -90 -15 -106 0 -24 2 -27 15 -16 13 11 15 6
15 -34 0 -44 -1 -46 -24 -40 -21 5 -25 1 -31 -26 -7 -32 -3 -42 18 -46 7 -1
20 -5 31 -10 14 -5 17 -3 14 7 -2 7 9 23 25 34 28 19 44 42 65 95 5 14 14 37
20 52 23 56 64 297 67 386 4 98 9 119 19 79 7 -29 39 -38 94 -26 20 4 59 13
86 19 27 5 68 21 92 35 23 14 49 25 58 25 21 0 49 41 36 54 -13 13 -57 17
-225 19 -157 3 -176 9 -201 65 -10 20 -23 44 -30 52 -6 8 -10 29 -7 46 4 26
12 34 43 44 37 12 38 13 43 74 5 56 4 63 -21 89 -46 48 -72 30 -72 -50 0 -22
-5 -33 -14 -33 -22 0 -29 17 -27 73 1 57 29 97 68 97 14 0 23 6 23 15 0 16
-34 55 -49 55 -32 0 -4 162 32 181 16 9 18 18 14 53 -4 22 -16 60 -27 84 -33
67 -25 84 40 97 70 14 93 27 125 69 44 58 32 164 -33 292 -42 81 -53 95 -168
209 -55 55 -108 114 -116 130 -45 86 -90 189 -114 260 -41 123 -55 145 -171
260 -84 83 -122 114 -173 137 -36 16 -81 38 -101 49 -20 10 -45 19 -55 19 -25
1 -89 33 -139 70 -22 16 -47 29 -56 30 -9 0 -46 14 -82 30 -48 21 -80 30 -114
28 -27 0 -68 5 -93 12 -25 8 -49 13 -54 11 -5 -1 -16 2 -25 6 -16 8 -215 11
-300 5z m207 -382 c37 -36 43 -37 73 -5 13 13 29 25 34 25 16 0 84 -77 91
-104 3 -14 2 -38 -3 -53 -9 -26 -13 -28 -63 -28 -49 0 -55 2 -61 25 -6 24 -6
24 -16 -10 -7 -28 -14 -35 -34 -35 -13 0 -28 -6 -32 -12 -12 -19 -28 -16 -54
8 l-22 22 -12 -29 c-6 -16 -13 -23 -16 -17 -2 7 3 23 11 35 17 24 22 68 7 68
-5 0 -12 7 -15 16 -8 20 50 124 69 124 7 0 27 -13 43 -30z m-1518 -1348 c0
-21 -2 -24 -10 -12 -13 20 -13 53 0 45 6 -3 10 -18 10 -33z m344 -279 c4 -9
-1 -17 -14 -20 -11 -3 -20 -9 -20 -14 0 -5 -8 -9 -17 -9 -17 1 -17 2 0 15 13
9 17 20 12 33 -5 17 -2 19 14 15 11 -3 22 -12 25 -20z m49 -135 c28 -14 57
-63 62 -106 7 -69 -49 -186 -132 -273 -51 -54 -55 -56 -83 -46 -24 9 -32 8
-49 -8 -12 -10 -21 -26 -21 -36 0 -26 -11 -49 -24 -49 -6 0 -23 26 -39 58 -23
49 -27 69 -27 147 1 50 7 121 14 159 11 59 19 74 47 97 19 16 38 29 43 29 5 0
15 8 21 17 13 17 14 17 33 0 17 -16 22 -16 29 -4 16 28 81 36 126 15z m-488
-320 c36 -16 31 -27 -17 -35 -38 -6 -40 -7 -18 -14 l25 -7 -28 -1 c-15 -1 -30
-8 -33 -16 -4 -8 -13 -15 -22 -15 -20 0 -52 -29 -52 -47 0 -7 -4 -13 -10 -13
-5 0 -10 18 -10 40 0 32 7 47 38 80 42 43 77 51 127 28z m1926 -87 c1 -9 1
-20 0 -25 -1 -4 5 -13 13 -20 8 -6 17 -26 20 -44 2 -18 10 -40 16 -48 7 -7 10
-14 6 -14 -8 0 34 -77 74 -136 15 -23 33 -59 40 -80 23 -78 32 -94 51 -94 11
0 19 -6 19 -12 0 -7 9 -24 19 -37 22 -29 18 -59 -5 -36 -8 7 -14 23 -14 34 0
23 -19 28 -38 9 -7 -7 -38 -13 -70 -14 -31 -1 -70 -9 -87 -18 -37 -20 -40 -20
-59 0 -9 9 -35 17 -59 18 -28 1 -41 6 -39 15 1 7 -1 10 -6 7 -5 -3 -18 4 -30
14 -12 11 -28 20 -37 20 -8 0 -15 7 -15 15 0 23 29 77 39 71 4 -3 26 13 49 35
25 23 36 39 27 39 -8 0 -15 5 -15 10 0 6 4 10 9 10 17 0 22 50 6 66 -18 18
-19 28 -4 55 8 15 7 34 -2 68 -10 41 -10 51 6 74 9 15 13 27 9 28 -5 1 2 4 16
8 34 10 60 2 61 -18z m-1935 4 c18 -14 17 -14 -13 -15 -31 0 -49 11 -36 24 10
10 28 7 49 -9z m305 -407 c30 -114 34 -138 31 -179 -4 -42 -26 -53 -37 -19 -3
11 -18 29 -32 40 -22 17 -27 30 -29 77 -3 47 1 64 19 90 12 18 25 33 29 33 4
0 12 -19 19 -42z m2659 -188 c0 -5 -5 -10 -11 -10 -5 0 -7 5 -4 10 3 6 8 10
11 10 2 0 4 -4 4 -10z m-723 -106 c-3 -3 -12 -4 -19 -1 -8 3 -5 6 6 6 11 1 17
-2 13 -5z m-2055 -18 c13 -9 14 -16 6 -24 -15 -15 -38 -4 -38 19 0 22 8 23 32
5z m1028 4 c0 -5 -2 -10 -4 -10 -3 0 -8 5 -11 10 -3 6 -1 10 4 10 6 0 11 -4
11 -10z m1010 -21 c0 -8 4 -8 13 -1 17 14 57 -4 57 -26 0 -18 96 -122 112
-122 4 0 8 -13 8 -29 0 -16 4 -31 9 -33 5 -1 12 -20 16 -40 6 -33 5 -38 -12
-38 -11 0 -35 5 -53 11 -24 9 -34 9 -40 0 -5 -9 -20 0 -47 28 -40 41 -81 56
-69 26 3 -9 -4 -21 -19 -31 -14 -9 -25 -21 -25 -28 -1 -31 -16 -37 -59 -21
-24 8 -63 15 -87 15 -23 0 -46 5 -49 10 -3 6 -15 10 -26 10 -10 0 -19 -4 -19
-10 0 -5 -7 -10 -16 -10 -15 0 -15 2 0 25 9 13 16 29 16 35 0 15 33 50 47 50
6 0 15 10 18 21 6 17 9 19 16 8 6 -11 12 -9 29 8 11 12 20 26 20 32 0 12 17
18 73 26 26 4 52 13 58 21 8 10 8 14 0 14 -15 0 -14 47 2 53 20 9 27 8 27 -4z
m-195 -119 c3 -5 1 -10 -4 -10 -6 0 -11 5 -11 10 0 6 2 10 4 10 3 0 8 -4 11
-10z m-655 -25 c0 -9 -6 -12 -15 -9 -8 4 -15 10 -15 15 0 5 7 9 15 9 8 0 15
-7 15 -15z m1367 -22 c-3 -10 -5 -4 -5 12 0 17 2 24 5 18 2 -7 2 -21 0 -30z
m-3623 -45 c8 -14 4 -38 -19 -105 -16 -49 -38 -103 -48 -120 -10 -18 -16 -33
-13 -33 4 0 -2 -10 -13 -22 -18 -19 -24 -20 -47 -9 -23 10 -25 16 -21 49 3 20
10 55 17 77 6 22 15 61 19 86 4 26 15 59 25 73 14 22 23 27 53 24 21 -2 41
-10 47 -20z m3616 -68 c0 -5 -12 -10 -26 -10 -14 0 -23 4 -19 10 3 6 15 10 26
10 10 0 19 -4 19 -10z m-880 -635 c0 -10 -10 -15 -27 -15 -27 1 -27 1 -9 15
25 19 36 19 36 0z m240 -45 c0 -5 -9 -10 -20 -10 -11 0 -20 5 -20 10 0 6 9 10
20 10 11 0 20 -4 20 -10z m100 -35 c0 -8 -4 -15 -10 -15 -5 0 -10 7 -10 15 0
8 5 15 10 15 6 0 10 -7 10 -15z m67 -7 c-3 -8 -6 -5 -6 6 -1 11 2 17 5 13 3
-3 4 -12 1 -19z m-51 -221 c64 -30 78 -37 62 -33 -10 3 -18 1 -18 -3 0 -15
-56 11 -69 31 -13 22 -12 22 25 5z m-115 -94 c-10 -17 -10 -16 -11 3 0 23 13
41 18 25 2 -6 -1 -18 -7 -28z m-30 -66 c-13 -13 -15 1 -4 30 7 17 8 17 11 -1
2 -10 -1 -23 -7 -29z m-11 -52 c0 -8 -4 -15 -10 -15 -5 0 -7 7 -4 15 4 8 8 15
10 15 2 0 4 -7 4 -15z m-33 -137 c-3 -8 -6 -5 -6 6 -1 11 2 17 5 13 3 -3 4
-12 1 -19z m3139 11 c3 -6 -1 -18 -10 -27 -13 -13 -16 -13 -16 -2 0 9 -5 8
-14 -6 -11 -15 -17 -16 -27 -7 -16 16 -5 41 23 46 13 2 26 5 30 6 4 0 10 -4
14 -10z m1214 -307 c7 2 14 -2 17 -9 2 -6 -3 -13 -13 -15 -14 -3 -13 -6 7 -23
13 -12 19 -14 14 -5 -7 12 -6 13 6 2 12 -11 11 -15 -6 -25 -11 -6 -23 -12 -27
-13 -5 -1 -10 -3 -13 -4 -3 -1 -8 -3 -12 -5 -5 -1 -25 -9 -45 -18 -75 -34
-132 -19 -136 35 -2 33 -1 34 40 37 23 1 45 6 48 10 3 4 17 11 32 15 15 3 33
12 40 20 8 9 17 11 24 5 7 -5 17 -8 24 -7z m10 -132 c0 -5 -4 -10 -10 -10 -5
0 -10 5 -10 10 0 6 5 10 10 10 6 0 10 -4 10 -10z m-8740 -281 c0 -12 -60 -69
-73 -69 -9 0 30 60 48 72 15 11 25 10 25 -3z m9014 -292 c29 -30 70 -160 62
-201 -4 -17 -26 -60 -51 -95 -34 -49 -45 -74 -45 -103 0 -21 -5 -38 -11 -38
-6 0 -10 17 -9 43 4 59 2 67 -14 67 -8 0 -16 9 -18 21 -4 27 -73 77 -118 85
-26 5 -32 4 -24 -5 11 -12 4 -88 -8 -83 -4 2 -20 8 -35 14 -16 6 -36 21 -45
33 -17 23 -17 24 14 44 24 14 28 21 18 25 -76 28 -109 36 -145 36 -52 0 -69
17 -60 60 9 39 18 43 225 85 203 41 233 42 264 12z m-739 -207 c3 -5 27 -10
53 -11 58 -1 71 -6 116 -46 37 -35 57 -94 39 -122 -19 -30 -69 -33 -133 -10
-53 19 -60 25 -60 49 0 31 -13 44 -53 54 -55 13 -52 96 4 96 15 0 31 -4 34
-10z m-407 -638 c3 -16 -2 -22 -17 -22 -26 0 -36 17 -20 36 16 19 33 13 37
-14z m-9074 -117 c-4 -8 -10 -15 -15 -15 -5 0 -9 7 -9 15 0 8 7 15 15 15 9 0
12 -6 9 -15z m6602 -833 c6 -4 15 -16 21 -26 13 -24 -7 -49 -31 -40 -12 4 -16
0 -16 -15 0 -24 -4 -25 -31 -11 -12 7 -19 7 -19 1 0 -6 -6 -8 -14 -5 -17 6
-56 -62 -56 -96 0 -24 31 -27 54 -5 8 8 26 15 41 15 17 0 28 7 34 23 5 12 11
21 15 20 20 -8 28 0 24 25 -5 36 16 59 38 41 13 -10 13 -15 -1 -35 -8 -13 -15
-28 -15 -33 0 -16 -46 -61 -62 -61 -8 0 -23 -9 -33 -20 -9 -10 -25 -19 -34
-18 -65 5 -91 -11 -77 -49 5 -12 9 -14 18 -5 7 7 22 12 34 12 12 0 27 6 33 14
6 8 22 11 37 8 18 -3 30 0 36 12 5 9 18 16 28 16 11 0 20 5 20 10 0 6 7 10 15
10 8 0 15 -9 15 -20 0 -10 7 -23 16 -28 13 -7 13 -13 2 -37 -12 -27 -13 -27
-18 -6 -7 31 -25 27 -25 -6 0 -21 5 -29 23 -31 37 -5 26 -35 -21 -55 -23 -10
-60 -27 -82 -37 -22 -11 -48 -20 -58 -20 -32 0 -57 -20 -57 -45 0 -30 14 -31
58 -5 18 11 46 20 62 20 16 0 32 5 35 10 4 6 18 10 33 10 15 0 35 0 45 0 38 0
47 -4 47 -22 0 -18 -11 -24 -23 -12 -13 13 -76 13 -86 0 -6 -7 -22 -11 -35 -9
-17 4 -28 -1 -37 -15 -10 -16 -16 -18 -26 -10 -21 17 -66 -17 -58 -45 4 -12 3
-17 -2 -10 -11 15 -33 19 -60 9 -35 -12 -28 -42 17 -72 45 -30 75 -27 65 7 -7
21 -6 21 15 6 21 -15 27 -14 74 4 28 10 56 25 61 31 11 13 50 38 60 38 10 0
-13 -35 -46 -69 -47 -47 -131 -82 -209 -88 -54 -4 -72 -1 -110 19 -52 26 -90
90 -89 148 l1 35 9 -39 c15 -65 47 -87 69 -46 15 29 -17 140 -41 140 -10 0
-21 -9 -24 -20 -10 -32 -27 -23 -23 12 2 25 8 32 26 33 30 2 42 20 42 65 0 47
9 56 49 54 24 0 37 -7 46 -24 12 -23 13 -22 17 13 6 53 -6 77 -40 77 -15 0
-33 -5 -40 -12 -8 -8 -15 -8 -28 3 -14 12 -19 10 -35 -10 -11 -13 -19 -39 -19
-60 -1 -27 -3 -32 -10 -20 -11 19 13 125 41 180 25 51 92 105 158 129 31 11
65 25 76 30 46 20 65 23 81 12z m-359 -394 c-3 -8 -6 -5 -6 6 -1 11 2 17 5 13
3 -3 4 -12 1 -19z m-720 -150 c61 -42 69 -119 23 -216 -16 -34 -37 -65 -47
-69 -24 -9 -34 -24 -27 -45 3 -12 -2 -17 -18 -20 -17 -2 -22 -9 -21 -26 2 -15
-3 -22 -14 -22 -9 0 -40 -16 -70 -36 -30 -20 -63 -34 -76 -32 -22 2 -143 -37
-161 -53 -8 -8 -1 -20 49 -89 11 -15 44 -60 73 -101 29 -40 68 -90 86 -109 57
-62 176 -223 198 -269 24 -50 30 -122 11 -128 -7 -3 -13 2 -13 10 0 17 -52 30
-61 15 -4 -6 -12 -2 -18 11 -7 12 -16 19 -20 16 -5 -3 -11 2 -15 10 -3 8 -1
15 4 15 17 0 11 25 -10 38 -11 7 -20 20 -20 31 0 10 -9 26 -20 36 -11 10 -20
26 -20 35 0 9 -12 22 -27 29 -66 31 -79 41 -88 69 -6 16 -33 52 -60 80 -45 45
-56 51 -95 53 -66 2 -198 -17 -215 -31 -24 -20 -18 -34 43 -96 39 -41 64 -77
80 -119 13 -33 28 -68 33 -77 24 -46 38 -106 32 -140 -3 -21 -9 -38 -14 -38
-5 0 -9 -7 -9 -16 0 -14 2 -14 16 -3 14 11 19 9 36 -14 11 -15 24 -25 29 -22
5 4 6 -1 3 -9 -3 -8 0 -24 6 -36 6 -12 9 -28 6 -37 -5 -12 -11 -11 -35 9 -17
13 -30 28 -30 34 -1 15 -51 58 -86 74 -30 13 -99 24 -228 35 -73 7 -121 -4
-157 -35 -26 -22 -21 -45 17 -86 37 -40 63 -86 63 -111 0 -32 -10 -53 -26 -53
-10 0 -14 -13 -14 -44 l0 -45 -77 4 c-42 3 -79 8 -82 13 -9 12 -107 72 -118
72 -6 0 -31 12 -57 26 -25 14 -50 23 -56 19 -5 -3 -10 3 -10 14 0 17 -5 20
-30 14 -26 -5 -29 -3 -24 11 13 35 -54 71 -190 102 -38 8 -82 22 -97 30 -15 7
-35 11 -43 8 -9 -4 -16 -1 -16 6 0 9 -13 11 -42 7 -24 -2 -37 -3 -30 0 10 4
10 8 1 19 -16 19 -89 19 -89 0 0 -8 -18 -23 -40 -33 -21 -10 -40 -23 -42 -30
-5 -18 -78 16 -78 37 0 14 -8 17 -51 15 -32 -2 -71 5 -103 17 -28 11 -62 21
-75 23 -31 5 -81 26 -81 35 0 3 -6 7 -12 7 -7 0 -37 15 -66 33 -32 19 -61 30
-72 27 -21 -5 -29 8 -9 15 6 2 -12 5 -41 6 -46 2 -50 0 -36 -13 8 -8 21 -15
29 -15 18 0 29 -24 20 -47 -5 -12 -2 -15 10 -10 11 4 14 2 10 -9 -4 -11 -13
-13 -27 -9 -11 4 -86 19 -166 35 -205 39 -234 48 -265 80 -23 24 -26 34 -21
62 4 18 8 76 9 128 2 72 -2 103 -15 130 -14 28 -16 47 -9 100 9 72 7 82 -14
73 -10 -3 -15 1 -15 11 0 9 -9 26 -20 38 -33 36 -19 91 24 99 11 2 20 12 22
23 1 10 7 23 13 29 6 6 11 48 11 93 l0 82 43 23 c107 56 348 58 597 3 85 -19
207 -38 270 -43 154 -11 734 -5 887 10 94 10 144 10 217 1 207 -26 522 -10
598 30 22 12 57 22 77 24 42 3 78 33 124 105 30 46 104 119 121 119 5 0 25
-10 43 -22z m2827 -69 c-7 -13 -64 -11 -64 1 0 16 43 29 57 18 7 -6 10 -14 7
-19z m-14 -437 c-50 -5 -82 6 -78 26 2 10 12 17 26 16 12 0 22 3 22 8 0 4 14
-4 31 -19 l31 -28 -32 -3z m-5898 3 c0 -5 -5 -11 -11 -13 -6 -2 -11 4 -11 13
0 9 5 15 11 13 6 -2 11 -8 11 -13z m-782 -510 c0 -11 -11 -15 -40 -15 -29 0
-40 4 -40 15 0 11 11 15 40 15 29 0 40 -4 40 -15z m3431 -241 c12 -14 11 -16
-5 -13 -11 2 -21 10 -24 17 -5 17 13 15 29 -4z m-1860 -43 c-12 -8 -51 -4 -51
5 0 2 15 4 33 4 22 0 28 -3 18 -9z m139 -121 c0 -29 -4 -40 -15 -40 -8 0 -15
9 -15 20 0 13 -7 20 -18 20 -10 0 -21 3 -25 6 -11 12 18 33 46 34 25 0 27 -3
27 -40z m840 -90 c0 -5 -7 -10 -16 -10 -8 0 -12 5 -9 10 3 6 10 10 16 10 5 0
9 -4 9 -10z"/>
<path d="M4056 7989 c-14 -17 -26 -34 -26 -39 0 -5 -9 -10 -21 -12 -19 -3 -21
-11 -24 -87 -4 -87 11 -141 38 -141 34 0 137 182 137 243 0 68 -59 89 -104 36z"/>
<path d="M3891 7874 c0 -11 3 -14 6 -6 3 7 2 16 -1 19 -3 4 -6 -2 -5 -13z"/>
<path d="M3887 7813 c-4 -7 -3 -30 2 -50 6 -21 12 -49 15 -63 2 -17 4 -14 4
10 1 53 -12 117 -21 103z"/>
<path d="M6518 2432 c-49 -51 -64 -80 -44 -88 22 -8 48 -1 56 16 49 100 44
131 -12 72z"/>
<path d="M6434 2402 c-11 -7 -34 -45 -34 -56 0 -3 9 -6 20 -6 11 0 20 1 20 3
0 1 4 17 9 35 10 32 6 38 -15 24z"/>
<path d="M6444 2176 c-9 -23 0 -51 16 -51 10 0 15 10 15 29 0 32 -21 47 -31
22z"/>
<path d="M6521 2108 c-1 -20 -10 -31 -38 -45 -44 -21 -57 -57 -24 -68 41 -13
107 58 83 88 -5 7 -12 21 -15 32 -4 16 -5 14 -6 -7z"/>
<path d="M6429 1934 c-11 -14 -10 -19 10 -35 13 -11 37 -19 54 -19 l31 0 -34
35 c-39 40 -43 41 -61 19z"/>
<path d="M5190 1706 c0 -9 7 -19 15 -23 25 -9 27 2 5 22 -18 17 -20 17 -20 1z"/>
<path d="M4728 10083 c7 -3 16 -2 19 1 4 3 -2 6 -13 5 -11 0 -14 -3 -6 -6z"/>
<path d="M6505 7190 c-4 -6 -11 -8 -16 -5 -17 11 -9 -25 11 -45 l20 -20 0 40
c0 41 -4 48 -15 30z"/>
<path d="M4320 7098 c0 -13 7 -32 15 -42 14 -18 15 -17 15 22 0 31 -4 42 -15
42 -9 0 -15 -9 -15 -22z"/>
<path d="M6492 7090 c0 -14 2 -19 5 -12 2 6 2 18 0 25 -3 6 -5 1 -5 -13z"/>
<path d="M0 6562 c0 -250 4 -433 9 -436 10 -6 62 10 71 22 3 4 32 21 65 37 78
39 101 76 85 136 -7 24 -10 91 -9 154 3 106 2 112 -23 145 -14 19 -33 52 -41
72 -16 39 -59 98 -111 155 -26 28 -28 37 -23 76 5 33 2 48 -8 57 -13 11 -15
-41 -15 -418z"/>
<path d="M6520 6846 c0 -8 5 -18 10 -21 14 -9 12 -25 -2 -20 -15 6 -48 -47
-48 -76 0 -21 23 -25 63 -10 49 19 35 140 -15 141 -5 0 -8 -6 -8 -14z"/>
<path d="M408 6750 c-39 -12 -96 -68 -103 -102 -9 -39 10 -61 44 -53 14 4 31
8 36 10 54 13 105 60 105 96 0 19 -33 60 -47 58 -5 0 -20 -4 -35 -9z"/>
<path d="M4047 6723 c-10 -9 -9 -23 2 -23 5 0 11 7 15 15 5 15 -5 20 -17 8z"/>
<path d="M6460 6663 c0 -10 4 -24 8 -30 12 -19 47 9 39 31 -9 22 -47 21 -47
-1z"/>
<path d="M8848 6659 c-44 -25 -10 -170 56 -241 38 -42 49 -48 84 -48 23 0 53
-5 69 -11 63 -24 235 -46 316 -40 25 2 21 33 -10 73 -43 55 -57 61 -106 45
-80 -28 -140 -38 -151 -27 -5 5 -21 10 -34 10 -19 0 -23 4 -20 18 3 11 -3 36
-13 57 -11 21 -19 42 -19 47 0 13 52 68 64 67 44 -5 86 3 86 15 0 36 -40 46
-175 46 -71 0 -138 -5 -147 -11z"/>
<path d="M8320 6627 c-3 -3 -48 -13 -99 -21 -52 -8 -98 -19 -103 -24 -5 -5
-15 -27 -23 -48 -14 -44 -64 -84 -102 -84 -14 0 -39 6 -56 14 -96 41 -124 43
-237 10 -84 -25 -120 -45 -151 -88 -37 -50 -37 -78 2 -110 36 -30 71 -33 156
-11 32 8 97 19 144 25 47 5 151 26 230 46 79 19 187 44 239 55 144 30 156 44
127 149 -19 71 -29 82 -78 87 -24 3 -46 3 -49 0z"/>
<path d="M10223 6573 c-8 -22 24 -84 47 -90 11 -3 20 -10 20 -15 0 -5 31 -40
70 -77 68 -66 120 -132 120 -152 0 -5 11 -21 25 -35 14 -14 25 -29 25 -34 0
-6 6 -10 14 -10 18 0 27 -26 20 -56 -4 -15 -13 -24 -25 -24 -11 0 -49 -13 -86
-30 -36 -16 -83 -30 -103 -30 -21 0 -55 -6 -76 -14 -22 -7 -45 -11 -51 -9 -7
3 -13 0 -13 -5 0 -9 -32 -25 -52 -27 -12 0 -48 -34 -48 -44 0 -16 57 -51 83
-51 14 0 32 -7 41 -15 18 -19 46 -19 46 -1 0 18 22 26 76 26 32 0 44 -4 44
-15 0 -18 23 -19 52 -4 16 9 18 13 7 20 -26 16 21 22 73 10 27 -6 62 -11 78
-11 24 0 37 -12 45 -40 11 -45 32 -80 47 -80 11 0 18 -7 18 -18 0 -11 16 -27
40 -40 l40 -21 0 444 0 444 -42 5 c-24 3 -152 7 -286 9 -208 4 -244 2 -249
-10z"/>
<path d="M7228 6511 c-31 -3 -58 -8 -61 -11 -16 -18 -36 -71 -31 -84 3 -9 1
-16 -5 -16 -6 0 -11 -8 -11 -18 0 -10 -31 -47 -70 -82 -38 -35 -70 -68 -70
-74 0 -5 -11 -24 -25 -42 -14 -18 -25 -36 -25 -39 0 -4 -20 -31 -45 -59 -25
-29 -45 -56 -45 -59 0 -9 93 -26 182 -31 152 -10 267 -70 322 -168 18 -33 34
-48 54 -52 26 -6 110 5 302 38 47 8 193 33 325 56 132 22 267 46 300 52 70 13
349 17 483 6 51 -4 113 -14 138 -23 89 -30 186 -10 156 32 -7 10 -20 34 -28
53 -34 75 -67 104 -140 124 -17 5 -23 0 -32 -32 -7 -22 -23 -50 -35 -64 -22
-24 -30 -26 -90 -23 -66 3 -126 26 -134 52 -7 19 39 53 72 53 38 0 77 38 95
93 9 30 9 41 0 52 -14 17 -67 19 -120 6 -19 -5 -75 -14 -125 -21 -100 -13
-297 -45 -545 -89 -121 -21 -178 -36 -215 -56 -43 -23 -58 -26 -105 -21 -31 3
-87 18 -125 33 -63 24 -83 27 -210 29 -77 1 -146 2 -153 3 -21 2 -39 59 -46
143 -5 70 -4 78 13 88 11 5 28 10 38 10 16 0 39 19 147 115 35 33 -5 40 -136
26z"/>
<path d="M9426 6117 c-18 -13 -18 -14 0 -21 10 -4 62 -11 115 -16 53 -5 120
-18 148 -29 l52 -19 -18 30 c-30 52 -74 68 -183 68 -65 0 -102 -4 -114 -13z"/>
<path d="M6073 5981 c-12 -34 -9 -41 22 -41 30 0 34 7 26 38 -10 37 -34 39
-48 3z"/>
<path d="M1986 5913 c-14 -14 -5 -71 14 -91 24 -26 36 -28 44 -7 12 33 -38
118 -58 98z"/>
<path d="M1857 5540 c-18 -15 -29 -37 -37 -77 -14 -63 -29 -103 -41 -103 -4 0
-10 -13 -14 -29 -7 -32 -27 -45 -105 -67 -111 -31 -127 -34 -212 -34 -91 0
-203 -23 -227 -46 -29 -27 42 -39 299 -50 84 -3 164 -10 177 -15 13 -5 63 -11
111 -14 82 -5 90 -4 123 19 18 13 60 42 91 63 32 21 58 44 58 51 0 7 18 35 40
61 22 26 40 54 40 62 0 8 7 23 15 33 20 26 19 70 -1 112 -23 49 -40 55 -119
43 -48 -8 -80 -8 -110 0 -57 14 -58 14 -88 -9z"/>
<path d="M2480 5431 c0 -5 -10 -11 -22 -13 -12 -2 -23 -9 -25 -15 -4 -10 4 -9
28 1 33 14 51 36 30 36 -6 0 -11 -4 -11 -9z"/>
<path d="M2370 5370 c0 -5 7 -10 15 -10 8 0 15 5 15 10 0 6 -7 10 -15 10 -8 0
-15 -4 -15 -10z"/>
<path d="M10598 5228 c-15 -7 -36 -25 -47 -39 -19 -24 -20 -33 -11 -79 5 -29
8 -56 5 -60 -3 -5 -1 -10 4 -12 5 -1 12 -56 15 -121 3 -70 2 -116 -3 -112 -6
3 -5 -10 0 -31 6 -19 8 -48 4 -63 -14 -63 79 -97 179 -66 l56 18 0 103 c0 64
-4 105 -11 110 -6 3 -9 24 -7 45 2 22 0 39 -4 39 -14 0 -8 31 7 36 12 5 15 27
15 114 l0 107 -52 6 c-29 4 -69 9 -88 12 -19 3 -47 -1 -62 -7z m182 -49 c0 -5
-4 -9 -10 -9 -5 0 -10 7 -10 16 0 8 5 12 10 9 6 -3 10 -10 10 -16z"/>
<path d="M0 3410 c0 -5 5 -10 10 -10 6 0 10 5 10 10 0 6 -4 10 -10 10 -5 0
-10 -4 -10 -10z"/>
<path d="M10695 2953 c-38 -5 -322 -50 -395 -63 -68 -12 -111 -19 -495 -81
-170 -28 -318 -55 -327 -60 -20 -11 -23 -25 -8 -34 10 -6 358 55 975 171 17 3
89 16 160 30 72 13 146 28 165 33 l35 9 -40 -1 c-22 0 -53 -2 -70 -4z"/>
<path d="M9370 2826 c0 -8 5 -18 10 -21 6 -3 10 3 10 14 0 12 -4 21 -10 21 -5
0 -10 -6 -10 -14z"/>
<path d="M7958 2803 c6 -2 18 -2 25 0 6 3 1 5 -13 5 -14 0 -19 -2 -12 -5z"/>
<path d="M7920 2701 c0 -12 5 -21 10 -21 6 0 10 6 10 14 0 8 -4 18 -10 21 -5
3 -10 -3 -10 -14z"/>
<path d="M9370 2681 c0 -5 6 -14 14 -20 16 -13 32 2 21 19 -8 12 -35 13 -35 1z"/>
<path d="M10723 2461 c-18 -15 -33 -37 -33 -48 0 -33 -29 -93 -45 -93 -17 0
-21 -26 -5 -32 6 -2 8 -17 4 -36 -5 -25 -11 -32 -30 -32 -14 0 -24 6 -24 14 0
8 -13 17 -30 21 -23 5 -34 17 -49 50 -20 44 -52 64 -85 52 -12 -5 -12 -12 -2
-41 7 -19 19 -43 28 -53 8 -10 13 -24 11 -30 -6 -16 -63 -17 -63 -2 0 6 -20 9
-52 7 -46 -3 -53 -6 -58 -28 -8 -36 -73 -41 -104 -8 -11 12 -20 26 -18 30 1 5
-7 8 -18 8 -11 0 -20 -4 -20 -9 0 -4 -11 -20 -25 -35 -21 -23 -28 -26 -40 -16
-8 7 -15 23 -15 36 0 26 -10 30 -28 12 -9 -9 -15 -9 -24 0 -17 17 -55 15 -62
-3 -7 -20 11 -27 59 -23 25 2 40 -2 43 -10 3 -9 -3 -13 -16 -10 -11 2 -29 -5
-40 -15 -15 -14 -25 -15 -45 -8 -17 7 -27 7 -29 0 -6 -18 -62 -17 -113 2 -60
23 -75 24 -75 4 0 -8 7 -15 15 -15 25 0 17 -14 -18 -30 -22 -11 -33 -23 -35
-42 -4 -34 33 -108 56 -109 99 -6 203 -5 208 3 8 13 65 -1 88 -21 18 -15 18
-15 12 6 -8 26 19 38 56 24 16 -6 31 -5 44 2 18 11 359 46 451 47 39 0 42 -2
54 -37 11 -34 10 -38 -12 -55 -19 -16 -20 -21 -8 -29 7 -5 19 -9 26 -9 17 0
26 -19 33 -64 3 -22 11 -41 19 -44 11 -4 13 5 7 46 -6 45 -4 52 15 62 11 7 23
9 26 6 11 -10 43 15 43 34 0 17 -7 19 -52 17 l-53 -2 1 150 c2 131 6 164 32
265 16 63 29 116 28 117 0 0 -16 -11 -33 -26z"/>
<path d="M9870 1910 c0 -5 5 -10 10 -10 6 0 10 5 10 10 0 6 -4 10 -10 10 -5 0
-10 -4 -10 -10z"/>
<path d="M9053 1813 c-7 -3 -13 -18 -13 -34 0 -24 -4 -28 -22 -26 -20 2 -23
-3 -23 -35 0 -44 -20 -72 -35 -48 -6 10 -7 3 -3 -22 3 -21 1 -43 -4 -50 -6 -7
-13 -26 -17 -43 -4 -16 -13 -33 -19 -37 -9 -5 -9 -10 1 -20 21 -21 14 -37 -15
-34 -14 2 -44 -1 -65 -7 -36 -9 -38 -12 -38 -47 0 -36 -3 -40 -57 -70 -68 -38
-111 -70 -94 -70 6 0 20 -9 31 -20 16 -16 18 -25 10 -40 -5 -10 -7 -25 -4 -33
3 -9 0 -25 -6 -37 -10 -18 -8 -26 10 -45 32 -35 81 -38 205 -15 150 27 290 27
355 -1 45 -19 50 -20 79 -5 17 9 31 23 31 31 0 17 34 29 65 21 17 -4 33 2 55
21 24 20 34 23 40 14 5 -9 9 -10 14 -2 10 15 -36 32 -107 38 -32 3 -60 10 -63
15 -7 12 53 76 78 84 10 3 18 13 18 23 0 10 18 34 41 55 33 29 40 41 34 59 -4
12 -6 32 -6 45 1 17 -5 22 -22 22 -27 0 -146 38 -165 53 -21 16 3 31 60 37 28
3 53 10 55 17 6 18 -114 27 -270 20 -113 -6 -141 -4 -153 8 -9 8 -10 16 -4 20
5 3 10 24 10 45 0 21 6 45 14 52 30 31 29 72 -1 61z m327 -403 c0 -5 -4 -10
-10 -10 -5 0 -10 5 -10 10 0 6 5 10 10 10 6 0 10 -4 10 -10z"/>
<path d="M8108 1413 c7 -3 16 -2 19 1 4 3 -2 6 -13 5 -11 0 -14 -3 -6 -6z"/>
<path d="M8053 1381 c-13 -11 -23 -23 -23 -28 0 -6 -17 -24 -39 -41 -21 -17
-41 -40 -44 -51 -6 -24 -4 -25 21 -12 9 5 29 14 45 22 20 9 27 20 27 41 0 31
3 33 31 17 16 -8 26 -5 49 13 36 28 38 40 5 32 -19 -5 -25 -2 -25 10 0 21 -20
20 -47 -3z"/>
<path d="M8195 1323 c-23 -3 -34 -12 -42 -33 -14 -36 -45 -40 -67 -8 -9 12
-16 17 -16 10 0 -6 -7 -12 -15 -12 -17 0 -14 -25 12 -96 11 -32 24 -45 59 -62
52 -26 143 -29 195 -8 19 7 43 16 53 20 18 6 16 10 -19 46 -22 22 -47 40 -57
40 -21 0 -68 21 -68 30 0 16 29 30 81 41 63 13 87 29 44 29 -17 0 -52 2 -80 4
-27 2 -64 2 -80 -1z"/>
<path d="M7914 1149 c-12 -19 -14 -40 -4 -34 5 3 10 0 12 -6 2 -7 8 -6 16 3 9
11 9 19 -2 33 -11 15 -14 16 -22 4z"/>
<path d="M1360 1135 c0 -8 5 -15 10 -15 6 0 10 7 10 15 0 8 -4 15 -10 15 -5 0
-10 -7 -10 -15z"/>
<path d="M2033 1129 c-6 -6 -9 -28 -6 -50 4 -29 2 -39 -8 -39 -9 0 -8 -5 5
-17 16 -17 18 -17 35 4 10 12 21 19 25 16 3 -4 5 14 4 38 -1 42 -1 43 -6 9
l-6 -35 -5 39 c-6 41 -19 54 -38 35z"/>
<path d="M7900 1075 c0 -8 5 -15 10 -15 6 0 10 7 10 15 0 8 -4 15 -10 15 -5 0
-10 -7 -10 -15z"/>
<path d="M9400 1024 c0 -41 79 -138 97 -120 3 3 0 26 -7 52 -10 33 -22 52 -44
65 -38 23 -46 24 -46 3z"/>
<path d="M8611 960 c-58 -12 -68 -24 -40 -44 36 -25 215 -16 268 14 45 25
-138 49 -228 30z"/>
<path d="M7212 726 c-36 -11 -48 -39 -38 -81 4 -16 0 -34 -10 -50 -14 -21 -14
-30 -4 -54 6 -17 9 -34 6 -39 -9 -15 32 -101 69 -147 45 -56 95 -69 171 -44
90 30 100 18 142 -176 l27 -130 73 -3 c71 -3 73 -2 68 20 -3 13 -17 77 -31
144 -15 66 -25 138 -23 160 3 37 5 39 42 42 22 2 50 1 64 -3 48 -12 112 -104
112 -162 0 -13 7 -37 15 -53 8 -16 18 -57 22 -90 l6 -60 158 0 c129 0 159 3
159 14 0 8 -7 16 -15 20 -9 3 -24 25 -35 48 -10 24 -32 58 -49 77 -17 18 -31
37 -31 42 0 4 11 20 24 35 l23 28 204 8 c211 9 2178 1 2238 -8 53 -8 26 -21
-104 -49 -66 -14 -167 -37 -225 -51 -99 -24 -391 -85 -510 -106 -30 -6 -109
-21 -175 -33 l-120 -23 668 -1 667 -1 0 294 0 294 -137 0 c-76 -1 -208 4 -293
11 -85 6 -283 14 -440 17 -157 3 -298 10 -314 15 -16 5 -92 11 -170 14 -78 3
-242 10 -366 15 -124 5 -331 15 -460 20 -129 6 -345 15 -480 20 -135 6 -301
15 -370 20 -201 14 -521 18 -558 6z m543 -41 c448 -27 559 -35 577 -41 11 -3
38 -6 62 -6 45 0 76 -12 62 -25 -9 -9 -305 -9 -773 2 -325 7 -333 8 -339 28
-5 15 0 26 16 39 27 22 66 22 395 3z m1204 -61 c12 -11 -16 -13 -122 -7 -64 3
-117 10 -117 16 0 9 229 0 239 -9z m-372 0 c-3 -3 -12 -4 -19 -1 -8 3 -5 6 6
6 11 1 17 -2 13 -5z m598 -4 c14 -6 3 -9 -40 -9 -33 -1 -70 -4 -82 -7 -13 -4
-23 -2 -23 4 0 9 20 13 110 19 8 1 24 -2 35 -7z m-1825 -39 c0 -9 -20 -26 -45
-38 -44 -23 -44 -23 -55 -3 -14 26 2 57 32 62 38 6 68 -3 68 -21z m2654 -21
c-7 -7 -19 -7 -35 -1 -23 9 -22 10 11 10 23 1 31 -2 24 -9z m-1030 -31 c39 -5
89 -7 112 -3 41 6 44 4 81 -40 15 -18 13 -18 -106 -41 -89 -16 -125 -32 -54
-22 29 3 46 1 54 -9 14 -17 33 -15 -196 -19 -220 -3 -315 3 -315 20 0 10 29
12 131 9 72 -2 136 -1 143 3 12 8 -133 31 -209 32 -27 1 -70 7 -95 15 -41 12
-43 14 -23 24 12 7 47 12 77 12 31 0 56 3 56 8 0 4 12 8 28 9 15 1 70 6 122
11 52 5 101 7 109 5 8 -2 46 -8 85 -14z m-984 -2 c63 -3 128 -10 143 -16 17
-6 51 -8 82 -5 30 4 62 4 71 0 16 -6 16 -8 -4 -22 -18 -12 -61 -14 -276 -10
-179 4 -256 2 -256 -6 0 -6 -12 -8 -32 -4 -136 26 -286 11 -388 -38 -88 -43
-130 -28 -77 27 35 38 77 61 131 73 49 12 332 12 606 1z m2027 -24 c6 -16 -39
-27 -68 -18 -22 7 -22 8 -3 22 22 16 66 14 71 -4z m211 7 c-20 -12 -148 -21
-163 -12 -13 9 46 19 120 20 43 1 55 -1 43 -8z m-839 -35 c15 -16 -30 -25 -97
-20 -98 8 -120 18 -57 26 53 7 144 3 154 -6z m-1211 -45 c13 -7 6 -10 -28 -11
-25 -1 -101 -4 -170 -6 -69 -3 -202 -5 -296 -4 -160 1 -175 -1 -234 -24 -67
-26 -100 -31 -100 -16 0 13 48 46 80 56 69 20 714 25 748 5z"/>
</g>
</svg>
