<?xml version="1.0" standalone="no"?>
<!DOCTYPE svg PUBLIC "-//W3C//DTD SVG 20010904//EN"
 "http://www.w3.org/TR/2001/REC-SVG-20010904/DTD/svg10.dtd">
<svg version="1.0" xmlns="http://www.w3.org/2000/svg"
 width="718.000000pt" height="799.000000pt" viewBox="0 0 718.000000 799.000000"
 preserveAspectRatio="xMidYMid meet">

<g transform="translate(0.000000,799.000000) scale(0.100000,-0.100000)"
fill="#000000" stroke="none">
<path d="M816 7948 c6 -37 5 -41 -11 -35 -13 6 -16 3 -11 -9 3 -8 6 -17 6 -19
0 -2 9 -1 19 2 24 6 35 -24 32 -89 -1 -27 3 -48 9 -48 5 0 10 -11 10 -24 0
-13 9 -46 21 -73 11 -26 18 -59 16 -73 -6 -27 14 -120 25 -120 12 0 20 87 10
106 -7 13 -6 22 4 32 8 7 14 27 14 43 0 16 5 29 10 29 6 0 10 16 10 36 0 50
53 90 62 47 3 -16 7 -15 28 7 14 14 39 34 55 45 24 16 27 20 13 23 -25 5 -22
21 10 51 23 22 24 26 10 29 -24 5 -23 14 7 42 16 15 44 27 73 31 26 3 -60 7
-191 8 l-237 1 6 -42z m301 -70 c-3 -7 -5 -2 -5 12 0 14 2 19 5 13 2 -7 2 -19
0 -25z"/>
<path d="M760 7880 c0 -5 4 -10 9 -10 6 0 13 5 16 10 3 6 -1 10 -9 10 -9 0
-16 -4 -16 -10z"/>
<path d="M779 7850 c-13 -10 -19 -19 -12 -20 11 0 43 26 43 36 0 8 -8 4 -31
-16z"/>
<path d="M708 7853 c7 -3 16 -2 19 1 4 3 -2 6 -13 5 -11 0 -14 -3 -6 -6z"/>
<path d="M4335 7768 c-4 -10 -11 -16 -15 -13 -16 10 1 -45 39 -128 12 -26 22
-57 21 -70 -4 -43 -1 -48 28 -45 25 3 27 6 26 49 0 41 -52 174 -74 189 -4 3
-9 12 -12 20 -5 13 -7 12 -13 -2z"/>
<path d="M4950 7593 c-30 -65 -69 -147 -87 -182 -24 -49 -30 -69 -22 -83 19
-36 84 -11 121 46 52 81 69 134 71 225 1 82 -5 111 -22 111 -4 0 -32 -53 -61
-117z"/>
<path d="M4185 7539 c-16 -6 -49 -19 -72 -30 -24 -10 -46 -19 -49 -19 -15 0
-237 -114 -262 -134 -15 -12 -38 -27 -52 -33 -31 -14 -219 -177 -252 -218 -42
-52 -78 -125 -139 -285 -33 -85 -63 -164 -68 -175 -5 -11 -17 -40 -26 -65 -31
-82 -218 -306 -280 -336 -25 -12 -31 -20 -28 -38 5 -26 -40 -79 -89 -106 -18
-9 -37 -25 -42 -36 -16 -28 -47 -54 -65 -54 -29 0 -39 -14 -46 -63 -7 -47 -6
-49 33 -86 39 -37 42 -38 86 -30 68 13 154 21 221 22 58 1 62 -1 113 -48 29
-27 62 -53 74 -59 12 -6 30 -26 40 -45 18 -32 18 -35 2 -70 -9 -20 -19 -40
-21 -44 -6 -9 64 -77 78 -77 6 0 17 -6 24 -12 8 -7 21 -19 30 -26 8 -7 15 -28
15 -47 0 -26 13 -49 55 -102 55 -69 63 -87 45 -98 -7 -4 -8 -11 -2 -18 5 -7
12 -25 14 -42 3 -16 3 -24 1 -17 -5 13 -78 16 -132 6 -23 -5 -31 -12 -31 -28
0 -12 -9 -25 -22 -31 -14 -6 -29 -31 -42 -68 l-21 -57 -55 1 c-30 1 -60 5 -65
10 -17 13 -37 -6 -33 -32 3 -22 7 -24 59 -22 55 3 57 2 62 -25 7 -34 1 -39
-23 -24 -16 9 -20 9 -20 0 0 -9 -3 -9 -12 0 -16 16 -55 15 -61 0 -3 -8 -6 -6
-6 5 -1 20 -44 23 -106 6 -34 -10 -37 -13 -20 -19 19 -7 19 -8 -5 -18 -15 -6
-26 -6 -28 0 -2 5 -10 3 -18 -3 -12 -10 -20 -7 -42 13 -42 39 -70 50 -139 53
-69 4 -86 11 -63 25 11 7 5 10 -21 10 -23 0 -39 6 -42 14 -8 20 -75 32 -99 17
-10 -6 -18 -10 -18 -8 0 1 -9 27 -20 57 -27 75 -26 139 5 200 14 27 31 53 38
57 7 4 18 20 24 36 7 15 17 27 23 27 5 0 10 17 10 38 0 26 -6 42 -20 52 -11 8
-20 25 -20 38 0 13 -4 20 -10 17 -5 -3 -10 -2 -10 4 0 5 -12 11 -27 13 l-27 3
32 33 c32 33 42 49 21 37 -6 -4 -13 3 -16 15 -4 15 -11 20 -24 17 -10 -3 -20
0 -23 7 -2 6 -5 1 -5 -11 -1 -12 -4 -23 -8 -26 -5 -2 -2 -2 5 -1 8 2 12 -10
12 -36 0 -42 -7 -49 -28 -28 -10 10 -17 10 -32 0 -16 -10 -21 -9 -31 9 -9 18
-16 20 -47 14 -21 -4 -41 -13 -45 -21 -6 -10 -22 -12 -65 -8 -97 10 -127 2
-173 -47 -37 -40 -54 -48 -61 -28 -2 6 -40 11 -96 12 -95 1 -98 2 -93 45 1 7
-9 12 -24 12 -14 0 -25 -6 -25 -13 0 -7 -18 -25 -40 -40 -23 -15 -40 -21 -40
-14 0 12 -31 28 -77 42 -16 4 -25 0 -33 -15 -6 -12 -9 -28 -6 -35 3 -9 0 -12
-11 -8 -8 3 -19 0 -24 -8 -8 -12 -10 -12 -8 1 3 35 -2 40 -41 40 -22 0 -40 -4
-40 -9 0 -6 -13 -6 -32 1 -47 16 -55 26 -32 43 17 13 17 14 2 15 -10 0 -18 6
-18 14 0 8 -10 16 -22 18 -17 2 -25 13 -31 41 -9 36 -27 52 -27 22 0 -11 -11
-15 -39 -15 -22 0 -42 -5 -44 -12 -4 -10 -6 -10 -6 0 -1 6 -12 12 -25 12 -28
0 -40 24 -26 50 6 10 10 27 10 38 0 11 6 25 14 32 8 6 12 18 9 26 -3 7 2 17
11 20 9 3 16 12 16 20 0 8 6 14 14 14 15 0 29 27 21 40 -3 5 6 17 20 26 18 11
25 24 22 36 -3 10 -2 16 2 13 9 -5 81 43 81 54 0 18 -40 -2 -77 -38 -86 -84
-121 -131 -166 -221 -26 -52 -47 -102 -47 -111 0 -9 -7 -22 -15 -29 -8 -7 -15
-19 -15 -26 0 -8 -13 -36 -30 -62 -16 -27 -30 -54 -30 -61 0 -6 -4 -11 -8 -11
-5 0 -19 -19 -32 -42 -13 -24 -29 -48 -34 -54 -6 -7 -20 -24 -31 -40 -11 -15
-30 -39 -42 -53 -12 -14 -31 -37 -43 -50 -11 -13 -20 -28 -20 -33 0 -5 -15
-32 -33 -61 -19 -29 -45 -72 -59 -97 -14 -25 -35 -63 -48 -85 -12 -22 -26 -44
-30 -50 -4 -5 -32 -57 -62 -115 -61 -116 -132 -247 -148 -270 -6 -8 -24 -44
-40 -80 -17 -36 -34 -73 -40 -82 -5 -10 -10 -23 -10 -30 0 -6 -13 -39 -29 -72
-80 -165 -170 -535 -190 -781 -19 -225 -17 -253 30 -363 57 -133 201 -413 242
-470 18 -26 51 -76 72 -112 22 -36 43 -66 47 -68 4 -2 8 -10 8 -18 0 -8 4 -14
8 -14 5 0 15 -12 23 -28 7 -15 42 -64 76 -110 84 -111 90 -122 69 -137 -8 -7
-13 -15 -9 -18 3 -4 -5 -11 -18 -16 -13 -5 -36 -20 -51 -34 -15 -14 -41 -28
-58 -32 -17 -4 -34 -13 -37 -21 -3 -8 -11 -14 -19 -14 -8 0 -19 -9 -26 -20 -7
-11 -18 -20 -25 -20 -7 0 -13 -4 -13 -10 0 -5 -11 -10 -25 -10 -29 0 -69 -35
-62 -55 3 -7 -10 -20 -34 -31 -31 -15 -39 -24 -36 -40 3 -16 -1 -20 -13 -17
-12 3 -20 -3 -24 -19 -27 -91 -35 -129 -30 -143 3 -8 1 -15 -5 -15 -6 0 -11
-12 -12 -27 0 -16 -3 -22 -6 -15 -12 30 -21 7 -16 -43 5 -47 3 -55 -11 -55
-10 0 -16 -8 -16 -22 l-1 -23 -20 24 c-15 19 -18 31 -12 55 7 32 6 252 -3 321
-3 28 -15 50 -39 75 l-35 35 0 -643 0 -642 40 0 c23 0 40 5 40 11 0 7 10 9 27
4 15 -3 52 -9 83 -11 30 -3 75 -11 100 -19 25 -7 74 -17 110 -20 57 -6 136
-23 192 -41 10 -3 18 -12 18 -20 0 -8 7 -14 15 -14 8 0 15 5 15 10 0 12 50 13
69 1 11 -7 9 -10 -8 -16 -23 -7 -29 -25 -7 -25 7 0 19 -7 26 -15 7 -8 30 -20
51 -25 21 -6 45 -18 54 -27 11 -10 36 -16 75 -17 32 0 62 -4 66 -9 4 -4 18 -7
31 -7 14 0 32 -4 41 -9 22 -11 191 -25 312 -26 74 0 103 -4 130 -19 19 -10 59
-21 90 -23 30 -2 65 -10 77 -18 39 -26 172 -47 248 -40 192 17 233 18 410 10
163 -9 287 4 400 40 82 26 108 43 131 87 16 31 52 37 114 17 45 -14 163 -34
320 -55 94 -12 174 -15 320 -11 188 5 244 11 396 44 39 8 95 15 125 16 71 2
693 -21 882 -32 161 -9 191 -7 182 16 -3 11 -1 13 10 9 8 -3 15 -1 15 5 0 6 5
7 10 4 6 -4 8 -10 5 -15 -11 -18 32 -28 91 -23 39 3 86 0 133 -11 40 -9 76
-14 82 -11 5 4 9 1 9 -4 0 -6 6 -11 13 -11 8 0 19 -11 25 -24 15 -35 88 -46
127 -20 23 15 51 19 153 20 118 2 172 13 172 36 0 4 5 8 11 8 6 0 9 -7 5 -15
-4 -10 2 -15 17 -17 29 -2 55 -5 152 -17 44 -6 136 -13 205 -16 153 -6 266
-12 430 -25 69 -5 173 -10 233 -10 l107 0 0 1120 0 1120 -67 -1 c-38 0 -77 -4
-88 -9 -17 -7 -17 -9 -2 -9 9 -1 17 -5 17 -11 0 -5 16 -10 35 -10 55 0 93 -42
62 -69 -11 -8 -13 -37 -11 -113 1 -57 0 -93 -2 -80 -3 12 -8 22 -12 22 -10 0
-72 -69 -72 -80 0 -5 -7 -13 -15 -17 -20 -12 -64 -102 -52 -106 18 -6 -4 -29
-23 -24 -10 2 -24 1 -31 -4 -22 -14 6 -27 51 -22 46 5 57 -9 36 -42 -21 -31
-21 -32 9 -39 14 -4 25 -14 25 -23 0 -13 -8 -15 -46 -9 -26 3 -53 6 -61 6 -10
0 -11 5 -3 19 8 16 5 23 -20 41 -17 12 -30 16 -30 10 0 -8 -17 -11 -52 -9 -29
2 -58 0 -64 -4 -15 -9 -26 18 -18 47 5 21 8 22 30 12 13 -6 24 -17 24 -23 0
-8 14 -13 35 -13 19 0 35 2 35 4 0 3 -15 21 -34 40 -32 34 -66 48 -66 26 0 -5
-4 -10 -8 -10 -9 0 -30 184 -39 338 -8 140 -24 108 -23 -45 2 -246 0 -397 -5
-414 -5 -16 -28 -17 -313 -17 -389 0 -368 0 -355 -13 6 -6 73 -12 164 -14 85
-2 206 -9 269 -15 63 -7 127 -12 142 -11 15 1 29 -3 33 -9 3 -5 17 -10 30 -10
23 0 24 -2 24 -85 0 -64 -3 -85 -13 -85 -8 0 -17 -18 -21 -42 -4 -24 -10 -35
-12 -26 -3 13 -15 18 -44 18 -39 0 -39 0 -39 -40 l0 -40 -80 0 -80 0 -1 28 c0
27 -1 27 -11 4 -8 -16 -8 -29 0 -47 10 -22 9 -26 -18 -40 -16 -8 -40 -15 -54
-15 -17 0 -29 -8 -38 -27 -8 -16 -26 -31 -43 -36 -17 -5 -38 -13 -47 -18 -10
-5 -42 -9 -71 -9 -40 0 -60 -5 -77 -20 l-24 -20 25 2 c18 2 24 -2 23 -15 -1
-9 2 -17 7 -17 5 0 9 10 9 22 0 12 3 18 7 14 4 -4 8 -15 8 -24 0 -12 10 -18
33 -20 17 -2 32 -7 32 -12 0 -9 -344 -4 -450 6 -66 7 -106 9 -331 15 l-127 3
-11 67 c-6 38 -11 82 -11 98 0 17 -4 31 -10 31 -10 0 -13 -37 -12 -141 l1 -56
-57 5 c-31 2 -64 11 -73 18 -9 8 -22 12 -30 9 -17 -6 -46 11 -36 21 3 4 13 1
22 -6 12 -10 15 -9 15 5 0 10 6 26 14 34 17 19 10 71 -10 71 -11 0 -14 22 -14
104 l0 104 -40 10 c-32 8 -40 7 -40 -4 0 -8 -7 -14 -15 -14 -8 0 -15 -7 -15
-15 0 -8 -4 -15 -9 -15 -15 0 -26 23 -13 28 7 2 9 15 6 31 -4 18 -1 33 8 42
12 10 13 22 5 51 -5 21 -15 38 -21 38 -21 0 -35 -37 -29 -77 5 -36 5 -37 -10
-18 -21 26 -22 74 -2 81 17 7 21 34 5 34 -5 0 -10 -4 -10 -10 0 -5 -7 -10 -15
-10 -8 0 -15 6 -15 13 0 7 -11 23 -25 35 -14 13 -23 27 -20 32 3 6 0 10 -7 10
-8 0 -5 5 5 11 15 9 24 6 48 -17 16 -15 29 -22 29 -16 0 7 -5 12 -11 12 -5 0
-7 5 -3 11 4 7 23 9 53 5 25 -4 54 -7 63 -7 10 0 17 -3 17 -7 -4 -23 3 -24 14
-2 8 15 21 25 34 25 37 1 35 11 -6 27 -23 9 -65 15 -105 14 -37 -1 -70 2 -72
6 -3 4 -13 8 -23 8 -10 0 -22 13 -30 36 -17 46 3 124 31 124 18 0 18 -16 2
-67 -2 -7 1 -13 6 -13 5 0 12 12 16 27 3 16 7 34 10 41 2 6 -2 12 -8 12 -7 0
-6 5 2 15 11 13 11 20 0 40 -7 14 -17 25 -21 25 -5 0 -15 13 -23 29 -13 25
-13 40 -2 117 8 51 10 93 5 99 -5 5 -9 17 -9 27 0 23 -29 24 -36 0 -3 -9 -8
-24 -12 -32 -3 -8 -13 -35 -22 -60 -17 -48 -34 -57 -102 -59 -59 -2 -64 10
-59 140 15 322 3 420 -69 598 -30 73 -39 131 -20 131 15 0 54 -23 63 -37 4 -7
15 -13 23 -13 21 0 84 -42 144 -95 28 -25 68 -56 88 -69 21 -13 55 -44 75 -70
21 -25 42 -46 47 -46 6 0 33 -15 62 -33 47 -29 85 -47 164 -77 12 -5 42 -39
68 -77 64 -95 83 -115 146 -155 135 -85 281 -100 391 -41 121 66 197 116 213
142 4 7 30 39 58 70 27 31 52 61 56 66 19 26 34 122 39 245 6 144 -3 196 -57
330 -19 49 -99 165 -153 224 -197 213 -260 299 -375 506 -112 201 -118 220
-126 389 -9 201 -50 355 -132 498 -35 60 -103 149 -141 184 -28 26 -29 26 -52
8 -29 -24 -100 -25 -169 -3 -40 13 -57 26 -79 58 -15 23 -31 43 -35 46 -13 10
-27 59 -25 87 4 43 30 40 71 -11 61 -73 149 -95 226 -56 51 26 74 57 55 76
-19 20 -27 17 -20 -6 8 -24 -22 -29 -31 -5 -4 8 -12 15 -20 15 -8 0 -22 9 -31
20 -10 11 -32 23 -51 26 -18 4 -36 13 -39 20 -5 15 -134 104 -150 104 -5 0
-20 11 -33 25 -12 13 -27 22 -33 18 -6 -3 -7 -2 -4 4 7 11 -76 75 -90 71 -4
-2 -10 2 -11 7 -8 21 -25 35 -47 35 -12 0 -30 9 -40 20 -15 17 -16 25 -6 64
15 60 14 169 -1 184 -10 10 -10 15 2 23 11 7 6 9 -18 5 -30 -4 -33 -2 -29 16
3 11 0 29 -6 39 -9 14 -9 24 -1 37 8 11 8 22 1 33 -7 11 -5 24 6 45 29 54 36
72 40 112 2 22 9 47 15 55 7 8 16 46 21 83 7 56 6 72 -7 86 -16 19 -46 31 -77
32 -13 1 -21 9 -23 25 -2 15 -14 27 -32 34 -19 7 -30 20 -34 39 -6 31 -23 37
-33 11 -3 -10 -28 -39 -55 -66 -26 -26 -48 -51 -48 -57 0 -20 -35 -50 -58 -50
-19 0 -22 -4 -17 -21 5 -14 3 -19 -3 -15 -10 6 -28 -30 -24 -46 1 -5 -5 -8
-14 -8 -8 0 -12 4 -9 10 3 5 1 18 -4 27 -10 17 -11 16 -17 -4 -3 -13 -10 -23
-14 -23 -11 0 -54 128 -56 165 -1 17 -3 33 -4 38 -1 4 -3 12 -4 17 0 6 -7 15
-15 19 -10 7 -13 22 -8 58 8 67 -1 103 -24 103 -30 0 -27 93 5 130 17 21 27
51 36 114 14 95 8 116 -36 116 -31 0 -39 16 -15 32 11 8 22 30 26 50 5 27 25
53 80 107 48 46 82 90 101 128 28 60 89 116 139 129 14 4 24 11 22 18 -5 14
-103 18 -142 5z m-235 -419 c0 -5 -5 -10 -11 -10 -5 0 -7 5 -4 10 3 6 8 10 11
10 2 0 4 -4 4 -10z m49 -173 c0 -12 -3 -16 -6 -9 -2 6 -11 12 -19 12 -8 0 -14
9 -14 20 0 18 3 19 20 10 11 -6 20 -20 19 -33z m896 -2366 c-11 -5 -91 -9
-179 -10 -87 -1 -163 -4 -168 -7 -5 -3 -17 -2 -26 3 -11 5 29 10 103 13 225 9
291 10 270 1z m-60 -71 c10 16 25 12 25 -7 0 -9 7 -24 15 -33 14 -15 11 -17
-36 -19 -28 -1 -57 3 -65 10 -13 10 -12 15 7 35 16 17 26 21 35 13 8 -7 14 -7
19 1z m110 -651 c44 -6 81 -12 83 -14 25 -25 -127 -41 -171 -18 -16 8 -36 12
-44 9 -21 -9 -65 4 -60 18 4 12 73 26 97 19 8 -2 51 -9 95 -14z m140 -39 c9
-15 -15 -12 -31 4 -8 8 -14 17 -14 21 0 8 37 -13 45 -25z m-581 -57 c28 -10
53 -21 54 -25 2 -5 10 -8 18 -8 33 0 210 -99 197 -110 -24 -21 -72 -28 -110
-15 -21 8 -51 14 -68 15 -37 0 -53 10 -69 41 -8 17 -26 28 -58 36 -26 6 -58
19 -71 29 l-24 18 21 18 c27 22 46 22 110 1z m-2956 -85 c5 -7 24 -47 42 -88
25 -56 33 -88 32 -128 -1 -32 2 -50 8 -47 6 4 10 -7 10 -24 0 -17 4 -31 8 -31
10 0 14 -50 4 -51 -152 -13 -263 -3 -287 25 -5 7 -18 15 -27 19 -10 3 -18 15
-18 25 0 10 -5 23 -10 28 -7 7 5 28 40 65 27 30 78 91 112 137 34 45 65 82 69
82 3 0 11 -6 17 -12z m2207 -92 c11 -7 35 -13 54 -14 18 0 40 -7 50 -15 9 -9
32 -22 51 -30 26 -11 30 -16 15 -16 -12 -1 -26 4 -33 11 -9 9 -15 9 -24 0 -8
-8 -8 -12 -1 -12 6 0 13 -10 16 -21 4 -14 11 -20 21 -16 8 3 18 2 22 -4 3 -6
12 -8 20 -5 7 3 18 -4 24 -14 10 -18 7 -20 -20 -20 -23 0 -35 -7 -48 -29 -11
-18 -24 -27 -37 -25 -11 2 -29 -4 -39 -11 -19 -14 -19 -15 -1 -35 14 -16 16
-23 7 -32 -20 -20 -14 -37 37 -87 62 -62 70 -85 39 -116 -12 -13 -29 -30 -36
-39 -7 -9 -25 -17 -40 -17 -18 -1 -21 -3 -9 -6 18 -5 18 -6 1 -24 -17 -18 -17
-21 -1 -36 13 -14 17 -14 17 -3 0 12 2 12 13 1 10 -11 10 -14 0 -18 -8 -3 -13
-22 -13 -48 0 -41 -1 -43 -37 -50 -24 -4 -39 -3 -41 4 -2 6 -11 11 -20 11 -15
1 -15 2 1 11 21 12 23 39 2 39 -8 0 -15 4 -15 8 0 4 -12 8 -27 7 -21 0 -30 -7
-38 -30 -5 -16 -12 -32 -15 -35 -4 -3 -12 -31 -20 -63 -7 -32 -17 -60 -21 -63
-5 -2 -7 -10 -5 -17 1 -7 1 -9 -1 -4 -10 17 -23 4 -44 -43 -12 -27 -26 -50
-30 -50 -4 0 -17 22 -30 49 l-22 49 -66 4 c-42 3 -76 -1 -94 -9 -15 -8 -32
-11 -37 -8 -6 4 -25 -3 -44 -14 -18 -11 -36 -18 -39 -15 -12 12 -77 -20 -77
-38 0 -12 -7 -18 -21 -18 -18 0 -19 2 -9 15 10 13 7 17 -21 29 -21 9 -38 11
-43 5 -15 -14 -42 -11 -56 6 -7 8 -31 16 -54 16 -36 1 -37 2 -12 8 27 6 28 7
10 23 -11 9 -22 17 -26 18 -35 8 -48 14 -48 22 0 5 -9 18 -20 30 -18 20 -20
20 -20 3 0 -13 -9 -9 -37 21 l-37 39 37 3 c30 3 37 7 37 24 0 19 -4 20 -77 13
-43 -4 -79 -11 -81 -16 -5 -14 -80 -11 -84 3 -3 9 -16 8 -49 -5 -57 -22 -66
-21 -74 3 -3 11 -13 20 -21 20 -8 0 -14 10 -14 25 0 13 -8 28 -17 34 -15 8
-17 21 -15 73 3 60 16 93 32 83 4 -2 12 7 18 20 7 14 17 25 23 25 6 0 26 16
43 37 26 28 38 35 56 30 16 -4 29 1 45 19 12 13 33 24 47 24 13 0 39 11 58 25
19 14 46 25 62 25 15 0 42 8 61 19 18 10 56 22 83 26 27 4 67 18 89 30 93 54
112 63 150 68 22 3 54 10 70 15 42 13 256 25 294 17 17 -4 31 -13 31 -20 0 -8
9 -19 20 -25 26 -14 35 6 27 55 -5 30 -2 38 26 60 37 28 118 35 152 11z m595
-116 c0 -31 -17 -39 -38 -18 -9 9 -8 16 5 30 23 26 33 22 33 -12z m1434 -132
c18 -18 41 -40 52 -49 10 -9 29 -27 40 -40 12 -13 33 -33 47 -44 26 -20 34
-35 19 -35 -4 0 -30 18 -57 41 -28 22 -61 49 -75 60 -14 11 -35 27 -47 37 -25
20 -40 62 -23 62 6 0 26 -15 44 -32z m-4092 -127 c16 -1 20 -8 33 -65 l6 -29
-98 7 c-54 4 -122 7 -151 6 -37 -1 -52 3 -50 11 2 7 -5 15 -15 17 -13 3 -17
-1 -15 -14 2 -12 -6 -20 -25 -25 -27 -7 -28 -7 -21 29 3 20 10 41 15 46 4 5
36 11 71 13 35 3 64 6 65 7 1 1 139 -1 185 -3z m2762 -37 c3 -8 2 -12 -4 -9
-6 3 -10 10 -10 16 0 14 7 11 14 -7z m-2692 -215 c43 -23 67 -191 84 -588 1
-35 7 -67 13 -70 18 -12 32 -61 21 -81 -13 -25 -82 -81 -119 -96 -34 -14 -47
-5 -49 35 -1 34 35 101 55 101 13 0 14 3 5 12 -9 9 -19 9 -45 0 -42 -15 -48
-15 -41 2 3 7 -2 16 -10 19 -8 3 -12 14 -9 25 3 13 -4 24 -22 36 -15 10 -25
23 -22 29 8 22 -12 57 -38 67 -22 8 -26 15 -23 42 2 20 8 32 16 30 6 -1 12 5
12 13 0 8 -5 15 -11 15 -22 0 -48 42 -47 75 1 18 -9 48 -21 69 -13 21 -20 44
-16 54 3 13 -9 44 -36 88 -23 38 -43 83 -45 101 -2 32 -1 32 34 29 21 -2 82 0
137 3 103 7 147 5 177 -10z m1071 -229 c-4 -14 -14 -20 -34 -20 -22 0 -29 5
-29 20 0 16 7 20 34 20 29 0 33 -3 29 -20z m-917 -585 c23 -57 18 -80 -28
-119 -61 -53 -118 -42 -118 22 0 26 10 40 61 82 33 27 62 50 65 50 3 0 12 -16
20 -35z m-1117 -188 c9 -12 5 -21 -18 -46 -16 -17 -34 -31 -40 -31 -6 0 -19
-8 -29 -17 -69 -66 -126 -87 -237 -87 -79 -1 -90 1 -93 17 -2 12 4 20 17 24
11 3 18 9 15 14 -3 5 1 9 8 9 17 0 92 38 152 78 28 17 54 32 60 32 5 0 17 6
25 14 9 8 29 21 45 30 27 14 32 13 56 -4 15 -11 32 -25 39 -33z m61 -79 c48
-51 46 -63 -13 -90 -26 -13 -63 -18 -122 -18 -79 0 -109 11 -67 24 9 4 35 22
57 41 40 35 90 64 112 65 7 0 22 -10 33 -22z m5897 -40 c-3 -7 -5 -2 -5 12 0
14 2 19 5 13 2 -7 2 -19 0 -25z m40 0 c-3 -7 -5 -2 -5 12 0 14 2 19 5 13 2 -7
2 -19 0 -25z m-5867 -53 c0 -8 -7 -15 -15 -15 -16 0 -20 12 -8 23 11 12 23 8
23 -8z m5840 -35 c0 -5 -4 -10 -10 -10 -5 0 -10 5 -10 10 0 6 5 10 10 10 6 0
10 -4 10 -10z m14 -39 c3 -5 0 -11 -8 -14 -15 -6 -26 1 -26 15 0 11 27 10 34
-1z m203 -7 c-3 -3 -12 -4 -19 -1 -8 3 -5 6 6 6 11 1 17 -2 13 -5z m-4 -31
c-7 -2 -21 -2 -30 0 -10 3 -4 5 12 5 17 0 24 -2 18 -5z m-2026 -150 c-3 -10
-5 -2 -5 17 0 19 2 27 5 18 2 -10 2 -26 0 -35z m-4817 -163 c0 -5 -5 -10 -11
-10 -5 0 -7 5 -4 10 3 6 8 10 11 10 2 0 4 -4 4 -10z m-15 -30 c3 -5 -1 -10
-10 -10 -9 0 -13 5 -10 10 3 6 8 10 10 10 2 0 7 -4 10 -10z m6720 -10 c3 -5 1
-10 -4 -10 -6 0 -11 5 -11 10 0 6 2 10 4 10 3 0 8 -4 11 -10z m-478 -42 c-3
-8 -6 -5 -6 6 -1 11 2 17 5 13 3 -3 4 -12 1 -19z m-47 2 c0 -5 -7 -10 -16 -10
-8 0 -12 5 -9 10 3 6 10 10 16 10 5 0 9 -4 9 -10z m-170 -20 c0 -5 -4 -10 -10
-10 -5 0 -10 5 -10 10 0 6 5 10 10 10 6 0 10 -4 10 -10z m30 -20 c0 -5 -2 -10
-4 -10 -3 0 -8 5 -11 10 -3 6 -1 10 4 10 6 0 11 -4 11 -10z m220 -10 c0 -5
-13 -10 -29 -10 -16 0 -43 -3 -60 -6 -19 -4 -31 -2 -31 4 0 6 19 13 43 15 23
2 50 4 60 5 9 1 17 -2 17 -8z m140 -10 c0 -5 -2 -10 -4 -10 -3 0 -8 5 -11 10
-3 6 -1 10 4 10 6 0 11 -4 11 -10z m-960 -35 c91 -2 201 -8 245 -14 44 -5 139
-15 210 -21 156 -14 178 -18 170 -30 -8 -13 -572 -3 -642 11 -29 6 -56 8 -60
6 -5 -3 -66 1 -138 7 -71 7 -143 11 -160 10 -41 -4 -248 27 -260 39 -6 6 75 7
230 2 132 -4 314 -8 405 -10z m-1510 -176 c0 -18 -4 -28 -10 -24 -5 3 -10 20
-10 36 0 18 4 28 10 24 6 -3 10 -20 10 -36z m24 -87 c16 -75 25 -187 16 -196
-7 -7 -10 4 -10 33 0 23 -4 50 -9 59 -14 27 -25 146 -13 138 6 -3 13 -19 16
-34z m-549 -40 c-8 -8 -25 10 -19 20 4 6 9 5 15 -3 4 -7 6 -15 4 -17z m2310
19 c3 -5 1 -12 -5 -16 -5 -3 -10 1 -10 9 0 18 6 21 15 7z m-675 -36 c0 -8 -2
-15 -4 -15 -2 0 -6 7 -10 15 -3 8 -1 15 4 15 6 0 10 -7 10 -15z m-1611 -65
c18 -84 25 -216 12 -224 -6 -4 -11 -6 -11 -4 0 2 -7 62 -15 133 -18 156 -17
145 -6 145 5 0 14 -23 20 -50z m2005 -5 c3 -8 1 -15 -4 -15 -6 0 -10 7 -10 15
0 8 2 15 4 15 2 0 6 -7 10 -15z m246 -5 c0 -5 -5 -10 -11 -10 -5 0 -7 5 -4 10
3 6 8 10 11 10 2 0 4 -4 4 -10z m-507 -46 c34 -6 35 -8 20 -20 -10 -7 -26 -14
-35 -14 -37 0 -23 -15 15 -17 23 -1 43 -6 45 -12 2 -6 12 -11 22 -11 10 0 22
-4 25 -10 4 -6 -21 -10 -68 -10 -81 0 -87 4 -87 73 0 29 4 30 63 21z m291 -23
c16 -18 16 -18 -9 -18 -18 0 -25 5 -25 18 0 11 4 19 8 19 5 0 17 -8 26 -19z
m122 3 c49 -14 52 -17 41 -35 -16 -26 -37 -24 -37 4 -1 19 -2 20 -13 6 -12
-15 -77 -25 -77 -11 1 21 14 52 22 52 6 0 34 -7 64 -16z m121 -26 c-3 -8 -6
-5 -6 6 -1 11 2 17 5 13 3 -3 4 -12 1 -19z m-1730 -10 c-3 -8 -6 -5 -6 6 -1
11 2 17 5 13 3 -3 4 -12 1 -19z m1343 18 c0 -3 -4 -8 -10 -11 -5 -3 -10 -1
-10 4 0 6 5 11 10 11 6 0 10 -2 10 -4z m-272 -33 c-5 -24 -27 -28 -25 -4 1 12
7 21 15 21 7 0 12 -8 10 -17z m353 -14 c12 -19 11 -29 -1 -29 -5 0 -10 6 -10
13 0 7 -11 14 -23 15 -13 1 -35 6 -48 12 -20 8 -16 9 24 7 28 -2 52 -9 58 -18z
m-341 -69 c0 -5 -12 -10 -26 -10 -14 0 -23 4 -19 10 3 6 15 10 26 10 10 0 19
-4 19 -10z m27 -67 c-3 -10 -5 -4 -5 12 0 17 2 24 5 18 2 -7 2 -21 0 -30z
m-3567 -33 c0 -5 -4 -10 -9 -10 -6 0 -13 5 -16 10 -3 6 1 10 9 10 9 0 16 -4
16 -10z m-300 -10 c0 -5 -2 -10 -4 -10 -3 0 -8 5 -11 10 -3 6 -1 10 4 10 6 0
11 -4 11 -10z m3820 -60 c0 -11 -4 -20 -10 -20 -5 0 -10 9 -10 20 0 11 5 20
10 20 6 0 10 -9 10 -20z m128 8 c-6 -18 -28 -21 -28 -4 0 9 7 16 16 16 9 0 14
-5 12 -12z m742 -28 c0 -5 -4 -10 -10 -10 -5 0 -10 5 -10 10 0 6 5 10 10 10 6
0 10 -4 10 -10z m1040 -39 c0 -6 -4 -13 -10 -16 -16 -10 -11 -33 8 -37 12 -2
13 -6 5 -11 -15 -10 -47 37 -39 58 6 16 36 21 36 6z m-1505 -21 c3 -5 1 -10
-4 -10 -6 0 -11 5 -11 10 0 6 2 10 4 10 3 0 8 -4 11 -10z"/>
<path d="M3725 2960 c-3 -5 3 -10 14 -10 12 0 21 5 21 10 0 6 -6 10 -14 10 -8
0 -18 -4 -21 -10z"/>
<path d="M1800 2413 c0 -22 2 -25 10 -13 13 20 13 40 0 40 -5 0 -10 -12 -10
-27z"/>
<path d="M1836 2275 c4 -8 8 -15 10 -15 2 0 4 7 4 15 0 8 -4 15 -10 15 -5 0
-7 -7 -4 -15z"/>
<path d="M4630 7295 c-12 -12 -37 -31 -56 -41 -41 -22 -43 -37 -8 -53 24 -11
25 -13 12 -29 -35 -41 -33 -44 25 -37 76 10 155 -14 207 -63 33 -31 41 -45 45
-84 2 -27 3 -48 0 -48 -2 0 -15 4 -29 10 -31 12 -33 7 -5 -21 17 -17 23 -18
37 -7 32 24 61 63 62 82 0 11 5 34 12 52 9 26 18 33 46 38 20 3 41 1 47 -4 8
-6 23 -1 45 15 42 31 60 31 110 0 38 -24 40 -28 40 -75 0 -55 10 -61 47 -32
62 48 58 147 -7 189 -19 12 -50 34 -69 50 -34 27 -37 28 -160 28 -82 1 -134 5
-149 13 -12 7 -32 10 -43 7 -13 -4 -28 0 -39 10 -13 12 -27 15 -45 11 -14 -4
-31 -3 -38 1 -25 16 -66 10 -87 -12z m307 -181 c-3 -3 -12 -4 -19 -1 -8 3 -5
6 6 6 11 1 17 -2 13 -5z"/>
<path d="M4525 7070 c3 -5 21 -12 40 -16 41 -7 50 -18 59 -66 6 -35 10 -38 40
-38 19 0 43 9 56 20 23 20 23 21 4 35 -10 8 -24 15 -30 15 -6 0 -38 13 -70 30
-57 29 -111 40 -99 20z"/>
<path d="M4750 6976 c0 -2 9 -6 20 -9 11 -3 18 -1 14 4 -5 9 -34 13 -34 5z"/>
<path d="M4670 6906 c0 -5 66 -36 76 -36 15 0 0 20 -18 25 -53 15 -58 16 -58
11z"/>
<path d="M4965 6863 c0 -31 5 -40 28 -53 28 -15 29 -14 58 20 35 41 27 55 -41
64 l-45 6 0 -37z"/>
<path d="M3986 6801 c-4 -6 -2 -11 3 -11 6 0 11 -8 12 -17 0 -10 3 -13 5 -6 8
18 -11 49 -20 34z"/>
<path d="M4654 6313 c-13 -2 -30 -21 -43 -48 -12 -25 -26 -47 -31 -50 -5 -3
-11 -19 -15 -35 -4 -17 -10 -30 -14 -30 -10 0 -37 -70 -49 -127 -8 -34 -7 -45
7 -56 24 -21 129 -65 182 -76 25 -6 58 -17 75 -26 16 -8 36 -15 45 -15 9 0 22
-7 29 -15 7 -8 19 -15 27 -15 14 0 46 62 46 90 0 8 3 17 8 20 4 3 11 49 15
103 6 86 5 97 -10 97 -9 0 -16 6 -16 13 0 9 11 12 34 9 27 -3 33 -8 29 -20 -5
-11 -2 -14 10 -9 20 7 53 -35 42 -54 -4 -6 -1 -15 6 -20 11 -7 13 -39 11 -156
-1 -82 0 -158 3 -170 5 -20 8 -21 24 -11 18 11 19 25 18 211 l-2 199 -50 44
c-51 44 -167 107 -220 119 -17 4 -49 13 -73 21 -43 14 -50 15 -88 7z m171
-100 c5 -12 22 -25 37 -28 16 -4 28 -10 28 -15 0 -7 -38 0 -95 17 -11 3 -39 8
-63 10 -42 5 -43 6 -25 24 27 27 104 22 118 -8z"/>
<path d="M5393 5979 c-44 -23 -15 -62 30 -42 17 8 26 6 42 -10 20 -20 20 -20
-1 -15 -15 4 -21 1 -20 -11 1 -9 -7 -16 -18 -16 -10 0 -22 -9 -26 -20 -7 -17
-30 -43 -92 -102 -34 -33 -46 -50 -50 -68 -3 -17 12 -24 102 -54 58 -18 115
-38 127 -44 13 -6 26 -8 29 -4 3 3 19 1 36 -5 26 -9 31 -8 46 13 9 13 33 42
53 64 34 37 75 101 116 183 16 31 16 33 -3 51 -66 61 -307 113 -371 80z m247
-106 c0 -9 6 -13 15 -9 10 3 15 -1 15 -13 0 -27 -12 -33 -32 -14 -19 17 -26
69 -8 58 6 -3 10 -13 10 -22z"/>
<path d="M4560 5790 c0 -11 -4 -20 -10 -20 -5 0 -10 -4 -10 -10 0 -16 47 -11
54 6 8 22 8 22 -14 34 -17 9 -20 8 -20 -10z"/>
<path d="M2610 5625 c0 -8 7 -15 15 -15 8 0 15 7 15 15 0 8 -7 15 -15 15 -8 0
-15 -7 -15 -15z"/>
<path d="M1647 5514 c-16 -17 -5 -24 37 -24 25 0 48 5 51 10 3 6 -4 10 -17 10
-13 0 -32 3 -43 6 -11 3 -24 2 -28 -2z"/>
<path d="M5200 5352 c0 -5 7 -16 16 -23 14 -12 16 -11 13 5 -4 20 -29 35 -29
18z"/>
<path d="M5240 5320 c0 -5 5 -10 11 -10 5 0 7 5 4 10 -3 6 -8 10 -11 10 -2 0
-4 -4 -4 -10z"/>
<path d="M5350 5310 c-8 -5 -27 -10 -42 -10 -15 0 -29 -4 -33 -10 -3 -5 -12
-7 -20 -4 -8 3 -30 -3 -48 -15 -19 -12 -42 -21 -51 -21 -19 0 -31 -24 -20 -41
5 -9 10 -8 18 3 6 8 36 18 68 22 55 7 148 55 148 77 0 11 -1 11 -20 -1z"/>
<path d="M5116 5143 c-6 -14 -5 -15 5 -6 7 7 10 15 7 18 -3 3 -9 -2 -12 -12z"/>
<path d="M6773 3521 c3 -22 1 -41 -3 -41 -12 0 -40 29 -40 41 0 23 -21 6 -27
-23 l-6 -31 -19 23 c-22 27 -24 26 -36 -25 -6 -26 -5 -51 2 -71 16 -43 56 -95
68 -88 13 8 58 -35 58 -55 0 -9 26 -43 58 -77 l57 -61 130 -11 c72 -7 138 -12
148 -12 15 0 17 11 17 101 l0 101 -67 -3 c-38 -2 -107 -2 -155 -1 -80 2 -87 4
-94 24 -4 13 -2 24 5 26 6 2 8 9 5 14 -4 6 -2 8 4 4 6 -3 13 -2 17 4 9 14 63
12 110 -5 22 -8 54 -14 70 -13 l30 0 -30 7 c-25 6 -19 8 38 15 l67 8 0 40 0
40 -159 -7 c-105 -5 -165 -4 -177 3 -18 10 -18 11 -1 17 42 17 11 70 -52 90
-23 7 -24 6 -18 -34z"/>
<path d="M7166 2872 c-7 -12 -1 -130 7 -138 4 -4 7 27 7 69 0 73 -3 87 -14 69z"/>
<path d="M6712 2605 c0 -16 2 -22 5 -12 2 9 2 23 0 30 -3 6 -5 -1 -5 -18z"/>
<path d="M7166 2587 c-5 -15 -6 -31 -2 -34 11 -11 18 5 14 34 l-4 28 -8 -28z"/>
<path d="M4780 2520 c-12 -7 -12 -12 -3 -21 15 -15 26 -7 21 15 -2 11 -7 13
-18 6z"/>
<path d="M6705 2479 c-4 -6 -3 -15 3 -21 6 -6 11 -4 15 6 7 18 -9 31 -18 15z"/>
<path d="M7093 2275 c-18 -20 -16 -25 7 -25 13 0 20 7 20 20 0 23 -10 25 -27
5z"/>
<path d="M6915 2200 c-9 -15 4 -30 26 -30 12 0 19 7 19 20 0 21 -33 29 -45 10z"/>
<path d="M6778 2073 c7 -3 16 -2 19 1 4 3 -2 6 -13 5 -11 0 -14 -3 -6 -6z"/>
<path d="M6816 2031 c-7 -11 18 -33 27 -24 4 3 7 12 7 20 0 15 -26 18 -34 4z"/>
<path d="M5212 1970 c0 -14 2 -19 5 -12 2 6 2 18 0 25 -3 6 -5 1 -5 -13z"/>
<path d="M5088 1863 c6 -2 18 -2 25 0 6 3 1 5 -13 5 -14 0 -19 -2 -12 -5z"/>
<path d="M5200 1854 c0 -8 5 -12 10 -9 6 4 8 11 5 16 -9 14 -15 11 -15 -7z"/>
<path d="M134 1689 c-3 -6 -1 -14 5 -18 6 -4 9 -15 6 -23 -4 -9 -2 -19 4 -23
7 -4 11 8 11 34 0 40 -12 53 -26 30z"/>
<path d="M6340 1470 c0 -16 5 -30 10 -30 6 0 10 14 10 30 0 17 -4 30 -10 30
-5 0 -10 -13 -10 -30z"/>
<path d="M5267 1284 c-13 -13 -7 -23 13 -21 11 1 19 6 17 11 -4 13 -21 18 -30
10z"/>
<path d="M6722 53 c-10 -16 -22 -34 -26 -40 -6 -10 36 -13 196 -12 l203 1 -65
15 c-36 8 -109 25 -163 39 -54 13 -104 24 -112 24 -7 0 -22 -12 -33 -27z"/>
</g>
</svg>
